<svg enable-background="new 0 0 125 40" height="60" viewBox="0 0 120 60" width="120" xmlns="http://www.w3.org/2000/svg"><g transform="translate(7.534583 10.000414)"><path d="m.007 20.006c0-2.791.012-5.582-.005-8.373-.008-1.279.532-2.194 1.628-2.84 4.66-2.746 9.319-5.496 13.963-8.269 1.166-.696 2.256-.702 3.423-.005 4.663 2.781 9.34 5.539 14.017 8.296 1.074.633 1.605 1.563 1.606 2.797.004 5.582.003 11.164.001 16.746 0 1.231-.513 2.168-1.59 2.804-4.694 2.77-9.386 5.544-14.07 8.331-1.119.666-2.19.682-3.315.012-4.666-2.777-9.339-5.542-14.019-8.295-1.121-.659-1.657-1.591-1.646-2.894.023-2.769.007-5.54.007-8.31zm20.88-.111c0-1.28.01-2.561-.004-3.841-.007-.722-.429-1.186-1.075-1.235-.754-.057-1.3.416-1.32 1.187-.021.839.006 1.679-.01 2.519-.01.544-.365.827-.857.719-.405-.089-.512-.378-.51-.753.005-1.112-.002-2.225.004-3.337.002-.471-.127-.871-.547-1.13-.855-.526-1.846.013-1.874 1.038-.024.902.003 1.805-.009 2.708-.007.496-.232.734-.654.749-.443.015-.717-.247-.746-.744-.018-.314.006-.63-.007-.944-.022-.521-.286-.868-.766-1.037-.813-.285-1.597.255-1.613 1.129-.015.797.009 1.595-.01 2.393-.01.435-.267.673-.661.685-.405.012-.661-.209-.718-.633-.017-.124 0-.253-.015-.377-.075-.622-.595-1.095-1.187-1.088-.6.007-1.168.481-1.184 1.091-.033 1.259-.033 2.519.001 3.778.017.618.584 1.092 1.18 1.091.607-.002 1.11-.459 1.188-1.087.018-.145-.037-.327.032-.433.138-.211.309-.473.522-.542.185-.06.503.059.657.208.138.133.18.413.183.63.016 1.238-.006 2.477.013 3.715.013.905.945 1.463 1.745 1.059.455-.23.646-.61.641-1.13-.016-1.637-.007-3.274-.005-4.912.001-.764.229-1.106.726-1.099.475.006.681.325.682 1.061.001.735-.011 1.47.003 2.204.015.765.491 1.257 1.19 1.264.72.008 1.215-.506 1.229-1.294.01-.567-.006-1.134.005-1.7.01-.515.266-.798.689-.79s.67.289.677.803c.009.651-.015 1.302.008 1.952.024.707.54 1.188 1.217 1.177.698-.011 1.17-.504 1.177-1.273.012-1.262.003-2.521.003-3.781zm3.804 1.335c0-.713.007-1.426-.002-2.139-.009-.727-.46-1.205-1.142-1.232-.712-.028-1.243.386-1.259 1.108-.035 1.509-.032 3.02.008 4.528.019.702.596 1.164 1.255 1.126.682-.04 1.128-.52 1.139-1.252.009-.713.001-1.426.001-2.139zm1.401.595c0 .188-.008.377.001.565.031.646.474 1.094 1.109 1.129.673.037 1.206-.372 1.27-1.03.042-.435.041-.88-.001-1.316-.062-.65-.619-1.09-1.262-1.051-.622.038-1.079.501-1.116 1.138-.011.188-.001.377-.001.565z" fill="#f25c31"/><g fill="#f25f35"><path d="m82.139 19.287c1.435.686 2.147 1.797 2.129 3.363-.02 1.661-1.214 3.151-2.85 3.46-.695.131-1.417.143-2.128.163-.898.026-1.797.006-2.736.006 0-4.323 0-8.593 0-12.96 1.513.05 3.05-.226 4.513.365 1.962.792 2.665 3.514 1.377 5.195-.101.131-.198.264-.305.408zm-3.597 5.097c.621 0 1.185.012 1.748-.006.227-.007.457-.062.676-.127.778-.23 1.285-.88 1.309-1.653.027-.876-.351-1.512-1.114-1.772-.837-.286-1.707-.333-2.619-.296zm-.011-5.536c.961.036 1.921.125 2.429-.839.376-.713.399-1.526-.117-2.203-.584-.765-1.458-.653-2.312-.664z"/><path d="m52.123 23.217v2.26c-1.647 1.254-5.644 1.757-8.302-.964-2.424-2.481-2.575-6.294-.347-9.046 2.303-2.845 6.281-3.02 8.657-1.474v2.274c-.242-.158-.442-.289-.642-.419-1.595-1.035-3.267-1.29-5.005-.408-2.376 1.206-3.295 4.467-1.944 6.797 1.373 2.368 4.315 3.084 6.665 1.616.295-.185.573-.396.918-.636z"/><path d="m62.164 26.26c-.661 0-1.245 0-1.895 0-.017-.312-.033-.61-.051-.943-.092.047-.153.064-.194.102-1.749 1.608-5.199 1.117-6.031-2.195-.368-1.463-.19-2.875.739-4.129 1.233-1.665 3.641-2.002 5.165-.647.077.068.162.127.308.24.021-.361.039-.675.059-1.028h1.899c.001 2.863.001 5.706.001 8.6zm-2.064-4.285c.001-1.342-1.031-2.461-2.269-2.46-1.194.001-2.245 1.124-2.261 2.417-.016 1.323 1.038 2.454 2.281 2.448 1.223-.007 2.248-1.102 2.249-2.405z"/><path d="m90.131 26.279c-2.568-.005-4.431-1.918-4.421-4.538.009-2.424 2.017-4.36 4.51-4.347 2.501.013 4.47 1.98 4.477 4.471.007 2.509-1.97 4.42-4.566 4.414zm.089-1.999c1.361-.011 2.407-1.082 2.399-2.457-.008-1.326-1.164-2.502-2.452-2.422-1.463.092-2.384 1.105-2.427 2.477-.04 1.303 1.148 2.412 2.48 2.402z"/><path d="m95.71 17.656h2.426c.581.752 1.205 1.56 1.892 2.449.659-.84 1.286-1.639 1.929-2.457h2.497c-1.069 1.336-2.092 2.614-3.165 3.954 1.19 1.517 2.382 3.035 3.642 4.64-.879 0-1.622 0-2.419 0-.791-1-1.607-2.032-2.48-3.136-.882 1.084-1.722 2.117-2.553 3.139-.814 0-1.6 0-2.49 0 1.3-1.586 2.542-3.102 3.802-4.64-1.027-1.315-2.026-2.595-3.081-3.949z"/><path d="m68.796 20.169c-.662 0-1.243 0-1.854 0-.061-.109-.121-.241-.203-.359-.18-.257-.457-.365-.708-.199-.18.119-.347.373-.371.584-.033.284.161.51.481.56.248.038.5.056.745.109 1.339.294 2.242 1.571 2.092 2.947-.156 1.434-1.282 2.459-2.709 2.467-1.398.008-2.58-1.003-2.751-2.358-.015-.119-.002-.241-.002-.385h1.754c.052.124.097.263.165.388.231.425.626.605 1.048.489.382-.105.692-.508.681-.886-.013-.449-.342-.809-.824-.896-.226-.041-.457-.062-.68-.115-1.316-.314-1.999-1.191-1.935-2.473.064-1.263 1.014-2.295 2.23-2.42 1.235-.127 2.356.607 2.707 1.787.067.231.085.476.134.76z"/><path d="m73.465 15.127v2.94c.372.024.714.046 1.084.07v1.707c-.348.016-.691.032-1.085.051v6.34c-.648 0-1.241 0-1.894 0 0-2.098 0-4.183 0-6.327-.417-.024-.781-.045-1.171-.068 0-.579 0-1.133 0-1.706.384-.022.732-.042 1.14-.065 0-.994 0-1.948 0-2.941.658-.001 1.252-.001 1.926-.001z"/></g><path d="m20.887 19.895c0 1.259.009 2.519-.003 3.778-.008.769-.479 1.262-1.177 1.273-.677.011-1.193-.47-1.217-1.177-.022-.65.001-1.301-.008-1.952-.007-.514-.254-.796-.677-.803-.422-.008-.679.275-.689.79-.011.567.006 1.134-.005 1.7-.014.788-.509 1.302-1.229 1.294-.699-.008-1.175-.5-1.19-1.264-.015-.734-.002-1.469-.003-2.204-.001-.736-.207-1.055-.682-1.061-.497-.006-.725.335-.726 1.099-.002 1.637-.011 3.275.005 4.912.005.52-.186.9-.641 1.13-.8.404-1.732-.154-1.745-1.059-.018-1.238.004-2.477-.013-3.715-.003-.216-.045-.497-.183-.63-.155-.149-.472-.267-.657-.208-.213.069-.384.33-.522.542-.069.106-.014.287-.032.433-.078.628-.581 1.086-1.188 1.087-.596.002-1.164-.473-1.18-1.091-.034-1.258-.034-2.519-.001-3.778.016-.61.583-1.084 1.184-1.091.593-.007 1.113.466 1.187 1.088.015.124-.002.253.015.377.057.424.313.645.718.633.394-.012.651-.25.661-.685.019-.797-.005-1.595.01-2.393.016-.874.8-1.413 1.613-1.129.48.168.744.516.766 1.037.013.314-.011.63.007.944.029.497.303.76.746.744.422-.015.647-.253.654-.749.012-.902-.016-1.806.009-2.708.028-1.025 1.019-1.564 1.874-1.038.421.259.55.659.547 1.13-.006 1.112.001 2.225-.004 3.337-.002.374.106.664.51.753.492.109.847-.175.857-.719.016-.839-.012-1.68.01-2.519.02-.771.566-1.244 1.32-1.187.645.049 1.067.512 1.075 1.235.013 1.283.004 2.564.004 3.844z" fill="#fefefe"/><path d="m24.691 21.23c0 .713.008 1.426-.002 2.139-.011.732-.456 1.212-1.139 1.252-.659.038-1.237-.424-1.255-1.126-.04-1.509-.043-3.019-.008-4.528.017-.722.548-1.136 1.259-1.108.682.027 1.133.505 1.142 1.232.01.712.003 1.426.003 2.139z" fill="#fefefe"/><path d="m26.092 21.825c0-.188-.009-.377.002-.565.036-.637.494-1.1 1.116-1.138.644-.039 1.201.401 1.262 1.051.041.435.043.881.001 1.316-.064.658-.597 1.067-1.27 1.03-.635-.035-1.078-.483-1.109-1.129-.01-.188-.002-.377-.002-.565z" fill="#fefefe"/></g></svg>