<svg viewBox="0 0 100 61" xmlns="http://www.w3.org/2000/svg" fill-rule="evenodd" clip-rule="evenodd" stroke-linejoin="round" stroke-miterlimit="1.414"><path d="M45.018 60.987c-10.432-.001-20.882-.229-31.315-.439-4.511-.09-12.128-.16-13.553-2.633-.649-1.128.884-2.329 3.091-2.976 3.897-1.141 11.626-.152 11.567-4.024a.656.656 0 0 0-.102-.384c-.107-.153-.314-.271-.516-.384-2.553-1.429-6.619-2.519-2.714-4.772 1.869-1.078 4.721-1.776 7.712-2.128a71.28 71.28 0 0 1 1.985-.204c5.01-.442 10.217-.394 15.345-.461 6.221-.082 12.445-.124 18.669-.125h.257c7.704 0 15.45.069 23.026.686 1.956.159 11.878.369 13.601.805 1.723.436 3.182 1.142 3.564 1.996.131.293.131.6-.067.886-.49.709-2.098 1.187-2.593 1.896-.71 1.017.966 1.693 3.024 1.8 1.718.09 4.158.664 3.188 1.623-.36.356-1.238.555-2.094.663-.856.108-1.764.154-2.555.334-1.023.234-1.759.691-1.916 1.191-.428 1.369 2.524 1.737 4.784 2.158 1.291.241 2.601.699 2.594 1.312-.009.88-2.492 1.269-4.477 1.418-4.336.324-16.612.663-20.967.937-9.816.62-19.669.825-29.538.825z" fill="#e7e7e7" fill-rule="nonzero"/><path d="M22.703 33.458l-6.368-2.342 1.313 11.155-.761 9.624-.02.064.015.001-.002.021 1.256.12.001-.001.046.005 2.805-8.574 1.484-9.133.231-.94z" fill="#404f5a" fill-rule="nonzero"/><path d="M18.071 52.54l-1.303-.033-.333 1.099.033.01-.008.001 2.154 1.276 1.024.114.13-1.171-.277-.202-1.42-1.094z" fill="#59595b" fill-rule="nonzero"/><path d="M27.04 33.066l-1.911 19.099-1.26.058-1.267-10.313-2.195-10.271 6.633 1.427z" fill="#404f5a" fill-rule="nonzero"/><path d="M25.157 52.535l1.794.682-.035.803-3.017.008.002-1.393 1.256-.1z" fill="#59595b" fill-rule="nonzero"/><path d="M22.471 13.318l-1.768-1.221-3.786 1.757-3.515 7.041.516 2.181 2.639-.66 5.914-9.098zM23.137 12.164l3.043 1.15 3.983 7.581-.861 2.181-2.928-.344-3.237-10.568zM30.301 33.398v-.001.001z" fill="#798287" fill-rule="nonzero"/><path d="M30.314 33.418c-.063-.141-.126-.281-.177-.422a9.192 9.192 0 0 1-.282-.965 23.71 23.71 0 0 1-.432-2.439c-.225-1.693-.353-3.398-.443-5.102a79.835 79.835 0 0 1-.065-1.466c-.007-.176.016-.379-.018-.552-.707-3.657-1.361-5.683-2.988-9.023l-4.988-1.394s-1.692 1.265-3.733 6.938c-.647 1.798-1.186 4.162-1.285 6.49-.44 2.686-.78 5.388-1.209 8.076-.083.521-.353 1.656-.126 2.163.183.408.387.463.875.437.508-.027 1.355-.457 1.826-.626.909-.328 1.786-.739 2.68-1.107.584-.24 1.188-.523 1.804-.671.661-.158 1.356-.049 2.019.042.935.127 2.196.692 3.116.904.562.13 1.147.168 1.721.194.442.021.885.045 1.328.026.311-.013.628-.116.648-.472.022-.365-.124-.7-.271-1.031z" fill="#798287" fill-rule="nonzero"/><path d="M26.856 33.867s-.716-9.118-1.285-11.135c-.632-2.239-.574-10.907-3.387-10.677 0 0-1.607-.115-2.239 2.468-.631 2.583-2.291 16.575-2.291 16.575l-.644 3.918-.16.676 5.07-1.623 4.968.632-.032-.834z" fill="#fbf3db" fill-rule="nonzero"/><path d="M20.016 6.515s-2.451-.315-.423-2.231c2.027-1.916 3.661 1.053 3.535 1.439-.126.385-1.283.998-1.416 1.091-.133.093-1.696-.299-1.696-.299zM24.563 11.31l.024-.059c.135-.331.265-.658.35-.979.272-1.032.676-2.771-.907-3.05-.61.057-.745.348-1.136.82l-.054-.039c.558.434 1.043 1.359.852 2.088-.093.35-.345.586-.429.965-.09.405-.451.689-.713.986-.13.148-.257.311-.315.502-.043.14-.075.51.081.597.029.016.063.02.096.02.213.004.434-.088.629-.163.22-.085.42-.214.597-.367a3.48 3.48 0 0 0 .758-.976c.061-.112.119-.227.167-.345z" fill="#483d3f" fill-rule="nonzero"/><path d="M22.368 13.008c.681-.137 1.284-.682 1.632-1.314.349-.631.475-1.34.516-2.025.136-2.281-2.664-2.221-3.882-.507-1.062 1.493-.247 4.245 1.734 3.846z" fill="#eacdb0" fill-rule="nonzero"/><path d="M24.006 7.235l.024-.013c-.796-1.772-3.19-2.077-5.39.158-.896.91-.834 2.204-.226 3.254.28.483 1.642 2.123 2.192 1.248.041-.067.078-.147.11-.244.134-.413.259-.828.392-1.241.094-.295.189-.588.286-.882.194-.298.417-.542.662-.692.347-.212.699-.199 1.083-.135.262.044.254.145.502.046.189-.077.394-.371.468-.552.124-.304.06-.661-.103-.947z" fill="#483d3f" fill-rule="nonzero"/><path d="M22.483 14.521h1.906c.107 0 .182.105.146.206l-1.114 3.167a.156.156 0 0 1-.146.104h-1.379a.154.154 0 0 1-.152-.183l.587-3.168a.154.154 0 0 1 .152-.126z" fill="#59595b" fill-rule="nonzero"/><path d="M21.224 17.794l.197-.646.383-.437.093.159-.002.214.789-.833.47.257-.44 1.214-.622.575-.868-.503z" fill="#eacdb0" fill-rule="nonzero"/><path d="M13.402 20.895l8.011-4.087.656 1.561-5.396 4.018-2.755.689-.516-2.181z" fill="#8c9498" fill-rule="nonzero"/><path d="M24.595 18.336l.01-1.335-.884-.94-.431.493.169 1.23.734.929.402-.377z" fill="#eacdb0" fill-rule="nonzero"/><path d="M30.163 20.895l-5.568-3.387-.402 1.378 2.181 3.846 2.928.344.861-2.181z" fill="#8c9498" fill-rule="nonzero"/><path d="M24.921 7.329zM23.959 6.431a1.89 1.89 0 0 0-.162-.131c-.39-.28-.867-.429-1.348-.361-.971.138-1.546.751-1.9 1.794-.085.254-.119.491-.245.73-.112.211-.347.262-.529.412a1.656 1.656 0 0 0-.498.719c-.178.519.015 1.265.426 1.629.591.525 1.344-.057 1.604-.655a2.12 2.12 0 0 0 .163-.605 1.422 1.422 0 0 0-.078-.703c-.128-.311-.431-.353-.54-.617-.089-.214-.035-.497.047-.698.2-.491.42-1.051.888-1.346.367-.232.818-.289 1.242-.229.058.011.718.15.992.863.287.057.631.23.631.23-.164-.383-.382-.753-.693-1.032z" fill="#f1cd41" fill-rule="nonzero"/><path d="M44.239 50.745l.145 1.088-2.114 1.312-.802-.729 1.385-1.75 1.281-.737.105.816z" fill="#2e4661" fill-rule="nonzero"/><path d="M44.218 50.325l-1.177-10.401 1.416-11.645-.318-2.477-6.326-.24-.063 1.849.897 12.529 3.995 10.917 1.576-.532z" fill="#6e6358" fill-rule="nonzero"/><path d="M32.647 23.62l-.003 13.604 2.113 13.512 1.521-.015.836-12.496 1.956-12.507-6.423-2.098z" fill="#6e6358" fill-rule="nonzero"/><path d="M36.438 51.978l-2.989 1.021-.219-1.021 1.597-1.242 1.466-.014.145 1.256z" fill="#2e4661" fill-rule="nonzero"/><path d="M38.266.857l.001-.001-.001.001z" fill="#f1cd41" fill-rule="nonzero"/><path d="M42.684 8.577l1.978 1.299 2.844 10.517-2.134 1.801-1.526-2.558-1.162-11.059zM37.574 8.829l-3.079.58-4.476 9.004 1.637 2.529 2.604-1.831 3.314-10.282z" fill="#ac7060" fill-rule="nonzero"/><path d="M45.434 23.645l-.001-.004a47.66 47.66 0 0 0-.247-3.72 92.178 92.178 0 0 0-.46-3.633c-.144-.997-.653-3.488-1.029-4.416-.935-2.308-.637-2.517-4.83-3.247-1.837-.32-2.283.963-3.801 2.427-.15.145-.15 1.014-.186 1.244-.065.405-.133.809-.211 1.212-.379 1.945-1.15 3.944-2.024 5.75-.917 1.897-2.542 3.483-2.791 5.693-.076.675.052 1.238.57 1.476 1.02.51 1.312-.802 3.645 0 1.751.602 3.326 1.586 5.145 2.024 1.088.262 2.22.354 3.328.166.858-.145 2.221-.364 2.776-1.116.666-.901.174-2.817.116-3.856z" fill="#ac7060" fill-rule="nonzero"/><path d="M38.925 8.37l1.447-.316a7.363 7.363 0 0 0-.217-1.16c.39-.19.835-.46.856-.893a1.24 1.24 0 0 0-.072-.402l-.481-1.625c-.055-.187-.114-.38-.237-.531-.216-.267-.585-.351-.927-.37-.874-.048-1.785.247-2.383.886-.159.17-.298.368-.35.595-.081.349.052.709.183 1.043l.363.926c.139.355.327.755.695.851.196.051.415.004.597.092.322.155.333.604.526.904z" fill="#eacdb0" fill-rule="nonzero"/><path d="M33.337 3.436a3.595 3.595 0 0 0-.322-.364c-.251-.245-.549-.445-.761-.725-.212-.28-.322-.68-.142-.981.115-.195.327-.31.535-.399a4.198 4.198 0 0 1 2.192-.298c.705.094 1.351.31 2.009-.027.619-.318 1.098-.274 1.802-.112.763.175 1.752.121 2.458.412.295.122.544.337.747.582.704.851.856 2.12.373 3.113a4.218 4.218 0 0 1-.39.631c-.302.415-.661.926-1.119 1.12-.061-.423.169-1.808-.199-2.118-.582-.492-1.73-.162-2.357.049-.683.231-1.249.8-1.931.988-.491.135-1.158-.036-1.613-.244-.562-.258-.916-1.159-1.282-1.627z" fill="#3a3029" fill-rule="nonzero"/><path d="M41.639 6.479l1.689 3.393-8.593 2.477-.256-2.266 7.16-3.604z" fill="#2a4056" fill-rule="nonzero"/><path d="M37.192 7.059l1.992.655 3.115 2.454 1.573 13.398-5.685-.814.108-11.257-3.004-1.821-.812-.959 2.713-1.656z" fill="#2e4661" fill-rule="nonzero"/><path d="M30.019 18.413l4.707-3.543.232 1.975-3.302 4.097-1.637-2.529z" fill="#b4786b" fill-rule="nonzero"/><path d="M34.958 14.87l.987-.987.989.232.348.93h-.407l-.348-.407-.175 1.046-1.481.464.087-1.278z" fill="#eacdb0" fill-rule="nonzero"/><path d="M33.722 18.918l3.525-.285a.14.14 0 0 0 .059-.189l-2.752-5.206a.141.141 0 0 0-.19-.058l-3.525.285a.14.14 0 0 0-.059.19l2.752 5.205a.14.14 0 0 0 .19.058z" fill="#334c60" fill-rule="nonzero"/><path d="M47.506 20.393l-2.412-1.918-7.755-1.106.232 2.091s7.818 2.735 7.801 2.734l2.134-1.801z" fill="#b4786b" fill-rule="nonzero"/><path d="M37.397 17.718l-.348-.872-.407-.349-.116.175.116.639-.697-.64-.987-.116-.233.29.639 1.279 2.149.988-.116-1.394z" fill="#eacdb0" fill-rule="nonzero"/><path d="M42.043 4.529a1.68 1.68 0 0 0-.301-.832c-.139-.193-.356-.304-.411-.54-.062-.266-.034-.507-.053-.777-.076-1.112-.481-1.86-1.396-2.246-.453-.191-.958-.168-1.412.006a1.956 1.956 0 0 0-.491.272c.249.018.495.072.627.105.301-.127.561-.113.597-.111.431.051.857.223 1.157.544.382.411.453 1.015.522 1.547.028.217.008.509-.134.695-.175.231-.483.194-.688.464-.146.192-.223.43-.258.668a2.18 2.18 0 0 0 .003.635c.101.653.688 1.416 1.402 1.055.496-.25.877-.931.836-1.485z" fill="#a7b0b4" fill-rule="nonzero"/><path d="M69.374 30.458l-5.963-.714 1.95 10.592-.265 10.609-.017.07.016.001-.001.023 1.261.068v-.002l.047.003 2.914-11.668.365-7.947-.307-1.035z" fill="#404f5a" fill-rule="nonzero"/><path d="M66.312 51.505l-1.303.027-.276 1.191.034.009-.009.001 2.217 1.26 1.029.073.07-1.257-.287-.203-1.475-1.101z" fill="#59595b" fill-rule="nonzero"/><path d="M74.493 30.925l-.927 20.497-1.257.122-1.754-12.104-2.76-9.721 6.698 1.206z" fill="#404f5a" fill-rule="nonzero"/><path d="M73.686 51.816l1.827.643.006.859-3.013.153-.07-1.488 1.25-.167z" fill="#59595b" fill-rule="nonzero"/><path d="M70.873 11.382s-3.316.391-4.214 1.938c-.898 1.548-4.036 7.648-4.674 10.611-.64 2.962.336 9.226-.536 10.214-.871.988 1.912 1.505 4.067.407 2.852-1.455 10.024 1.621 10.361-3.86.164-2.661-2.099-6.471-1.75-10.77.348-4.299-.117-8.192-3.254-8.54z" fill="#7da0ac" fill-rule="nonzero"/><path d="M68.84 14.228c1.278.814 3.311.407 3.37-.464.058-.872-.029-1.507-.029-1.507l.301-.241c-.435-.342-.966-.563-1.609-.634 0 0-1.335.157-2.54.668l.054.069s-.826 1.296.453 2.109z" fill="#a2b0b2" fill-rule="nonzero"/><path d="M64.381 14.228l-1.699 1.162 1.684 10.284 1.859 1.045h1.279l.697-2.324-3.82-10.167zM73.665 13.749l1.45 1.525-.35 10.516-1.161.639-.755-5.461.816-7.219z" fill="#86a9af" fill-rule="nonzero"/><path d="M71.529 8.328c.661.357 1.332 1.239 1.26 2.036-.034.383-.258.674-.278 1.086-.045.812-1.307 1.619-.581 2.43.373.416.977.517 1.531.593a.414.414 0 0 0 .201-.006c.104-.04.159-.16.16-.272.002-.112-.038-.219-.068-.327-.314-1.125.267-2.403.371-3.534.103-1.129-.121-2.359-1.022-3.13-.628.168-.836-.331-1.162.232l-.412.892z" fill="#a19465" fill-rule="nonzero"/><path d="M70.938 13.14c.77-.069 1.442-.611 1.824-1.284.381-.672.509-1.46.54-2.233.105-2.572-3.072-2.859-4.417-1.069-1.172 1.56-.187 4.787 2.053 4.586z" fill="#eacdb0" fill-rule="nonzero"/><path d="M72.818 6.969c-.278-.544-.681-.875-1.258-1.023-2.024-.521-3.834.329-4.871 2.183-.485.864-.542 1.936-1.01 2.776a1.906 1.906 0 0 1-.16.255s-1.351 2.024-1.264 3.188c.087 1.165-1.073 1.468-.84 2.441.232.973 1.215 1.172.915 1.571-.301.4.743.484 1.219.031.477-.453.803-1.898.778-3.235.026-1.046.471-1.711 1.018-1.911.304-.089.596-.211.841-.46.514-.522.698-1.532.954-2.196.272-.699.589-1.454 1.246-1.815.43-.236.853-.202 1.31-.103.314.068.299.189.601.083.233-.081.495-.424.594-.638.168-.359.109-.794-.073-1.147z" fill="#a19465" fill-rule="nonzero"/><path d="M70.188 15.969h1.929c.109 0 .184.107.148.208l-1.128 3.206a.156.156 0 0 1-.148.105h-1.394a.157.157 0 0 1-.155-.185l.594-3.206a.156.156 0 0 1 .154-.128z" fill="#59595b" fill-rule="nonzero"/><path d="M68.446 19.358l-.071-1.76 1.511-.988.871.639-.987 1.395-.175 1.046-.325.313-.824-.645z" fill="#eacdb0" fill-rule="nonzero"/><path d="M72.184 19.857c.053-.025-.383-.901-.383-.901l-1.222-.958-.505.447.315.962s.8 1.015.882.964c.081-.051.913-.514.913-.514z" fill="#eacdb0" fill-rule="nonzero"/><path d="M71.57 25.615l-.697-5.17 1.328-1.082 2.623 4.103-.059 2.324-1.393.987-1.802-1.162zM64.831 25.034l3.486-6.448 1.336 1.045-2.149 7.088-2.673-1.685z" fill="#86a9af" fill-rule="nonzero"/><path d="M73.613 7.267v-.001.001z" fill="#f1cd41" fill-rule="nonzero"/><path d="M73.302 7.393c-.183-.421-.425-.827-.767-1.133a2.149 2.149 0 0 0-.181-.147c-.438-.314-.972-.481-1.511-.405-1.089.155-1.734.842-2.13 2.011-.096.285-.133.55-.275.818-.126.237-.389.294-.592.462-.25.207-.453.5-.559.806-.199.581.017 1.418.477 1.826.663.588 1.507-.064 1.799-.734a2.39 2.39 0 0 0 .183-.679c.03-.265.014-.541-.088-.788-.144-.348-.483-.395-.606-.691-.099-.24-.038-.558.053-.783.224-.55.471-1.177.996-1.508.411-.26.917-.324 1.392-.257a1.56 1.56 0 0 1 1.101.942h.001c.324.108.702.258.707.26zM74.563 10.439a1.85 1.85 0 0 0-.365-.91 1.3 1.3 0 0 0-.067-.078c.01.228.026.884-.079 1.392-.09.438-.198.942-.254 1.205.485-.332.826-1.039.765-1.609z" fill="#2e4661" fill-rule="nonzero"/><path d="M59.402 29.161l.372 8.887-.979 13.179-1.466.103-1.781-11.968-2.464-10.129 6.318-.072z" fill="#59595b" fill-rule="nonzero"/><path d="M57.325 51.374l.056.793 2.385.978.656-.875-1.512-1.008-1.585.112z" fill="#8c9498" fill-rule="nonzero"/><path d="M48.071 28.024l.169 5.865 2.405 17.278 1.469-.049 1.238-11.569.887-12.647-6.168 1.122z" fill="#59595b" fill-rule="nonzero"/><path d="M52.126 51.738l-2.363 1.212-.821-.768 1.569-1.185 1.588-.054.027.795z" fill="#8c9498" fill-rule="nonzero"/><path d="M52.278 12.745l-3.884 1.544-1.984 10.482 3.171 1.827 1.477-10.367 1.22-3.486zM55.531 12.571l3.254 1.278 1.626 3.254.959 7.246-1.458 1.677-4.381-13.455z" fill="#f6e299" fill-rule="nonzero"/><path d="M60.647 23.684c-.469-2.012-.043-.134-.519-2.144-.525-2.233-1.055-4.474-1.922-6.603a21.912 21.912 0 0 0-.733-1.616l-2.523-.982-2.672.406-2.062.815c-.304 2.349-.664 6.795-1.727 8.671-.659 1.162-1.236 2.381-1.558 3.682-.107.433-1.341 6.337-.465 6.41.697.058 3.143-1.252 5.813-1.004 3.122.687 8.503 1.918 9.255.874.216-.299-.744-7.896-.887-8.509z" fill="#f7e5ac" fill-rule="nonzero"/><path d="M53.817 18.584c1.092-1.528 1.974-4.619 2.259-5.807l-1.126-.438-2.672.406-.385.159s.356 3.647 1.924 5.68z" fill="#798287" fill-rule="nonzero"/><path d="M53.132 12.685c.011.123.02.246.026.369.004.095.008.19.006.285-.001.082-.051.17-.019.251.101.26.561.283.786.262a1.6 1.6 0 0 0 .805-.292c.292-.219.073-.583.073-1.094 0-.51-1.677.219-1.677.219z" fill="#b99a6f" fill-rule="nonzero"/><path d="M55.724 8.965c-.538-2.454-3.558-1.932-4.364.095-.277.697-.173 1.502.115 2.178.149.347.351.674.604.955.123.136.257.261.403.371.235.176.502.342.792.393.163.028.329.039.494.032.059-.002.647-.097.638-.114.694-.26 1.18-.938 1.368-1.665.188-.731.112-1.507-.05-2.245z" fill="#b99a6f" fill-rule="nonzero"/><path d="M54.491 5.398c-.148-.301-.318-.6-.563-.808-.793-.675-1.042.519-1.722.235-.165-.069-.266-.251-.403-.373-.26-.231-.627-.231-.947-.149-.32.081-.626.232-.953.264-.291.029-.59-.036-.875.035-.427.106-.474.529-.649.872-.193.381-.467.889-.782 1.156-.227.192-.512.274-.771.407-.26.133-.514.353-.563.668-.047.298.104.6.082.902-.041.45-.155.663-.098 1.14.029.246.064.507.209.697.192.25.516.304.809.307.292.002.599-.026.863.12.573.317.352.921.424 1.474.11.841.939 1.469 1.683 1.31.631-.135 1.092-.771 1.183-1.463.045-.346-.034-.691.015-1.037.047-.334.31-.761.059-1.078-.061-.077-.147-.127-.2-.212a.508.508 0 0 1-.062-.235.993.993 0 0 1 .209-.668.264.264 0 0 0 .081-.046c.451-.366.335-.362 1.09-.391.755-.029-.023-.581.545-.951.567-.371.589.209 1.045-.041.455-.25.345-1.542.344-1.544.07-.027.116-.033.115-.002.008-.208-.078-.405-.168-.589z" fill="#483d3f" fill-rule="nonzero"/><path d="M60.493 7.395c-.47-.182-.979-.031-1.452.121.077-.503-.275-.978-.67-1.246-.394-.269-.852-.414-1.224-.719-.449-.367-.816-.978-1.367-.993-.726-.019-1.367 1.007-1.984 1.353.007.128.095.408.181.493a.504.504 0 0 0 .086.073c.071.375.221 1.012.427 1.045.292.047 1.074.531 1.12 1.057.046.526.183 1.332-.107 1.984-.181.326-.349.601-.275 1.142.096.693.462 1.349.996 1.73.915.295 1.97-.16 2.454-1.059.107-.198.199-.427.382-.536.147-.089.329-.083.477-.168.619-.353.005-1.547.415-2.172.259-.395.835-.398 1.083-.802.277-.451-.073-1.121-.542-1.303z" fill="#483d3f" fill-rule="nonzero"/><path d="M48.838 25.28l-1.312-6.515a.34.34 0 0 1 .327-.407l10.323-.216a.34.34 0 0 1 .347.363L58 25.448l-9.162-.168z" fill="#798287" fill-rule="nonzero"/><path d="M48.828 25.265v.348h9.231v-.188l-9.231-.16z" fill="#5f696c" fill-rule="nonzero"/><path d="M58.059 25.586l1.124-2.167h-1.03l-.174 2.194.08-.027z" fill="#798287" fill-rule="nonzero"/><path d="M54.456 25.763l-.204-1.099-1.08-.705-.551.241.278 1.21.852.669.705-.316z" fill="#b99a6f" fill-rule="nonzero"/><path d="M54.444 25.589l-.912.48 7.401-.189.437-1.531-.802-1.749-1.385.801-1.166 2.188h-3.573z" fill="#f6e299" fill-rule="nonzero"/><path d="M48.434 23.145a76.846 76.846 0 0 1-.901-.841l-.022-.802 1.358-.986.528.642s-1.036 1.554-1.042 1.594c-.006.04.079.393.079.393z" fill="#b99a6f" fill-rule="nonzero"/><path d="M47.87 22.622l-1.176.649-.269 1.516 1.522.847.546-2.068-.026-.456-.597-.488z" fill="#f6e299" fill-rule="nonzero"/><path d="M78.866 25.297l-.003 13.604 2.113 13.512 2.118.003.239-12.514 1.956-12.507-6.423-2.098z" fill="#2e4661" fill-rule="nonzero"/><path d="M82.948 53.658l-2.989 1.021-.219-1.021 1.597-1.242 1.466-.015.145 1.257z" fill="#39281c" fill-rule="nonzero"/><path d="M82.292 26.974l3.645 12.903 1.386 12.393 1.68-.172.579-12.877.038-11.911-7.328-.336z" fill="#2e4661" fill-rule="nonzero"/><path d="M87.468 52.27l-.218 1.385 3.499.146.146-.948-2.042-.729-1.385.146z" fill="#39281c" fill-rule="nonzero"/><path d="M83.621 12.679l-4.009 1.162-4.692 7.687 1.568 1.859 4.809-6.99 2.324-3.718zM85.538 12.795l3.834 1.627 4.996 6.565-.755 2.208-5.693-4.241-2.382-6.159z" fill="#828c87" fill-rule="nonzero"/><path d="M91.041 32.428l-.011-.047c-.151-4.883-1.9-12.548-2.181-13.66-.241-.956-.558-4.898-3.185-5.88l.019-.038c.261-.573-.203-.705-.203-.705l-2.499.116s-.174.291-.116.465c.058.174.116.407.116.407-.906.603-2.842 2.054-3.079 3.66.349 2.208-.161 7.312-2.285 11.568a43.864 43.864 0 0 1-.88 1.673s-.4.549-.662 1.192c-.204.387-.279.604-.21.747-.057.457.054.876.523 1.098 1.385.656 2.916 2.625 7.071 1.677 4.155-.948 8.311 1.724 7.582-2.273z" fill="#828c87" fill-rule="nonzero"/><path d="M86.81 7.867c-.156-.209-.447-.254-.707-.281l-.22-.024c-1.159-.12-2.349-.211-3.456.141-.242.078-.498.194-.608.424a.981.981 0 0 0-.074.285c-.166 1.094-.348 2.71.461 3.608.155.172.351.3.557.398.275.132.573.209.874.233v.001a2.81 2.81 0 0 0 1.546-.356c.109-.064.213-.136.31-.217.477-.399.759-.953.891-1.553.143-.653.378-1.285.502-1.947.045-.242.071-.515-.076-.712z" fill="#b99a6f" fill-rule="nonzero"/><path d="M94.368 20.929l-2.033-.523-3.532 6.075.872 1.452 3.938-4.797.755-2.207z" fill="#909994" fill-rule="nonzero"/><path d="M82.187 8.597c.519-.423 1.34-.673 1.87-.694 1.602-.066 2.585 1.058 2.352 2.51.375-.606 1.332-1.423 1.3-2.145-.026-.59-.198-1.38-.584-1.849-.361-.439-1.176-.609-1.674-.831l-1.41-.625a.867.867 0 0 0-.304-.094c-.127-.008-.249.038-.367.084-1.01.387-2.95.658-3.96 1.045-.194.075-.413.176-.465.377-.031.123.01.251.051.371.179.526.469 1.053.587 1.594.1.311 1.462 2.151 2.004 1.899 0-.465.063-.741.159-1.045.071-.225.232-.425.441-.597z" fill="#514943" fill-rule="nonzero"/><path d="M82.865 12.447z" fill="#f1cd41" fill-rule="nonzero"/><path d="M82.927 12.88l-.062-.201v-.232c-.001.001-.016.001-.184-.07-.248.134-.436.57-.494.717-.208.016-.429.132-.572.237a1.38 1.38 0 0 0-.447.577c-.096.236-.094.508-.04.754.1.444.363.755.847.754.289 0 .485-.22.587-.47.1-.246.142-.51.204-.767.043-.182.189-.528.018-.689a.668.668 0 0 0-.123-.139.376.376 0 0 0-.025-.031c.122-.292.291-.44.291-.44zM86.906 14.08c-.071-.174-.187-.402-.347-.549l.083-.62c.116-.871-.914-1.057-.914-1.057l-.248.244c.232.058.29.407.29.407s.134-.015.232.116c.12.16.005.568-.078.808-.223.041-.471.1-.622.223-.185.15-.314.36-.402.581a2.164 2.164 0 0 0-.144.609c-.054.649.332 1.517 1.101 1.337.532-.126 1.056-.691 1.145-1.231a1.66 1.66 0 0 0-.096-.868z" fill="#2e4661" fill-rule="nonzero"/><path d="M83.559 14.846l-1.927-.102a.157.157 0 0 0-.159.201l.957 3.261a.156.156 0 0 0 .142.112l1.394.074a.157.157 0 0 0 .163-.177l-.424-3.233a.156.156 0 0 0-.146-.136z" fill="#59595b" fill-rule="nonzero"/><path d="M82.179 18.344l-.195-1.511 1.09-.839.597.582-.518.969.253.797-.747.625-.48-.623z" fill="#b99a6f" fill-rule="nonzero"/><path d="M74.93 21.506l.801-1.312 6.303-2.182 1.008.976-5.051 3.757-1.531.656-1.53-1.895z" fill="#909994" fill-rule="nonzero"/></svg>