<?xml version="1.0" encoding="UTF-8" standalone="no"?><!DOCTYPE svg PUBLIC "-//W3C//DTD SVG 1.1//EN" "http://www.w3.org/Graphics/SVG/1.1/DTD/svg11.dtd"><svg width="100%" height="100%" viewBox="0 0 101 47" version="1.1" xmlns="http://www.w3.org/2000/svg" xmlns:xlink="http://www.w3.org/1999/xlink" xml:space="preserve" xmlns:serif="http://www.serif.com/" style="fill-rule:evenodd;clip-rule:evenodd;stroke-linejoin:round;stroke-miterlimit:1.41421;"><path d="M85.711,46.182c-2.56,0 -5.105,-0.086 -7.488,-0.104c-6.536,-0.048 -44.791,-0.096 -51.327,-0.144c-0.331,-0.002 -0.663,-0.003 -0.996,-0.003c-1.508,0 -3.037,0.023 -4.577,0.045c-1.54,0.022 -3.091,0.045 -4.644,0.045c-4.95,0 -9.91,-0.228 -14.555,-1.412c-1.29,-0.329 -2.125,-1.044 -2.124,-1.883c0,-0.472 0.266,-0.984 0.864,-1.488c1.469,-1.236 4.091,-0.768 5.192,-2.389c-1.274,-0.377 -1.767,-0.857 -1.767,-1.369c0,-1.447 3.926,-3.161 5.322,-3.629c5.356,-1.796 11.608,-1.744 17.234,-1.82c6.091,-0.081 12.166,-0.633 18.259,-0.633l0.346,0.001c3.217,0.011 38.078,0.498 41.27,0.629c0.107,0.004 0.218,0.006 0.331,0.006c0.335,0 0.697,-0.016 1.07,-0.032c0.374,-0.017 0.76,-0.033 1.144,-0.033c1.395,0 2.766,0.215 3.438,1.424c0.348,0.625 0.396,1.46 1.033,1.836c0.246,0.146 0.544,0.193 0.834,0.218c0.247,0.02 0.494,0.027 0.742,0.027c0.216,0 0.433,-0.005 0.649,-0.01c0.216,-0.005 0.432,-0.01 0.647,-0.01c0.481,0 0.958,0.025 1.425,0.13c0.999,0.225 1.968,1.032 1.967,1.941l-0.001,0.055c-0.005,0.1 -0.021,0.199 -0.048,0.296c-0.562,1.981 -3.903,1.139 -5.444,1.57c-0.532,0.149 -1.162,0.463 -1.162,0.963c0,0.023 0.001,0.045 0.004,0.069c0.061,0.558 0.812,0.743 1.398,0.866c0.704,0.148 1.383,0.4 2.003,0.744c0.643,0.357 1.277,0.939 1.276,1.611c0,0.065 -0.006,0.131 -0.019,0.197c-0.148,0.79 -1.099,1.178 -1.932,1.372c-3.225,0.748 -6.809,0.914 -10.364,0.914Z" style="fill:#e7e7e7;fill-rule:nonzero;"/><path d="M20.591,26.609l0,-14.159c0,-1.904 1.566,-3.47 3.47,-3.47c0,0 0.001,0 0.001,0l21.765,0c1.904,0 3.47,1.566 3.47,3.47l0,14.206l-28.706,-0.047Zm28.706,0.07l0,-14.229c0,-1.904 1.566,-3.47 3.47,-3.47l21.765,0c0,0 0.001,0 0.001,0c1.904,0 3.47,1.566 3.47,3.47c0,0 0,14.206 0,14.206l-28.706,0.023Z" style="fill:#c7d5d6;fill-rule:nonzero;"/><path d="M76.713,9.761l-27.428,16.918l28.706,-0.023l0,-14.206c0.001,-1.042 -0.469,-2.032 -1.278,-2.689Zm-28.83,-0.105l-27.292,16.834l0,0.119l28.706,0.047l0,-14.206c0.001,-1.103 -0.525,-2.142 -1.414,-2.794Z" style="fill:#aec4c4;fill-rule:nonzero;"/><path d="M24.76,33.827l-1.499,-0.014l0.599,5.31l1.799,0l0.599,-5.31l-1.498,0.014Zm49.069,0l-1.498,-0.014l0.599,5.31l1.799,0l0.599,-5.31l-1.499,0.014Z" style="fill:#6e6358;fill-rule:nonzero;"/><rect x="25.851" y="32.231" width="47.954" height="3.397" style="fill:#6e6358;fill-rule:nonzero;"/><path d="M20.67,30.704l57.433,0l-2.718,-4.048l-52.125,0l-2.59,4.048Z" style="fill:#8c9e9d;fill-rule:nonzero;"/><path d="M47.938,34.938l-25.959,0c-0.761,0 -1.388,-0.627 -1.388,-1.388l0,-2.568c0,-0.767 0.622,-1.388 1.388,-1.388l25.959,0c0.766,0 1.388,0.621 1.388,1.388l0,2.568c0,0.767 -0.622,1.388 -1.388,1.388Z" style="fill:#c7d5d6;fill-rule:nonzero;"/><path d="M76.603,34.938l-25.958,0c0,0 -0.001,0 -0.001,0c-0.761,0 -1.388,-0.627 -1.388,-1.388c0,0 0,-2.568 0,-2.568c0,-0.767 0.622,-1.388 1.389,-1.388l25.958,0c0.767,0 1.388,0.621 1.388,1.388l0,2.568c0,0.767 -0.621,1.388 -1.388,1.388Z" style="fill:#c7d5d6;fill-rule:nonzero;"/><path d="M76.798,35.036l2.56,0c0.766,0 1.388,-0.621 1.388,-1.388l0,-14.028c0,-0.766 -0.622,-1.388 -1.388,-1.388l-2.56,0c-0.767,0 -1.388,0.622 -1.388,1.388l0,14.028c0,0.767 0.621,1.388 1.388,1.388Zm-57.472,0l2.559,0c0.767,0 1.389,-0.621 1.389,-1.388l0,-14.028c0,-0.766 -0.622,-1.388 -1.389,-1.388l-2.559,0c-0.767,0 -1.388,0.622 -1.388,1.388l0,14.028c0,0.767 0.621,1.388 1.388,1.388Z" style="fill:#aec4c4;fill-rule:nonzero;"/><path d="M53.752,27.753l6.052,-0.987c0.071,-0.012 0.144,-0.013 0.216,-0.004l3.416,0.434c0.032,0.004 0.064,0.006 0.095,0.006c0.414,0 0.753,-0.34 0.753,-0.753c0,-0.076 -0.011,-0.152 -0.034,-0.225c-0.193,-0.618 -1.139,-3.77 -1.076,-6.139c0.033,-1.23 0.019,-2.098 -0.004,-2.674c-0.015,-0.401 -0.35,-0.723 -0.751,-0.723c-0.067,0 -0.133,0.009 -0.197,0.026l-0.826,0.222c-0.064,0.017 -0.129,0.026 -0.195,0.026l-8.88,0c-0.35,0 -0.656,0.243 -0.734,0.584l-0.021,0.091c-0.033,0.145 -0.023,0.297 0.03,0.436c0.269,0.705 1.109,3.084 1.167,5.413c0.044,1.759 0.032,2.878 0.018,3.461c-0.008,0.301 0.167,0.579 0.441,0.704l0.097,0.044c0.136,0.061 0.286,0.081 0.433,0.058Z" style="fill:#fcf6e5;fill-rule:nonzero;"/><path d="M63.415,27.165l0.056,0.033c0.02,0.002 0.041,0.003 0.061,0.003c0.413,0 0.752,-0.34 0.752,-0.752c0,-0.077 -0.011,-0.152 -0.034,-0.225c-0.143,-0.456 -0.695,-2.296 -0.95,-4.182l-0.509,3.734c0,0 -0.07,0.972 0.624,1.389Zm-11.494,-10.087c-0.169,0.106 -0.289,0.274 -0.334,0.468l-0.021,0.091c-0.033,0.145 -0.023,0.297 0.03,0.436c0.269,0.705 1.109,3.084 1.167,5.413c0.044,1.759 0.032,2.878 0.018,3.461c-0.007,0.277 0.14,0.536 0.38,0.673l0.884,-6.424l-2.124,-4.118Z" style="fill:#95afaf;fill-rule:nonzero;"/><path d="M31.438,8.114c0,-0.001 -3.124,-1.122 -4.392,1.213c-2.115,3.897 -2.075,9.051 -1.791,13.366c0.084,1.28 -0.957,2.452 -1.165,3.726c-0.239,1.458 0.476,2.448 1.984,2.55c4.095,0.278 6.247,-0.208 9.162,-3.47c2.915,-3.262 8.055,-5.861 8.055,-5.861c0,0 0.571,-3.247 -1.976,-3.161c-4.135,0.138 -5.89,-2.339 -6.981,-5.068c-0.226,-0.564 -0.496,-2.579 -0.963,-2.996c-0.222,-0.207 -0.496,-0.351 -0.792,-0.416c-0.332,-0.071 -0.893,0.206 -1.141,0.117Z" style="fill:#9e6652;fill-rule:nonzero;"/><path d="M28.481,8.116l-2.198,1.211l-5.692,6.594l1.388,1.665l5.345,-4.442l1.157,-5.028Z" style="fill:#9e6652;fill-rule:nonzero;"/><path d="M31.319,2.521c0.705,0.485 1.356,1.566 1.177,2.459c-0.086,0.43 -0.375,0.732 -0.449,1.196c-0.15,0.914 -1.678,1.672 -0.955,2.679c0.371,0.518 1.041,0.706 1.66,0.86c0.075,0.018 0.153,0.037 0.228,0.017c0.123,-0.032 0.2,-0.161 0.215,-0.287c0.016,-0.126 -0.016,-0.253 -0.036,-0.378c-0.218,-1.313 0.596,-2.688 0.853,-3.956c0.255,-1.266 0.067,-2.714 -0.858,-3.696c-0.732,0.112 -1.227,0.374 -1.666,0.971l-0.169,0.135Z" style="fill:#483d3f;fill-rule:nonzero;"/><path d="M31.105,8.596c0.813,-0.214 1.502,-0.915 1.878,-1.702c0.375,-0.787 0.477,-1.651 0.477,-2.482c0.002,-2.762 -3.373,-2.49 -4.722,-0.335c-1.175,1.878 0.005,5.142 2.367,4.519Z" style="fill:#eacdb0;fill-rule:nonzero;"/><path d="M29.064,8.402c-0.418,-1.358 0.203,-4.026 1.367,-4.835c0.404,-0.281 0.83,-0.291 1.298,-0.24c0.32,0.034 0.317,0.157 0.609,0.019c0.223,-0.106 0.449,-0.476 0.525,-0.7c0.13,-0.377 0.025,-0.804 -0.193,-1.138c-1.278,-1.955 -3.551,-0.674 -4.836,0.557c-1.06,1.015 -1.984,2.213 -2.505,3.596c-0.486,1.294 -0.824,3.238 -0.841,4.616c-0.017,1.304 0.583,2.641 0.167,3.878c-0.378,1.124 -1.476,1.811 -2.439,2.503c-0.964,0.692 -1.945,1.655 -1.881,2.839c0.039,0.732 0.497,1.398 1.099,1.816c0.602,0.417 1.333,0.611 2.061,0.695c0.583,0.066 1.181,0.068 1.735,0.259c0.555,0.191 1.075,0.626 1.154,1.208c0.043,0.32 -0.028,0.708 0.221,0.915c0.116,0.097 0.275,0.123 0.425,0.144c0.46,0.067 0.984,0.116 1.333,-0.19c0.541,-0.474 0.384,-1.567 1.066,-1.793c0.2,-0.066 0.417,-0.027 0.627,-0.038c1.078,-0.056 1.647,-1.416 1.402,-2.467c-0.244,-1.051 -0.996,-1.897 -1.531,-2.835c-1.044,-1.83 -1.621,-4.181 -0.627,-6.089c0.145,-0.278 0.312,-0.556 0.354,-0.866c0.08,-0.595 -0.306,-1.136 -0.532,-1.691c-0.021,-0.054 -0.041,-0.108 -0.058,-0.163Z" style="fill:#483d3f;fill-rule:nonzero;"/><path d="M57.863,31.051c-0.278,-0.555 -2.776,-1.11 -4.095,-1.11c-1.319,0 -2.082,-0.555 -2.082,-0.555l-1.041,-1.041l-0.009,-0.001l-0.318,-1.125l-1.324,-0.239l-0.154,0.903l0.75,2.112l0.01,0.005l0.35,0.843l2.013,0.902l0.833,-0.347c0.833,-0.347 3.864,0.257 4.165,0.07c0.555,-0.347 1.179,0.139 0.902,-0.417Z" style="fill:#ac7060;fill-rule:nonzero;"/><path d="M48.626,13.307l3.684,-0.301l1.458,3.123l-3.123,12.216l-1.979,-0.382l1.007,-10.585l-11.244,10.272l1.284,-6.35l8.913,-7.993Z" style="fill:#37454d;fill-rule:nonzero;"/><path d="M46.341,27.347l0.022,1.286l0.42,1.119l-0.42,1.026l-1.539,-0.933c0,0 -0.233,-2.242 -0.163,-2.31c0.07,-0.068 0.255,-0.729 0.255,-0.729l1.425,0.541Z" style="fill:#ac7060;fill-rule:nonzero;"/><path d="M36.208,18.558l13.014,-6.212l2.464,3.505l-5.137,12.632l-2.082,-0.763l2.013,-9.162l-8.038,9.115c0,0 -4.316,2.893 -8.62,1.088c0.347,-1.805 6.386,-10.203 6.386,-10.203Z" style="fill:#404f5a;fill-rule:nonzero;"/><path d="M20.591,15.921l1.111,2.311l10.064,-0.923l-0.556,-1.805l-8.051,-1.11l-2.568,1.527Z" style="fill:#ac7060;fill-rule:nonzero;"/><path d="M33.146,8.238l1.465,0.742l4.165,4.442l0,1.874l-4.234,-2.985l-1.396,-4.073Z" style="fill:#9e6652;fill-rule:nonzero;"/><path d="M34.611,13.491l-0.902,-1.249l-1.11,-0.347l-0.833,0.625l0.347,0.138l0.624,-0.208l-0.138,1.041l1.533,0.856l0.41,-0.023l0.069,-0.833Z" style="fill:#eacdb0;fill-rule:nonzero;"/><path d="M38.776,13.422l0,1.884l-4.72,-0.774l0.486,-1.179l2.846,-0.486l1.388,0.555Z" style="fill:#ac7060;fill-rule:nonzero;"/><path d="M32.89,13.141l2.305,0c0.129,0 0.22,0.128 0.177,0.25l-1.348,3.829c-0.026,0.075 -0.097,0.125 -0.176,0.125l-1.667,0c0,0 0,0 0,0c-0.103,0 -0.187,-0.084 -0.187,-0.187c0,-0.011 0.001,-0.023 0.003,-0.034l0.709,-3.83c0.017,-0.088 0.094,-0.153 0.184,-0.153Z" style="fill:#59595b;fill-rule:nonzero;"/><path d="M31.28,15.782l0.902,-0.764l0.208,0l-0.069,0.417l0.833,-0.555l0.278,0.347l-0.833,1.388l-1.041,0.069l-0.278,-0.902Z" style="fill:#eacdb0;fill-rule:nonzero;"/><path d="M33.173,1.439c-0.379,-1.211 -2.057,-1.733 -3.281,-1.274c-1.111,0.417 -1.63,1.29 -1.775,2.615c-0.035,0.321 -0.012,0.61 -0.099,0.925c-0.077,0.279 -0.341,0.401 -0.516,0.625c-0.219,0.284 -0.358,0.623 -0.4,0.979c-0.075,0.658 0.347,1.489 0.927,1.812c0.835,0.464 1.572,-0.418 1.724,-1.192c0.048,-0.249 0.06,-0.506 0.034,-0.758c-0.022,-0.289 -0.117,-0.568 -0.276,-0.81c-0.232,-0.332 -0.601,-0.303 -0.799,-0.587c-0.161,-0.229 -0.171,-0.578 -0.126,-0.836c0.108,-0.632 0.221,-1.35 0.696,-1.821c0.389,-0.385 0.934,-0.57 1.471,-0.599c0.09,-0.005 0.18,-0.006 0.27,-0.005c0.718,0.015 1.457,0.481 1.653,1.108c-0.008,0.002 0.547,-0.206 0.497,-0.182Z" style="fill:#f1cd41;fill-rule:nonzero;"/><path d="M69.536,36.708c0,0 -2.382,1.085 -2.559,1.865c-0.178,0.78 -0.933,3.193 -1.329,3.326c-0.397,0.133 -0.454,0.32 -0.143,0.466c0.312,0.146 0.838,0.255 1.312,-0.465c0.473,-0.721 0.915,-1.669 1.615,-1.964c0.701,-0.295 1.757,-2.194 1.757,-2.194l-0.653,-1.034Zm-8.909,-0.657l-0.303,0.374c0,0 0.53,2.733 -0.519,4.408c-0.538,0.936 -0.673,1.048 -0.459,1.222c0.213,0.173 0.886,0.054 0.919,-0.096c0.033,-0.15 0.562,-1.184 0.967,-1.52c0.405,-0.335 0.634,-1.89 1.228,-2.532c0.593,-0.642 -1.833,-1.856 -1.833,-1.856Z" style="fill:#bcac98;fill-rule:nonzero;"/><path d="M63.991,30.528c0.252,0.263 0.513,0.864 0.843,1.044c0.916,0.501 1.518,1.017 2.522,0.978c1.163,-0.046 2.726,0.29 3.71,1.039c1.792,1.365 1.268,4.028 0.432,4.915c-1.495,1.588 -2.234,-0.132 -3.224,0.033c-0.989,0.164 -6.733,1.165 -8.095,-2.508c-0.685,-2.399 0.058,-2.534 -0.913,-3.198c1.602,-0.505 3.913,-3.147 4.723,-2.305l0.002,0.002Z" style="fill:#d3c2a4;fill-rule:nonzero;"/><path d="M60.405,36.108l-0.014,0.43c0,0 0.231,0.405 0.882,1.35c0.651,0.946 0.758,3.627 0.701,3.917c-0.058,0.29 -0.308,0.477 0.127,0.588c0.434,0.112 0.633,-0.028 0.822,-1.336c0.188,-1.308 0.276,-1.013 0.348,-1.741c0.072,-0.728 -0.191,-1.613 -0.191,-1.613l-2.675,-1.595Zm7.732,1.094c0,0 -0.822,1.065 -0.179,2.201c0.643,1.136 1.358,1.781 1.492,2.505c0.135,0.724 -0.644,0.715 -0.1,0.882c0.544,0.167 0.935,0.196 1.095,-0.495c0.159,-0.69 -0.766,-1.617 -0.324,-2.516c0.441,-0.9 1.229,-0.869 1.528,-1.54c0.299,-0.671 -1.493,-2.505 -1.493,-2.505l-2.165,1.475l0.146,-0.007Z" style="fill:#d3c2a4;fill-rule:nonzero;"/><path d="M72.197,35.353c0.144,-0.053 0.915,-0.318 0.89,-1.241c-0.025,-0.925 -0.677,-1.637 -1.6,-1.563c-0.923,0.074 -0.854,0.909 -0.655,1.021c0.2,0.111 1.337,0.177 1.235,1.202c-0.101,0.441 0.13,0.581 0.13,0.581Z" style="fill:#bcac98;fill-rule:nonzero;"/><path d="M59.266,32.831l0.315,0.255c0,0 1.574,0.532 3.394,-1.469c0.721,-1.064 0.497,-1.247 0.497,-1.247l-0.402,0.084c0,0 -0.774,2.329 -3.804,2.377Z" style="fill:#37454d;fill-rule:nonzero;"/><path d="M60.524,27.126c0,0 -0.194,-0.213 -0.639,-0.151c-0.444,0.062 -1,0.895 -1.153,0.981c-0.153,0.085 -0.531,0.245 -0.111,0.33c0.419,0.085 1.783,-0.68 1.903,-1.16Z" style="fill:#4f3c22;fill-rule:nonzero;"/><path d="M62.206,27.846c0,0 -0.858,-0.851 -1.897,-0.69c-0.612,0.094 -1.121,0.44 -1.517,0.906c-0.202,0.237 -0.348,0.508 -0.534,0.755c-0.123,0.164 -0.294,0.258 -0.412,0.434c-0.277,0.417 -0.332,1.096 -0.125,1.552c0.207,0.456 -0.108,1.943 1.545,2.028c1.652,0.084 3.613,-1.221 3.929,-2.123c0.318,-0.902 0.586,-1.808 -0.989,-2.862Z" style="fill:#dacaaf;fill-rule:nonzero;"/><path d="M61.966,28.005c0,0 0.428,-0.364 0.857,-0.232c0.428,0.133 0.731,0.011 0.792,0.455c0.062,0.444 0.315,1.538 -0.158,1.964c-0.474,0.425 -0.496,-0.504 -0.816,-0.774c-0.32,-0.27 -0.942,-1.231 -0.675,-1.413Z" style="fill:#4f3c22;fill-rule:nonzero;"/><path d="M65.514,16.374l6.053,0.987c0.071,0.012 0.144,0.013 0.216,0.003l3.416,-0.433c0.031,-0.004 0.063,-0.006 0.095,-0.006c0.413,0 0.754,0.34 0.754,0.754c0,0.076 -0.012,0.151 -0.034,0.223c-0.194,0.618 -1.139,3.77 -1.077,6.139c0.028,0.891 0.027,1.784 -0.003,2.675c-0.016,0.402 -0.351,0.723 -0.752,0.723c-0.067,0 -0.133,-0.009 -0.197,-0.026l-0.825,-0.223c-0.064,-0.017 -0.131,-0.025 -0.197,-0.025l-8.879,0c-0.35,0 -0.656,-0.243 -0.734,-0.584l-0.021,-0.091c-0.034,-0.145 -0.023,-0.298 0.03,-0.437c0.269,-0.705 1.109,-3.083 1.167,-5.413c0.044,-1.759 0.032,-2.877 0.017,-3.46c-0.007,-0.302 0.167,-0.58 0.442,-0.705l0.097,-0.044c0.135,-0.061 0.286,-0.081 0.432,-0.057Z" style="fill:#fcf6e5;fill-rule:nonzero;"/><path d="M76.048,17.678c0,-0.077 -0.013,-0.154 -0.036,-0.227l-1.908,2.009l0.771,7.519c0.035,-0.084 0.055,-0.173 0.059,-0.263c0.022,-0.576 0.036,-1.444 0.003,-2.675c-0.062,-2.369 0.883,-5.521 1.077,-6.139c0.022,-0.073 0.034,-0.148 0.034,-0.224Z" style="fill:#e6dfcf;fill-rule:nonzero;"/><path d="M69.454,19.183c0.312,-0.063 5.406,-0.688 6.419,-0.812c0.061,-0.21 0.11,-0.371 0.141,-0.469c0.016,-0.053 0.027,-0.107 0.031,-0.162l-6.661,0.471c0,0 -3.843,-0.526 -4.834,-0.754c0.004,0.248 0.006,0.56 0.006,0.938c0.973,0.181 4.597,0.848 4.898,0.788Zm-5.284,4.152c-0.101,0.454 -0.212,0.877 -0.323,1.254c1.483,0.008 4.149,0.008 4.149,0.008l6.958,0.328c-0.004,-0.295 -0.009,-0.589 -0.017,-0.884c-0.003,-0.092 -0.003,-0.185 -0.002,-0.277l-8.466,0l-2.299,-0.429Zm-0.697,2.409c-0.044,0.123 -0.083,0.228 -0.114,0.309c-0.053,0.139 -0.064,0.292 -0.03,0.437l0.021,0.091c0.06,0.258 0.248,0.459 0.488,0.542l3.909,-0.489l4.701,0.531l0.515,0c0.067,0 0.133,0.008 0.197,0.025l0.825,0.223c0.064,0.017 0.13,0.026 0.197,0.026c0.401,0 0.736,-0.321 0.752,-0.723c0.006,-0.163 0.011,-0.349 0.016,-0.559l-7.44,-0.658l-4.037,0.245Zm1.072,-6.057c-0.004,0.294 -0.011,0.611 -0.019,0.953c-0.001,0.023 -0.001,0.047 -0.003,0.07l5.764,0l4.957,0.271c0.067,-0.356 0.141,-0.701 0.216,-1.023c-0.656,0.045 -2.982,0.206 -3.16,0.266c-0.187,0.062 -6.473,-0.435 -7.755,-0.537Zm-0.075,1.831c-0.034,0.325 -0.078,0.65 -0.134,0.972l5.951,0.371l4.726,-0.368c0.032,-0.289 0.072,-0.579 0.118,-0.865l-7.759,0.192l-2.902,-0.302Z" style="fill:#c7d5d6;fill-rule:nonzero;"/><path d="M75.914,18.231l0.024,-0.082l0.008,-0.026l0.019,-0.064l0.006,-0.017c0.006,-0.023 0.012,-0.045 0.02,-0.067l0.005,-0.017l0.018,-0.056c0.007,-0.024 0.013,-0.048 0.018,-0.073l0.003,-0.015c0.004,-0.025 0.008,-0.049 0.01,-0.074l-0.33,0.023l-0.674,0.71l0.832,-0.102l0.009,-0.032l0.021,-0.07c0.003,-0.013 0.007,-0.025 0.011,-0.038Zm-1.369,5.533l0.117,1.147l0.292,0.014l0,-0.001l-0.003,-0.206l0,-0.001l-0.004,-0.195l0,-0.024l-0.004,-0.192l0,-0.032l-0.006,-0.233c-0.003,-0.092 -0.003,-0.185 -0.002,-0.277l-0.39,0Zm0.33,3.215l0.014,-0.039c0.004,-0.011 0.008,-0.022 0.011,-0.034l0.011,-0.036l0.009,-0.045l0.006,-0.03l0.008,-0.079l0.004,-0.123l0,-0.019l0.005,-0.115l0,-0.014l0.003,-0.133l0,-0.004l0.004,-0.148l0,-0.003l-0.161,-0.014l0.086,0.836Zm-0.62,-6.052l0.989,0.054l0.049,-0.252l0.011,-0.052l0.041,-0.201l0.011,-0.049c0.015,-0.07 0.029,-0.14 0.045,-0.208l0.006,-0.029l0.053,-0.232c-0.255,0.017 -0.761,0.052 -1.295,0.092l0.09,0.877Zm0.164,1.612l0.594,-0.046c0.016,-0.143 0.034,-0.287 0.053,-0.43l0.002,-0.008c0.019,-0.143 0.04,-0.285 0.063,-0.427l-0.803,0.02l0.091,0.891Z" style="fill:#95afaf;fill-rule:nonzero;"/></svg>