<svg viewBox="0 0 100 86" xmlns="http://www.w3.org/2000/svg" fill-rule="evenodd" clip-rule="evenodd" stroke-linejoin="round" stroke-miterlimit="1.414"><path d="M24.769 73.659h.252V46.096c0-.227.102-.442.279-.586l-.159-.195a1.004 1.004 0 0 0-.372.781v27.563z" fill="#3f3d56" fill-rule="nonzero"/><path d="M56.829 85.013s-6.475-17.268-2.906-27.895c3.57-10.626 6.393-10.211 6.393-10.211s4.815-1.246 10.793 2.407c5.977 3.653 7.555 4.733 10.958 3.238 3.404-1.494 4.069-3.819 12.371-3.57 0 0-4.401-2.407-8.718-.249-4.317 2.159-7.222 3.321-11.623 0-4.4-3.321-10.46-7.638-16.355-5.064 0 0 4.317-4.234 5.729-4.234 1.411 0 8.053-.664 10.211-2.906 0 0 3.072-2.158 8.552 3.155 5.479 5.313 4.151 5.313 9.049 4.898 4.898-.415 8.717-2.823 8.717-2.823s-5.728 2.325-9.215 1.163c-3.487-1.163-6.476-5.563-9.548-7.057-3.071-1.494-4.898-3.487-9.049-1.328 0 0 1.743-7.14 5.064-6.559 3.321.581 10.627.083 15.525-3.321 0 0 3.902-.083 5.646.747 0 0-4.567-2.656-8.469-.747-3.901 1.91-14.279 1.661-14.279 1.661s.913-12.121 2.657-12.952c1.743-.83.664-2.988 3.902-3.403 0 0-3.985-.499-4.733 2.241-.747 2.74-5.894 17.517-5.894 17.517s-3.155 6.31-6.642 4.816c-3.487-1.495 1.329-9.88 1.329-9.88l5.977-2.739s-4.483-.167-7.223 2.407c-2.739 2.574-2.905 10.876-2.905 10.876s-6.891.996-8.552 4.732c0 0-1.079-3.321.997-5.313.518-.498 1.063-1.365 1.589-2.385a21.064 21.064 0 0 0 2.058-12.684c-.309-2.124-.499-4.201-.161-4.69.748-1.08 3.902-7.721 4.152-9.465.249-1.743-.25-5.396-.25-5.396s-.083 4.483-1.079 5.894c-.996 1.412-3.819 8.386-3.819 8.386s-1.494-3.072-3.238-3.819c-1.743-.748-4.4-5.314-3.403-7.555 0 0-1.246 3.487-.249 5.479.996 1.993 3.818 4.317 3.818 4.317s3.072 10.378.748 14.695c-2.325 4.317-6.808 9.132-6.559 12.287v1.826s-4.981-4.732-4.649-6.309c.332-1.578.747-5.313 3.902-7.555 3.155-2.242 5.23-5.812 2.989-10.959-2.242-5.147-2.242-6.06-2.242-6.06l1.494 6.392s.831 5.729-1.494 7.721c-2.325 1.993-5.396 5.646-5.396 5.646l.664-11.955s.166-9.797-9.382-14.031l-6.06-2.574 6.227 3.902s7.471 6.642 6.973 10.71c-.498 4.068.083 6.725.083 6.725s-4.649-5.978-10.128-7.97c-5.48-1.993-8.883-8.966-8.883-8.966l-4.65-3.653 3.819 4.566s1.163 5.396 7.721 9.215c6.559 3.819 10.793 9.464 11.042 12.951.249 3.487.498 6.559.498 6.559s-12.287-.415-15.027-5.811c-2.739-5.397-2.988-16.107-5.645-17.85-2.657-1.743-7.638-3.902-7.638-3.902l5.562 4.566s1.163 3.736.914 6.393c-.249 2.657 1.826 5.147 1.826 5.147s-5.728-1.992-8.883-5.811c-3.155-3.819-6.808-7.306-6.808-7.306s4.4 6.558 4.4 6.808c0 .249 2.657 2.822 2.325 4.4-.332 1.577 5.064 3.403 5.064 3.403l5.479 3.155 1.744 3.985s-7.14.166-10.876 4.4C9.424 41.676.126 42.922.126 42.922l5.23 1.411s4.982-1.66 9.714-4.732 4.234-5.812 10.128-2.74c5.895 3.072 13.948 5.646 13.948 5.646s-4.649-2.159-13.035 3.071C17.726 50.809 8.76 47.322 8.76 47.322s1.993 3.819 6.227 4.068c4.234.249 15.276-6.725 19.011-4.732 3.736 1.992 5.48-.498 6.974 4.483 1.495 4.981 4.234 18.597 1.079 26.234l-3.154 7.638h17.932z" fill="#3f3d56" fill-rule="nonzero"/><path d="M25.57 30.054c2.226 4.384 10.754 5.48 13.874 5.737.088 1.125.146 1.837.146 1.837s-12.287-.415-15.027-5.811c-2.74-5.397-2.989-16.106-5.646-17.85a20.78 20.78 0 0 0-.915-.565c-.091-.335-.153-.534-.153-.534l-5.562-4.566s4.981 2.159 7.638 3.902c2.657 1.744 2.906 12.453 5.645 17.85zM18.038 23.299a9.523 9.523 0 0 0 1.544 2.872c.675.862-4.988-1.735-8.219-5.07-.628-1.378-2.065-2.819-2.065-3.002 0-.25-4.4-6.808-4.4-6.808s3.653 3.487 6.808 7.306c1.788 2.164 4.402 3.741 6.332 4.702zM48.069 24.74c.057-.049.112-.101.166-.154-.25.764-.623 1.446-1.174 1.917-2.324 1.993-5.396 5.646-5.396 5.646l.664-11.955s.11-6.515-5.027-11.215a40.15 40.15 0 0 0-3.18-3.251l-6.227-3.902L33.956 4.4c9.547 4.234 9.381 14.031 9.381 14.031l-.664 11.955s3.071-3.653 5.396-5.646z" fill-opacity=".1" fill-rule="nonzero"/><path d="M39.887 21.666c.018 2.044.284 3.26.284 3.26s-4.647-5.975-10.125-7.969a34.183 34.183 0 0 0-.989-.602c-6.558-3.819-7.721-9.215-7.721-9.215l-3.819-4.566 4.65 3.653s3.403 6.973 8.883 8.966c3.735 1.358 7.083 4.567 8.837 6.473zM47.061 41.447v1.827s-4.981-4.733-4.649-6.31c.254-1.206.558-3.675 2.098-5.772-.694 1.585-.905 3.131-1.09 4.009-.238 1.131 2.256 3.884 3.686 5.352-.05.295-.065.595-.045.894zM53.743 28.913c-.039.084-.08.167-.123.247-1.273 2.364-3.192 4.878-4.628 7.186 1.16-2.286 3.18-4.9 4.751-7.433zM25.986 45.578c2.731-1.703 5.065-2.622 6.972-3.088 2 .753 3.646 1.314 4.475 1.59-1.486-.385-5.79-.896-12.455 3.262-5.229 3.261-10.684 3.133-14.05 2.574a8.688 8.688 0 0 1-2.294-2.594c-.583-1.01 8.966 3.487 17.352-1.744zM49.696 25.379c.669-1.641.78-3.593.011-5.88a18.041 18.041 0 0 0-.144-2.48l-1.307-5.592c.241.807.793 2.362 2.055 5.26 1.597 3.669 1.001 6.535-.615 8.692zM13.034 37.442c2.591-2.936 6.818-3.916 9.167-4.24l.701 1.604s-7.139.166-10.875 4.4c-2.072 2.348-5.854 3.776-8.812 4.583L0 42.922s9.298-1.246 13.034-5.48zM63.832 36.3c-3.487-1.494 1.328-9.88 1.328-9.88l.132-.06c-1.201 2.533-2.942 7.11-.453 8.177 2.329.998 4.51-1.485 5.701-3.245l-.067.193s-3.154 6.309-6.641 4.815zM52.458 41.696s-1.051-3.238.923-5.238c-.484 1.723.084 3.475.084 3.475 1.285-2.89 5.698-4.14 7.632-4.558a30.883 30.883 0 0 0-.088 1.589s-6.891.996-8.551 4.732zM48.256 11.427c-.187-.626-.187-.8-.187-.8l.187.8zM89.702 44.701l-.051-.016c-3.487-1.162-6.475-5.562-9.547-7.057-3.072-1.494-4.898-3.487-9.049-1.328 0 0 .726-2.973 2.133-4.926a19.385 19.385 0 0 0-1.126 3.163c4.151-2.159 5.978-.166 9.049 1.328 3.072 1.494 6.061 5.894 9.548 7.057 3.487 1.162 9.215-1.163 9.215-1.163s-3.819 2.408-8.717 2.823c-.56.048-1.039.09-1.455.119zM92.651 24.657c-.644.444-1.319.84-2.022 1.185-.627.106-1.236.3-1.808.578-2.51 1.229-7.7 1.564-11.083 1.647a12.105 12.105 0 0 1-.612-.089 2.175 2.175 0 0 0-1.165.113c-.879.003-1.42-.01-1.42-.01s.914-12.121 2.657-12.951l.038-.02c-1.111 3.562-1.687 11.208-1.687 11.208s10.378.249 14.28-1.661c3.902-1.909 8.468.747 8.468.747-1.744-.83-5.646-.747-5.646-.747zM55.089 85.013c-1.521-4.663-5.179-17.558-2.299-26.131 1.244-3.703 2.397-6.064 3.371-7.57-.729 1.425-1.525 3.312-2.364 5.806-3.569 10.627 2.906 27.895 2.906 27.895h-1.614zM87.511 49.65a8.474 8.474 0 0 0-2.924.846c-3.41 1.705-5.939 2.786-9.02 1.531a50.56 50.56 0 0 1-2.391-1.376c-.071-.051-.141-.101-.212-.155-4.4-3.32-10.461-7.637-16.355-5.064 0 0 1.191-1.168 2.527-2.277 5.402-1.325 10.813 2.542 14.836 5.578 4.4 3.321 7.305 2.159 11.622 0 4.318-2.158 8.718.249 8.718.249-3.208-.096-5.275.192-6.801.668zM79.084 12.56c-.094.16-.209.307-.341.437.097-.158.211-.304.341-.437zM63.915 26.088a3.995 3.995 0 0 0-.36.388c.363-.874.813-1.63 1.367-2.151 2.74-2.574 7.223-2.407 7.223-2.407l-5.622 2.576a8.037 8.037 0 0 0-2.608 1.594zM57.949 14.861c-.339.489-.149 2.566.16 4.69a21.064 21.064 0 0 1-2.058 12.684c-.265.524-.56 1.031-.885 1.519a21.082 21.082 0 0 0 1.936-12.44c-.309-2.124-.5-4.201-.161-4.69.747-1.079 3.902-7.721 4.151-9.464.075-.677.092-1.358.052-2.038.645-1.829.707-5.122.707-5.122s.498 3.653.249 5.396c-.249 1.744-3.404 8.385-4.151 9.465zM55.945 16.043s-.805-1.652-1.921-2.828c-.089-.328-.143-.513-.143-.513s-2.823-2.324-3.819-4.317c-.772-1.542-.2-3.979.098-5.002-.495 2.356 1.927 6.38 3.554 7.078 1.412.604 2.659 2.732 3.084 3.521-.5 1.189-.853 2.061-.853 2.061zM50.16 3.383c.033-.164.084-.324.151-.477.067-.154-.064.179-.151.477zM79.483 11.745c-.731.089-1.573.314-2.215.834.042-.141.078-.268.107-.375.748-2.74 4.733-2.241 4.733-2.241-1.801.23-2.266 1.001-2.625 1.782z" fill-opacity=".1" fill-rule="nonzero"/><path d="M22.07 66.752s-1.424-1.495-2.007-1.194c-.584.301 1.676 1.637 1.676 1.637l.331-.443z" fill="#ffb9b9" fill-rule="nonzero"/><path d="M22.07 66.752s-1.424-1.495-2.007-1.194c-.584.301 1.676 1.637 1.676 1.637l.331-.443z" fill-opacity=".1" fill-rule="nonzero"/><path d="M26.417 63.49s.524.939.387 1.95c-.137 1.012-1.391 4.26-1.817 4.202-.426-.058-3.582-2.384-3.582-2.384l.602-.84 2.306 1.397s.351-4.997 2.104-4.325z" fill="#d0cde1" fill-rule="nonzero"/><path d="M17.868 65.775l3.594 1.974a.172.172 0 0 0 .252-.074l.88-1.84a.23.23 0 0 0-.117-.276l-2.985-1.539a.176.176 0 0 0-.228.044l-1.491 1.404a.221.221 0 0 0 .095.307z" fill="#2f2e41" fill-rule="nonzero"/><path d="M18.108 65.503l3.369 1.926.897-1.616-2.891-1.572-1.375 1.262z" fill="#6c63ff" fill-rule="nonzero"/><path d="M21 64.892c-.018-.021-.046-.026-.064-.011-.018.015-.019.044-.001.065.017.021.046.026.064.011.018-.015.018-.044.001-.065zM19.738 66.555c-.012-.014-.031-.018-.043-.008-.012.01-.012.03 0 .044.011.014.031.017.042.007.012-.01.013-.029.001-.043z" fill="#f2f2f2"/><path d="M26.417 63.49s.524.939.387 1.95c-.137 1.012-1.391 4.26-1.817 4.202-.426-.058-3.582-2.384-3.582-2.384l.602-.84 2.306 1.397s.351-4.997 2.104-4.325z" fill-opacity=".1" fill-rule="nonzero"/><path d="M23.034 67.038s-1.613-1.29-2.15-.914c-.538.376 1.881 1.397 1.881 1.397l.269-.483z" fill="#ffb9b9" fill-rule="nonzero"/><circle cx="25.183" cy="60.319" r="1.559" fill="#ffb9b9"/><path d="M19.809 71.176s-1.666.215-1.613 1.236c.054 1.021 1.29 5.267 1.29 5.267l.108 1.666s-.108 2.795.215 2.741c.322-.053 1.075-1.988 1.075-1.988s.913-.591.483-1.129c-.43-.537-.752-.484-.645-1.075.108-.591.054-3.063-.268-3.816-.323-.752-.511-1.167-.511-1.167l1.048-.069-1.182-1.666z" fill="#ffb9b9" fill-rule="nonzero"/><path d="M19.809 71.176s-1.666.215-1.613 1.236c.054 1.021 1.29 5.267 1.29 5.267l.108 1.666s-.108 2.795.215 2.741c.322-.053 1.075-1.988 1.075-1.988s.913-.591.483-1.129c-.43-.537-.752-.484-.645-1.075.108-.591.054-3.063-.268-3.816-.323-.752-.511-1.167-.511-1.167l1.048-.069-1.182-1.666z" fill-opacity=".1" fill-rule="nonzero"/><path d="M19.701 71.445s-1.612.376-1.773 1.451c-.162 1.075-.968 4.246-.968 4.246l-.86 1.988s-1.343 2.419-.752 2.365c.591-.054 1.397-1.236 1.666-1.236.269 0 1.075-.322 1.021-.537-.054-.215-.43-.86-.43-.86l1.3-2.265c.252-.438.441-.907.564-1.396.134-.531.286-1.181.286-1.391 0-.377 1.075-.538 1.075-.538l-1.129-1.827z" fill="#ffb9b9" fill-rule="nonzero"/><path d="M24.968 68.005l-.752 2.15s-1.182.322-2.042.591c-.86.269-2.473-.107-2.634.537-.161.645.322 1.774.806 2.043.484.269.753.537 2.311.107 1.559-.43 5.267-.537 5.267-.537.36.216.765.344 1.183.376.699.054.86.108 1.075-.054.215-.161-.108-.161-.215-.591-.108-.43-.161-.269-.645-.752-.484-.484-.86-1.935-1.129-2.419s-.43-1.451-.43-1.451h-2.795z" fill="#2f2e41" fill-rule="nonzero"/><path d="M25.076 61.609c.395.289.634.747.645 1.236 0 .807 1.612-.86 1.612-.86s-.86-1.075-.86-1.397c0-.322-1.397 1.021-1.397 1.021z" fill="#ffb9b9" fill-rule="nonzero"/><path d="M27.118 61.287s-.967.376-1.182.913c-.215.538-1.021 1.667-1.021 1.667s-1.129 1.182-.753 2.472.699 1.612.699 1.827c0 .215.537.591.967.538.43-.054 2.043-.269 2.15-.484.108-.215.753-3.279.323-4.407a26.02 26.02 0 0 0-1.183-2.526z" fill="#d0cde1" fill-rule="nonzero"/><path d="M24.731 60.39c-.348.083-.691-.139-.977-.36-.162-.125-.34-.303-.291-.504.044-.179.255-.28.285-.462.022-.126-.052-.249-.058-.377a.533.533 0 0 1 .313-.456c.17-.092.363-.13.537-.212.267-.125.488-.35.773-.422.389-.099.785.111 1.185.138.242.017.487-.034.726.005.469.095.814.502.831.979.003.171-.031.362.071.498a.804.804 0 0 0 .137.124c.356.287.517.768.536 1.231.009.228-.039.498-.241.595a.9.9 0 0 1-.337.047.352.352 0 0 0-.298.142c-.092.162.046.402-.074.544-.091.106-.267.071-.373-.02-.106-.09-.171-.221-.272-.318-.194-.189-.483-.223-.75-.251a.385.385 0 0 1-.221-.073.34.34 0 0 1-.09-.185 1.138 1.138 0 0 1-.001-.486.27.27 0 0 0 .006-.154.217.217 0 0 0-.079-.088c-.165-.125-.455-.306-.67-.271-.239.038-.427.279-.668.336z" fill="#2f2e41" fill-rule="nonzero"/><path d="M26.903 63.222s.645.859.645 1.881c0 1.021-.806 4.407-1.236 4.407-.43 0-3.87-1.881-3.87-1.881l.484-.914 2.472 1.075s-.322-4.998 1.505-4.568z" fill="#d0cde1" fill-rule="nonzero"/><path fill="#6c63ff" d="M19.606 72.923h12.343v2.393H19.606z"/><path d="M25.777 75.442a1.014 1.014 0 0 0 1.007-1.008V46.096a1.007 1.007 0 1 0-1.643-.781l.159.195a.76.76 0 0 1 .477-.169.76.76 0 0 1 .756.755v28.338a.762.762 0 0 1-.756.756v.252z" fill="#3f3d56" fill-rule="nonzero"/><path d="M28.155 59.026c-.055-.043-.205.053-.335.216-.131.162-.193.33-.139.373.055.044.205-.053.335-.215.131-.163.193-.33.139-.374z" fill="#6c63ff"/><path d="M38.472 80.748c1.238 1.899.899 4.314.899 4.314s-2.347-.664-3.585-2.563c-1.238-1.898-.899-4.313-.899-4.313s2.347.663 3.585 2.562z" fill="#3f3d56" fill-rule="nonzero"/><path d="M37.542 81.084c.098 2.264 1.779 4.031 1.779 4.031s1.523-1.905 1.425-4.17c-.098-2.265-1.779-4.031-1.779-4.031s-1.523 1.905-1.425 4.17z" fill="#6c63ff" fill-rule="nonzero"/><path d="M58.849 81.466c-.592 2.188-2.62 3.543-2.62 3.543s-1.068-2.192-.476-4.38c.592-2.188 2.62-3.544 2.62-3.544s1.068 2.193.476 4.381z" fill="#3f3d56" fill-rule="nonzero"/><path d="M57.979 80.996c-1.624 1.581-1.823 4.012-1.823 4.012s2.435-.133 4.06-1.714c1.624-1.582 1.822-4.012 1.822-4.012s-2.435.133-4.059 1.714zM63.362 21.668c.142 2.263 1.856 3.997 1.856 3.997s1.486-1.934 1.345-4.196c-.141-2.263-1.856-3.997-1.856-3.997s-1.486 1.934-1.345 4.196zM81.236 7.366c-1.917 1.209-2.617 3.545-2.617 3.545s2.41.376 4.327-.833c1.918-1.209 2.617-3.545 2.617-3.545s-2.409-.376-4.327.833zM85.518 34.948c-1.917 1.209-2.617 3.545-2.617 3.545s2.41.376 4.327-.833c1.918-1.209 2.617-3.545 2.617-3.545s-2.409-.376-4.327.833zM75.317 45.527c-1.918 1.209-2.617 3.545-2.617 3.545s2.409.376 4.327-.832c1.917-1.209 2.617-3.546 2.617-3.546s-2.41-.376-4.327.833zM46.536 11.398c.578 2.192 2.597 3.56 2.597 3.56s1.082-2.186.503-4.378c-.578-2.192-2.597-3.559-2.597-3.559s-1.081 2.185-.503 4.377zM28.295 13.107c.679 2.163 2.76 3.435 2.76 3.435s.978-2.234.299-4.396c-.68-2.163-2.761-3.435-2.761-3.435s-.978 2.234-.298 4.396zM8.579 37.175c1.231 1.903 3.575 2.575 3.575 2.575s.348-2.413-.883-4.317c-1.231-1.903-3.575-2.575-3.575-2.575s-.349 2.413.883 4.317z" fill="#6c63ff" fill-rule="nonzero"/></svg>