<svg viewBox="0 0 49 100" xmlns="http://www.w3.org/2000/svg" fill-rule="evenodd" clip-rule="evenodd" stroke-linejoin="round" stroke-miterlimit="1.414"><path d="M37.151 37.092h-.055v-.795h.094l.054-1.131a.477.477 0 0 1 .497-.451l4.238.205a.476.476 0 0 1 .451.474v.023l-.422 8.715a.475.475 0 0 1-.496.451l-4.238-.205a.477.477 0 0 1-.452-.474l.001-.023.328-6.789z" fill="#2f2e41" fill-rule="nonzero"/><path d="M39.654 37.536c-.572-.028-1.057.376-1.083.902-.025.526.419.975.991 1.003.573.028 1.058-.377 1.083-.902.026-.526-.418-.976-.991-1.003z" fill="#6c63ff"/><path d="M36.455 85.459c-.934 3.453-4.134 5.592-4.134 5.592s-1.685-3.46-.751-6.914c.934-3.453 4.134-5.591 4.134-5.591s1.685 3.46.751 6.913z" fill="#3f3d56" fill-rule="nonzero"/><path d="M35.082 84.717c-2.563 2.495-2.876 6.331-2.876 6.331s3.843-.21 6.406-2.705c2.563-2.495 2.876-6.331 2.876-6.331s-3.843.209-6.406 2.705z" fill="#6c63ff" fill-rule="nonzero"/><path d="M23.829 3.561s-.275.917 1.284 1.743c1.559.825 2.018 3.943.184 4.861-1.835.917-2.385 2.109-1.468 2.935.917.825 2.568 3.026.367 3.576-2.201.551-2.476 1.651-1.834 2.11.642.459-1.468-.826-1.468-.826s-.367 2.202-2.293 1.651c-1.926-.55-7.337-11.006-4.586-12.473 2.752-1.468 9.814-3.577 9.814-3.577z" fill="#2f2e41" fill-rule="nonzero"/><path d="M16.723 81.316l.596 5.566-2.584 1.59-2.385-.398 1.192-6.758h3.181z" fill="#9f616a" fill-rule="nonzero"/><circle cx="18.71" cy="8.967" r="5.565" fill="#9f616a"/><path d="M20.598 11.65s.497 8.447 1.094 8.447c.596 0-6.957-.397-6.957-.397s3.18-5.566 1.59-7.354c-1.59-1.789 4.273-.696 4.273-.696z" fill="#9f616a" fill-rule="nonzero"/><path d="M12.35 56.272l2.584 9.938-1.988 16.895 4.572-.397 1.789-26.436H12.35z" fill="#2f2e41" fill-rule="nonzero"/><path d="M12.35 56.272l2.584 9.938-1.988 16.895 4.572-.397 1.789-26.436H12.35z" fill-opacity=".2" fill-rule="nonzero"/><path d="M16.325 85.888s.199-1.193 2.186 0c1.988 1.192 10.336 4.969 5.963 5.764-4.372.795-13.317-.994-13.317-1.59 0-.596-.199-4.373.597-3.975.795.397 3.378 2.981 4.571-.199z" fill="#2f2e41" fill-rule="nonzero"/><path d="M13.741 84.497s-3.18 4.969-3.379 6.36c-.199 1.391-3.18-3.18-3.18-3.18l2.783-5.168 3.776 1.988z" fill="#9f616a" fill-rule="nonzero"/><path d="M24.276 57.067l-3.578 11.926s-6.361 16.895-6.758 16.696c-.398-.199-5.168-1.391-5.367-1.988-.198-.596 5.963-16.696 5.963-16.696l.795-10.335 8.945.397zM6.586 86.882a2.614 2.614 0 0 1 2.584 1.59c.795 1.789 1.788 1.987 1.987 2.186.199.199-.596 4.373 0 4.77.597.398 1.193 4.572-.795 4.572-1.987 0-5.168-2.186-4.969-2.584.199-.397.199-3.18-.397-4.373-.597-1.192-1.591-3.18 0-4.372 1.59-1.193 1.59-1.789 1.59-1.789z" fill="#2f2e41" fill-rule="nonzero"/><path d="M25.468 38.582l.398 3.578s2.981 2.981 3.975 6.559c.994 3.578 9.143 9.541 6.758 10.336-2.385.795-5.168 1.192-12.125 0-6.956-1.193-17.888 1.391-17.888-5.168 0 0-1.392-1.789-2.385.795a51.948 51.948 0 0 1-2.386 5.168C.926 61.528-.57 55.676.225 53.887c.795-1.789 0-1.59.994-3.578.994-1.987 5.963-9.342 7.951-9.739 1.987-.398 5.764-5.565 5.565-6.162-.199-.596 10.733 4.174 10.733 4.174z" fill="#6c63ff" fill-rule="nonzero"/><path d="M14.735 16.321s8.149 1.789 8.547 2.981c.223.671 1.265 1.908 2.133 2.862a11.175 11.175 0 0 1 2.805 5.692c.207 1.268-.664 2.408-1.062 3.869-1.193 4.373-2.087 3.28-.895 6.46 1.193 3.18-5.963 4.373-8.745 2.981-2.783-1.391-5.864-9.64-5.864-10.634 0-.993-2.683-12.224-.497-13.019 2.187-.795 3.578-1.192 3.578-1.192z" fill="#575a88" fill-rule="nonzero"/><path d="M26.064 25.861l2.386 10.535 7.851 3.478s5.963-1.391 6.161.795c.13 1.428-6.758 1.988-6.758 1.988l-11.428-4.472-2.584-9.74 4.372-2.584z" fill="#9f616a" fill-rule="nonzero"/><path d="M23.282 21.886s4.969 2.982 3.776 4.572c-1.192 1.59-4.174 4.174-4.969 4.174-.795 0-1.391-4.771-1.391-6.162s2.584-2.584 2.584-2.584z" fill="#575a88" fill-rule="nonzero"/><path d="M18.31 1.74s-.305 1.016 1.422 1.93c1.728.915 2.236 4.369.203 5.385-2.032 1.016-2.641 2.337-1.625 3.252 1.016.914 2.845 3.352.406 3.962-2.438.61-2.743 1.829-2.032 2.337.711.508-1.626-.915-1.626-.915s-.406 2.439-2.54 1.829c-2.133-.609-4.262-11.691-1.884-14.545C12.846 2.321 18.31 1.74 18.31 1.74z" fill="#2f2e41" fill-rule="nonzero"/><path d="M18.959.694c-.001-1.489-4.454-.419-6.363 1.659-1.323 1.44-3.331 3.605-1.648 5.131 1.683 1.526-2.885 3.527-4.11 4.134-1.224.606-3.643 2.462-1.459 3.706 2.184 1.245 2.148 2.501 1.327 2.798-.822.298 1.812-.442 1.812-.442s-.267 2.458 1.952 2.446c2.219-.012 8.586-12.207 7.065-15.597C16.121 1.378 18.959.694 18.959.694z" fill="#2f2e41" fill-rule="nonzero"/><path d="M17.994.368c5.956-.359 6.553 4.124 6.553 4.124-.041 2.594-4.161 1.33-5.305 1.717a951.688 951.688 0 0 0-5.944-4.213A8.995 8.995 0 0 1 17.994.368z" fill="#2f2e41" fill-rule="nonzero"/><path d="M43.76 25.739l.572-.187c2.042-.689 3.384-1.128 3.861-2.205a1.68 1.68 0 0 0-.857-2.247 1.827 1.827 0 0 0-1.532.033 1.822 1.822 0 0 0-1.004-1.157 1.68 1.68 0 0 0-2.241.871c-.478 1.077.097 2.366.956 4.342l.245.55zM38.365 29.878l.389-.128c1.39-.468 2.303-.768 2.628-1.501a1.14 1.14 0 0 0-.584-1.529 1.237 1.237 0 0 0-1.042.023 1.238 1.238 0 0 0-.684-.788 1.142 1.142 0 0 0-1.525.593c-.325.733.066 1.611.651 2.955l.167.375zM41.765 11.803l.369-.342c1.312-1.236 2.178-2.038 2.165-3.023v-.007c0-.769-.633-1.402-1.402-1.402l-.034.001a1.529 1.529 0 0 0-1.153.559 1.523 1.523 0 0 0-1.167-.529 1.407 1.407 0 0 0-1.399 1.401v.043c.013.985.899 1.765 2.242 2.967l.379.332z" fill="#ff6584" fill-rule="nonzero"/></svg>