<svg viewBox="0 0 98 101" xmlns="http://www.w3.org/2000/svg" fill-rule="evenodd" clip-rule="evenodd" stroke-miterlimit="10"><g><path d="M2.161 38.282C7.719 16.428 26.923.652 49.464.019c11.917-.334 24.457 3.618 33.587 17.449 16.321 24.723-1.003 41.808-13.081 49.926a75.573 75.573 0 0 0-15.62 14.04c-8.159 9.681-23.853 21.711-42.544 2.862C-1.741 70.634-1.541 52.84 2.161 38.282z" fill="#E7E7E7" fill-rule="nonzero"/><ellipse cx="53.012" cy="95.542" rx="44.681" ry="4.458" fill="#E7E7E7"/><path fill="#3F3D56" d="M75.072 57.834h2.623v39.87h-2.623z"/><path d="M54.35 56.785v1.049l42.755.525V57.31l-.06-.04-7.547-4.944H57.759l-3.409 4.459z" fill="#3F3D56" fill-rule="nonzero"/><path d="M61.956 50.49s9.443.787 6.296 3.147c-3.148 2.361-6.296-1.574-6.296-1.574V50.49z" fill="#FFB9B9" fill-rule="nonzero"/><path d="M54.35 56.816v1.018l42.755.525V57.31l-.06-.04-42.695-.454z" fill-opacity=".1" fill-rule="nonzero"/><path d="M47.792 37.637l-.23-.861s3.115 5.582 3.377 6.107c.263.524 4.722 4.984 5.247 5.77.357.51.801.954 1.311 1.312h4.984s1.049 3.41-.525 3.672c-1.574.263-6.557 1.312-7.607 1.312-1.049 0-7.606-6.033-7.606-6.033l1.049-11.279z" fill="#575A89" fill-rule="nonzero"/><path d="M46.743 75.671l1.573 22.033h-1.573l-1.837-22.558 1.837.525zm-19.149-2.623l1.574 22.033h-1.574l-1.836-22.558 1.836.525zm-2.885 2.623l1.574 22.033h-1.574l-1.836-22.558 1.836.525zm24.394-2.099l1.574 22.034h-1.574l-1.836-22.558 1.836.524z" fill="#3F3D56" fill-rule="nonzero"/><path d="M18.676 45.506l4.459 32.001 26.493-1.049-.178-2.954-.347-5.702-20.459 1.049-3.41-23.345h-6.558z" fill="#3F3D56" fill-rule="nonzero"/><path d="M18.676 45.506l4.459 32.001 26.493-1.049-.178-2.954c-5.53.213-24.216-.981-24.216-.981 0-4.186-3.678-20.575-5.163-27.017h-1.395z" fill-opacity=".1" fill-rule="nonzero"/><path d="M65.104 84.327s.787 6.033 2.361 7.082c1.574 1.049-6.558 2.361-6.558 2.361l-.525-7.869 4.722-1.574zM38.611 86.95s-1.311 1.574-1.574 2.623c-.262 1.049-4.197 1.574-4.197 1.574l-2.885-3.148s3.672-3.147 4.722-3.147c1.049 0 3.934 2.098 3.934 2.098z" fill="#FFB9B9" fill-rule="nonzero"/><circle cx="45.562" cy="26.489" r="6.295" fill="#FFB9B9"/><path d="M47.267 30.817s-3.147 6.033-2.623 7.082c.525 1.049-6.82-4.984-6.82-4.984s2.623-4.197 2.623-5.508c0-1.312 6.82 3.41 6.82 3.41z" fill="#FFB9B9" fill-rule="nonzero"/><path d="M44.382 61.769s20.197-3.148 20.984 4.197c.787 7.344 3.673 16.787 3.935 17.574.262.787-8.656 5.246-9.705 3.672-1.05-1.574-2.886-14.164-2.361-15.213.524-1.05.787-2.361-.262-2.099-1.05.262-12.591 2.623-14.952 1.836-2.361-.787-8.394-11.279-8.394-11.279l10.755 1.312z" fill="#2F2E41" fill-rule="nonzero"/><path d="M44.382 61.769s20.197-3.148 20.984 4.197c.787 7.344 3.673 16.787 3.935 17.574.262.787-8.656 5.246-9.705 3.672-1.05-1.574-2.886-14.164-2.361-15.213.524-1.05.787-2.361-.262-2.099-1.05.262-12.591 2.623-14.952 1.836-2.361-.787-8.394-11.279-8.394-11.279l10.755 1.312z" fill-opacity=".1" fill-rule="nonzero"/><path d="M44.906 60.195l-.786 6.558s12.59 4.721 7.869 12.328c-4.722 7.607-9.968 11.804-9.968 11.804s-8.394-4.722-8.394-6.033c0-1.312 10.23-8.657 8.919-8.657-1.312 0-20.198-1.049-16.263-11.541 3.934-10.492 18.623-4.459 18.623-4.459zm20.46 31.476s2.099-2.36 2.099-1.836c0 .525 6.033 3.673 7.082 3.935 1.049.262 2.623.787.525 1.574-2.099.787-15.476 1.049-15.476.524 0-.524-.525-5.508.524-4.983 1.049.524 4.984 1.836 5.246.786zm-30.952-1.836s2.886-.787 3.148 0 .525 3.935 2.885 4.984c2.361 1.049 3.148 2.623 0 2.885-3.147.263-11.803-5.77-11.803-6.819 0-1.05 1.049-4.197 1.573-3.935.525.262 1.837 2.623 4.197 2.885z" fill="#2F2E41" fill-rule="nonzero"/><path fill="#3F3D56" d="M70.35 93.245h12.066v4.721H70.35z"/><path d="M37.824 31.341s.982-2.625 2.721-1.05c1.738 1.575 5.148 5.51 5.148 5.51s2.099.786 2.886 2.098c.787 1.312.787 9.968-.787 12.853s-1.574 7.869-2.099 9.181c-.524 1.311 0 2.623-1.836 2.623s1.049-2.099-4.984 0c-6.033 2.098-12.852 4.721-13.377 2.885-.525-1.836.787-2.885 0-3.672-.787-.787 0-1.05.525-2.886.524-1.836 1.049-2.098 1.311-4.459.262-2.361 0-4.721.525-5.771.524-1.049.524-2.623.524-5.246s1.574-7.869 4.459-9.443c2.886-1.573 4.984-2.623 4.984-2.623z" fill="#575A89" fill-rule="nonzero"/><path d="M51.709 19.489c-1.462-1.428-2.999-2.901-4.945-3.523-2.598-.829-5.495.041-7.731 1.602-.483.337-.955.718-1.245 1.23-.266.469-.359 1.014-.444 1.547-.296 1.878-.54 3.78-.395 5.675.146 1.895.704 3.799 1.871 5.299a10.93 10.93 0 0 0 2.332-3.841c.133-.378.252-.776.521-1.074.268-.297.74-.457 1.077-.24.468.301.409 1.106.903 1.362.17.076.359.096.54.056 1.289-.222 1.737-1.8 2.576-2.803 1.235-1.478 2.965-1.385 4.654-1.809 1.96-.493 1.475-2.321.286-3.481z" fill="#2F2E41" fill-rule="nonzero"/><ellipse cx="62.362" cy="53.862" rx="5.392" ry="1.172" fill="#6C63FF"/><path d="M62.805 53.994l.105-5.582c.024-1.248-.021-2.663-.949-3.499-.587-.528-1.468-.754-1.836-1.452-.201-.381-.205-.83-.204-1.26l.015-7.597" fill="none" stroke="#6C63FF" stroke-width=".77"/><path d="M58.846 33.467c0-.686.564-1.25 1.25-1.25s1.25.564 1.25 1.25v2.344c0 .686-.564 1.25-1.25 1.25s-1.25-.564-1.25-1.25v-2.344z" fill="#6C63FF"/><path d="M52.894 52.763s8.693-2.306 9.402-.322c.71 1.983-7.422 3.819-7.422 3.819h-3.41l1.43-3.497z" fill="#FFB9B9" fill-rule="nonzero"/><path d="M34.677 35.538s3.934 2.886 4.983 7.082c1.05 4.197 1.837 8.657 1.837 8.657l12.066 1.573s1.049 4.197-.525 4.46c-1.574.262-13.378 1.049-15.214 0-1.836-1.05-8.131-14.165-7.869-15.476.262-1.312.787-6.033 4.722-6.296z" fill="#575A89" fill-rule="nonzero"/></g></svg>