<svg xmlns="http://www.w3.org/2000/svg" fill-rule="evenodd" stroke-linejoin="round" stroke-miterlimit="1.414" clip-rule="evenodd" viewBox="0 0 40 40"><path fill="#283442" d="M36.917 36.396a2.65 2.65 0 0 0-1.274.325 2.664 2.664 0 0 0-2.483-1.709c-.733 0-1.398.298-1.879.778a2.654 2.654 0 0 0-2.976-.54v-4.61a2.662 2.662 0 0 0-2.66-2.659 2.662 2.662 0 0 0-2.659 2.659v8.579a.78.78 0 1 0 1.562 0v-8.578c0-.605.492-1.098 1.097-1.098a1.1 1.1 0 0 1 1.098 1.098v8.578a.781.781 0 0 0 1.562 0v-1.547a1.1 1.1 0 0 1 1.097-1.098 1.1 1.1 0 0 1 1.098 1.098v1.547a.781.781 0 0 0 1.562 0v-1.547a1.1 1.1 0 0 1 1.098-1.098c.605 0 1.097.493 1.097 1.098v1.547a.781.781 0 0 0 1.562 0v-.163a1.098 1.098 0 0 1 2.195 0 .781.781 0 0 0 1.562 0 2.662 2.662 0 0 0-2.659-2.66zm-19.925-.615H.781A.781.781 0 0 1 0 35V.781C0 .384.297.056.781 0h38.438c.484.056.781.384.781.781V35c0 .397-.297.725-.781.781h-2.302a.782.782 0 0 1-.782-.781c0-.397.297-.725.782-.781h1.521V7.187H1.641l-.078-.003v27.035h15.429c.485.056.781.384.781.781s-.296.725-.781.781zm3.873-1.333a.784.784 0 0 0-1.105 0 .788.788 0 0 0-.229.552.784.784 0 0 0 1.334.552.788.788 0 0 0 .229-.552.788.788 0 0 0-.229-.552zm10.193-13.641c.41.032.694.226.841.522l.896 1.817 2.004.292a.932.932 0 0 1 .757.638.93.93 0 0 1-.238.961l-1.451 1.414.342 1.996a.93.93 0 0 1-.373.917.928.928 0 0 1-.987.071l-1.793-.943-1.793.942a.932.932 0 0 1-.987-.071.932.932 0 0 1-.373-.917l.343-1.997-1.45-1.414a.933.933 0 0 1-.237-.961.932.932 0 0 1 .757-.638l2.004-.291.897-1.816h.001c.146-.297.431-.49.84-.522zm-11.059 0c.41.032.694.225.841.522l.897 1.816 2.004.291a.932.932 0 0 1 .757.638.929.929 0 0 1-.237.961l-1.45 1.414.343 1.997a.932.932 0 0 1-.373.917.932.932 0 0 1-.987.071l-1.793-.942-1.792.943a.935.935 0 0 1-.988-.071.93.93 0 0 1-.373-.917l.342-1.996-1.451-1.414a.93.93 0 0 1-.238-.961.932.932 0 0 1 .757-.638l2.005-.292.896-1.817c.146-.297.431-.49.84-.522zm-11.057 0c.409.032.694.225.841.522l.897 1.816 2.004.291a.932.932 0 0 1 .757.638c.111.342.02.71-.237.961l-1.45 1.414.343 1.996a.933.933 0 0 1-.373.918.932.932 0 0 1-.987.071l-1.793-.942-1.793.943a.934.934 0 0 1-.987-.071.933.933 0 0 1-.374-.917l.342-1.996-1.45-1.414a.93.93 0 0 1-.238-.961.932.932 0 0 1 .756-.638l2.005-.292.896-1.817c.147-.297.431-.49.841-.522zm23.6 4.754a.938.938 0 0 0-.27.83l.184 1.072-.963-.506a.932.932 0 0 0-.873-.001l-.962.506.184-1.072a.94.94 0 0 0-.27-.83l-.778-.759 1.076-.157a.935.935 0 0 0 .706-.512l.482-.976.481.976c.136.277.4.469.706.513l1.076.157-.779.759zm-22.114-.001a.938.938 0 0 0-.27.83l.185 1.072-.964-.506a.937.937 0 0 0-.872 0l-.963.507.184-1.072a.938.938 0 0 0-.27-.83l-.779-.759 1.076-.157a.934.934 0 0 0 .706-.513l.481-.976.482.975c.136.277.4.469.706.513l1.076.156-.778.76zm11.057 0a.936.936 0 0 0-.269.83l.184 1.072-.964-.506a.937.937 0 0 0-.872 0l-.962.507.183-1.072a.938.938 0 0 0-.269-.83l-.78-.759 1.077-.157a.938.938 0 0 0 .706-.513l.481-.976.481.975a.938.938 0 0 0 .706.513l1.077.156-.779.76zM35 19.217H5a.782.782 0 0 1-.781-.782V10c0-.397.296-.725.781-.781h30c.485.056.781.384.781.781v8.435c0 .398-.296.726-.781.782zm-.781-1.563v-6.873H5.781v1.875h11.568c.484.056.781.384.781.781 0 .398-.297.726-.781.782H5.781v3.435h28.438zm-12.807-4.769a.79.79 0 0 0-.553-.229.788.788 0 0 0-.552.229.788.788 0 0 0-.229.552c0 .206.084.408.229.553a.788.788 0 0 0 .552.229.79.79 0 0 0 .553-.229.789.789 0 0 0 .229-.553.788.788 0 0 0-.229-.552zM1.641 5.625h36.797l-.001-4.063H1.562v4.067l.079-.004zm10.161-2.584a.788.788 0 0 0-.552-.229.786.786 0 0 0-.781.782.784.784 0 0 0 .781.781.784.784 0 0 0 .552-1.334zm-3.125 0a.788.788 0 0 0-.552-.229.786.786 0 0 0-.781.782.784.784 0 0 0 .781.781.784.784 0 0 0 .552-1.334zm-3.125 0A.788.788 0 0 0 5 2.812a.786.786 0 0 0-.781.782.784.784 0 0 0 .781.781.784.784 0 0 0 .552-1.334zM35 2.812c.485.056.781.384.781.782 0 .431-.35.781-.781.781H17.349a.78.78 0 0 1-.781-.781c0-.398.296-.726.781-.782H35z"/></svg>
