<svg xmlns="http://www.w3.org/2000/svg" fill-rule="evenodd" stroke-linejoin="round" stroke-miterlimit="1.414" clip-rule="evenodd" viewBox="0 0 36 40"><path fill="#283442" d="M19.53 40H5.468A5.474 5.474 0 0 1 0 34.532V14.846c0-1.29 1.047-2.34 2.344-2.344h20.311a2.348 2.348 0 0 1 2.343 2.344v.793a8.575 8.575 0 0 1 2.344-.325c4.738 0 8.593 3.855 8.593 8.593 0 4.752-3.859 8.594-8.593 8.594-.801 0-1.585-.11-2.344-.325v2.356A5.476 5.476 0 0 1 19.53 40zm3.827-4.688H1.641a3.916 3.916 0 0 0 3.827 3.126H19.53a3.917 3.917 0 0 0 3.827-3.126zm-.702-21.248H2.344a.784.784 0 0 0-.781.782v18.905h21.873V14.846a.784.784 0 0 0-.781-.782zm4.687 16.874a7.038 7.038 0 0 0 7.031-7.031c0-3.876-3.154-7.03-7.031-7.03a6.99 6.99 0 0 0-2.344.401v2.565a4.693 4.693 0 0 1 7.031 4.064 4.687 4.687 0 0 1-4.687 4.688 4.666 4.666 0 0 1-2.344-.624v2.565a6.99 6.99 0 0 0 2.344.402zm-6.25-2.343a.781.781 0 1 0 0 1.563.781.781 0 0 0 0-1.563zm-.088-1.544a.793.793 0 0 0 .791-.8v-6.249c0-.442-.35-.8-.791-.8-.442 0-.769.358-.769.8v6.249c0 .441.327.8.769.8zm3.994-5.209a3.094 3.094 0 0 1 2.344-1.059 3.125 3.125 0 0 1 0 6.249c-.91 0-1.751-.383-2.344-1.059v-4.131zM17.563 4.806a2.672 2.672 0 0 0-1.192 2.228c0 .897.446 1.73 1.192 2.227a.8.8 0 1 0 .887-1.33 1.064 1.064 0 0 1-.48-.897c0-.367.175-.694.48-.897a2.674 2.674 0 0 0 1.192-2.228c0-.898-.446-1.73-1.192-2.228a.8.8 0 0 0-.887 1.331c.305.203.48.53.48.897s-.175.694-.48.897zm-10.936 0a2.67 2.67 0 0 0-1.193 2.228c0 .897.446 1.73 1.193 2.227a.798.798 0 1 0 .886-1.33 1.064 1.064 0 0 1-.48-.897c0-.367.175-.694.48-.897a2.672 2.672 0 0 0 1.192-2.228 2.67 2.67 0 0 0-1.192-2.228.8.8 0 0 0-.886 1.331c.304.203.479.53.479.897s-.175.694-.479.897zm5.468-1.625a2.701 2.701 0 0 0-1.193 2.259 2.7 2.7 0 0 0 1.193 2.259.8.8 0 0 0 .887-1.331 1.09 1.09 0 0 1-.48-.928c0-.387.175-.725.48-.928a2.638 2.638 0 0 0 1.192-2.189c0-.873-.446-1.691-1.192-2.189a.801.801 0 0 0-.887 1.331c.305.203.48.516.48.858 0 .342-.175.655-.48.858z"/></svg>
