<svg viewBox="0 0 66 53" xmlns="http://www.w3.org/2000/svg" fill-rule="evenodd" clip-rule="evenodd" stroke-linejoin="round" stroke-miterlimit="1.414"><path d="M66 4c0-2.208-1.792-4-4-4H4C1.792 0 0 1.792 0 4v11h66V4z" fill="#546a79"/><circle cx="8.007" cy="7.5" r="3.357" fill="#ed7161"/><circle cx="18.006" cy="7.5" r="3.357" fill="#f0c419"/><circle cx="27.957" cy="7.5" r="3.357" fill="#4fba6f"/><path d="M0 15h33v38H4.4C1.972 53 0 51.297 0 49.2V15z" fill="#d7d7e6"/><path d="M66 15H33v38h28.6c2.428 0 4.4-1.703 4.4-3.8V15z" fill="#e6e6f0"/><path fill="#fff" fill-opacity=".7" d="M5.551 19.95h54v10h-54zM5.551 34.95h22v4h-22zM37.551 34.95h22v4h-22zM5.551 43.95h22v4h-22zM37.551 43.95h22v4h-22z"/></svg>
