<svg viewBox="0 0 71 100" xmlns="http://www.w3.org/2000/svg" fill-rule="evenodd" clip-rule="evenodd" stroke-linejoin="round" stroke-miterlimit="1.414"><path d="M6.602 0h4.492v4.453h4.14V0h4.493v13.477h-4.493V8.984h-4.101v4.493H6.602m19.062-8.985h-3.965V0h12.442v4.492h-3.985v8.985h-4.492M36.113 0h4.707l2.891 4.746L46.602 0h4.707v13.477h-4.493v-6.68l-3.144 4.844-3.145-4.844v6.68h-4.414M53.535 0h4.492v9.023h6.368v4.454h-10.86" fill="#283442" fill-rule="nonzero"/><path d="M6.445 91.992L0 19.648h70.859l-6.445 72.305L35.371 100" fill="#e44d26" fill-rule="nonzero"/><path d="M35.43 93.848V25.586h28.965l-5.528 61.719" fill="#f16529" fill-rule="nonzero"/><path d="M13.164 34.434H35.43v8.867H22.891l.82 9.082H35.43v8.847H15.586m.391 4.454h8.906l.625 7.089 9.922 2.657v9.258l-18.203-5.079" fill="#ebebeb" fill-rule="nonzero"/><path d="M57.617 34.434H35.391v8.867h21.406m-.801 9.082H35.391v8.867h10.937l-1.035 11.523-9.902 2.657v9.218l18.164-5.039" fill="#fff" fill-rule="nonzero"/></svg>
