<svg xmlns="http://www.w3.org/2000/svg" fill-rule="evenodd" stroke-linejoin="round" stroke-miterlimit="1.414" clip-rule="evenodd" viewBox="0 0 40 40"><path fill="#283442" d="M20.532 38.666a.788.788 0 0 0-.552-.229.79.79 0 0 0-.553.229.79.79 0 0 0-.229.553c0 .205.084.407.229.552a.79.79 0 0 0 .553.229.788.788 0 0 0 .552-.229.788.788 0 0 0 .229-.552.79.79 0 0 0-.229-.553zM16.38 40H7.81a.782.782 0 0 1-.782-.781v-2.344H.781C.297 36.819 0 36.491 0 36.094v-5.252a5.422 5.422 0 0 1 4.175-5.29l2.606-.622v-1.034a5.157 5.157 0 0 1-2.41-4.361v-2.911a5.162 5.162 0 0 1 5.157-5.156c1.54 0 2.924.679 3.869 1.753.815-2.844 3.42-4.939 6.611-4.984 3.186.045 5.787 2.134 6.607 4.971a5.141 5.141 0 0 1 3.858-1.74 5.162 5.162 0 0 1 5.156 5.156v2.911a5.157 5.157 0 0 1-2.41 4.361v1.034l2.606.622A5.422 5.422 0 0 1 40 30.842v5.252c0 .397-.297.725-.781.781h-6.263v2.344c0 .397-.297.725-.782.781h-8.893a.781.781 0 0 1-.781-.781c0-.398.297-.726.781-.782h3.827v-3.438a.78.78 0 1 1 1.562 0v3.438h2.723v-2.038a.777.777 0 0 1 0-.611v-.872a5.687 5.687 0 0 0-4.38-5.549l-3.831-.915-2.47 5.616c-.112.254-.348.427-.715.467a.78.78 0 0 1-.715-.467l-2.473-5.625-3.842.921a5.687 5.687 0 0 0-4.376 5.549v3.524h2.739v-3.438a.781.781 0 0 1 1.562 0v3.438h3.488c.485.056.781.384.781.782 0 .397-.296.725-.781.781zm-9.352-4.688v-.399c0-1.713.592-3.305 1.603-4.561l-1.617-3.871-2.476.591a3.864 3.864 0 0 0-2.975 3.77v4.47h1.562v-3.471a.781.781 0 0 1 1.563 0v3.471h2.34zm31.41 0v-4.47a3.864 3.864 0 0 0-2.976-3.77l-2.482-.593-1.622 3.882a7.255 7.255 0 0 1 1.598 4.555v.396h2.357v-3.471a.78.78 0 1 1 1.562 0v3.471h1.563zm-16.49-7.936l-1.951 4.436-1.954-4.445v-1.611a6.856 6.856 0 0 0 3.905.007v1.613zm7.341-1.75a.808.808 0 0 0 .005-.085v-.987a5.146 5.146 0 0 0 2.362-.001v.993a.59.59 0 0 0 .002.043l-1.193 2.856-1.176-2.819zM9.528 28.445l-1.187-2.842a.544.544 0 0 0 .003-.057v-.993a5.13 5.13 0 0 0 2.362.001v.943l-.001.044c0 .025.002.049.005.074l-1.182 2.83zm17.848-.598l-2.471-.59c.186-.077.378-.14.575-.187l2.471-.592.764 1.83a7.37 7.37 0 0 0-1.339-.461zm-14.773-.002c-.461.11-.902.264-1.321.454l.761-1.822 2.477.593c.192.046.379.107.56.181l-2.477.594zm10.907-2.764v1.141a5.426 5.426 0 0 1 1.606-.671l2.615-.627v-1.025a5.193 5.193 0 0 1-1.606-1.596c-.578 1.125-1.458 2.069-2.615 2.778zm-7.029 1.135a5.436 5.436 0 0 0-1.597-.665l-2.615-.627v-1.025a5.175 5.175 0 0 0 1.614-1.609 6.927 6.927 0 0 0 2.598 2.777v1.149zm3.527-1.736a5.319 5.319 0 0 1-5.313-5.312v-1.807h2.199a7.459 7.459 0 0 0 5.28-2.183l3.142 1.846v2.327a5.317 5.317 0 0 1-5.308 5.129zm11.824-6.022c-1.783-.015-3.442-.41-4.949-1.151 0 0-.002 2.021-.004 2.101v.127a3.598 3.598 0 0 0 3.593 3.594 3.598 3.598 0 0 0 3.594-3.594v-1.077h-2.234zM5.934 19.535v-1.077h2.234c1.722 0 3.416-.396 4.953-1.153v2.23a3.598 3.598 0 0 1-3.593 3.594 3.598 3.598 0 0 1-3.594-3.594zm15.57 1.39a.782.782 0 0 0-1.105 0 .593.593 0 0 1-.838 0 .782.782 0 0 0-1.105 1.105c.42.42.972.63 1.524.63a2.15 2.15 0 0 0 1.524-.63.782.782 0 0 0 0-1.105zm-3.572-2.63a.788.788 0 0 0-.552-.229.79.79 0 0 0-.553.229.79.79 0 0 0-.229.553c0 .205.084.407.229.552a.79.79 0 0 0 .553.229.784.784 0 0 0 .552-1.334zm5.224 0a.788.788 0 0 0-.552-.229.786.786 0 0 0-.781.782.784.784 0 0 0 .781.781.784.784 0 0 0 .552-1.334zM8.168 16.896c1.75-.017 3.374-.459 4.809-1.283a3.601 3.601 0 0 0-3.449-2.583 3.598 3.598 0 0 0-3.594 3.594v.272h2.234zm25.898 0v-.272a3.598 3.598 0 0 0-3.594-3.594 3.602 3.602 0 0 0-3.449 2.582 9.647 9.647 0 0 0 4.809 1.284h2.234zm-17.172-1.098c1.816-.029 3.427-.796 4.533-2.116a.78.78 0 0 1 .994-.171l2.9 1.703v-.102A5.319 5.319 0 0 0 20.008 9.8a5.319 5.319 0 0 0-5.313 5.312v.686h2.199zM6.026 5.846a.781.781 0 0 0-.781.781v.536a.782.782 0 1 0 1.562 0v-.536a.781.781 0 0 0-.781-.781zm27.905 0a.782.782 0 0 0-.782.781v.536a.782.782 0 1 0 1.563 0v-.536a.781.781 0 0 0-.781-.781zM20 2.976a.78.78 0 0 0-.781.781v2.055a.782.782 0 1 0 1.562 0V3.757A.78.78 0 0 0 20 2.976zm12.303 1.243a.781.781 0 0 1 0 1.562h-.536a.781.781 0 0 1 0-1.562h.536zm3.791 0a.781.781 0 0 1 0 1.562h-.536a.78.78 0 1 1 0-1.562h.536zm-31.695 0a.781.781 0 0 1 0 1.562h-.536a.78.78 0 1 1 0-1.562h.536zm3.79 0a.782.782 0 1 1 0 1.562h-.535a.782.782 0 1 1 0-1.562h.535zm9.073-1.085l-1.143-1.143a.782.782 0 0 0-1.105 1.105l1.143 1.143a.78.78 0 0 0 1.105 0 .782.782 0 0 0 0-1.105zm7.724-1.186a.782.782 0 0 0-1.105 0L22.7 3.13a.779.779 0 0 0 .552 1.333c.2 0 .4-.076.552-.229l1.182-1.181a.782.782 0 0 0 0-1.105zm8.945.107a.782.782 0 0 0-.782.782v.536a.782.782 0 0 0 1.563 0v-.536a.782.782 0 0 0-.781-.782zm-27.905 0a.782.782 0 0 0-.781.782v.536a.781.781 0 0 0 1.562 0v-.536a.781.781 0 0 0-.781-.782zM20.552.229A.788.788 0 0 0 20 0a.784.784 0 0 0-.552 1.334.787.787 0 0 0 .552.228.787.787 0 0 0 .552-.228.784.784 0 0 0 0-1.105z"/></svg>
