<svg viewBox="0 0 81 80" xmlns="http://www.w3.org/2000/svg" fill-rule="evenodd" clip-rule="evenodd" stroke-linejoin="round" stroke-miterlimit="1.414"><path d="M40 0h.113c22.076 0 40 17.923 40 40s-17.924 40-40 40H40V0z" fill="#b295e2"/><path d="M40.113 0H40C17.923 0 0 17.923 0 40s17.923 40 40 40h.113V0z" fill="#a479e2"/><path d="M46.674 79.445a40.418 40.418 0 0 1-12.809.088c-1.346-5.793-3.928-21.053-2.662-25.652 1.135-4.114 7.638-4.681 9.057-4.681 1.418 0 7.921.567 9.056 4.681 1.264 4.576-1.29 19.707-2.642 25.564zM40 4.029c-20 0-36.269 16.27-36.269 36.27 0 16.091 10.535 29.769 25.071 34.501-.309-1.693-.63-3.59-.921-5.561-11.3-4.749-19.257-15.935-19.257-28.94C8.624 22.997 22.699 8.924 40 8.924c17.3 0 31.375 14.073 31.375 31.375 0 12.79-7.695 23.82-18.699 28.7a161.256 161.256 0 0 1-.924 5.615c14.25-4.895 24.517-18.428 24.517-34.315 0-20-16.271-36.27-36.269-36.27zm0 12.31c-13.211 0-23.959 10.748-23.959 23.96 0 8.383 4.33 15.776 10.872 20.058-.133-2.318-.121-4.437.107-6.111-3.742-3.481-6.084-8.446-6.084-13.948 0-10.512 8.551-19.064 19.064-19.064 10.511 0 19.065 8.552 19.065 19.064 0 5.276-2.157 10.058-5.631 13.512.279 1.649.315 3.801.194 6.18 6.238-4.325 10.331-11.54 10.331-19.692 0-13.211-10.749-23.959-23.959-23.959zm0 12.253c4.776 0 8.654 3.878 8.654 8.655 0 4.777-3.878 8.655-8.654 8.655-4.777 0-8.655-3.878-8.655-8.655 0-4.777 3.878-8.655 8.655-8.655z" fill="#f2f2f2"/></svg>
