<svg xmlns="http://www.w3.org/2000/svg" fill-rule="evenodd" stroke-linejoin="round" stroke-miterlimit="1.414" clip-rule="evenodd" viewBox="0 0 45 40"><path fill="#283442" d="M6.609 40H24a.87.87 0 0 0 .87-.87v-7.25a3.049 3.049 0 0 0 1.739-2.75 3.048 3.048 0 0 0-3.044-3.043h-.435V23.9a4.32 4.32 0 0 1 1.274-3.074l3.031-3.031a6.06 6.06 0 0 0 .88-1.115c2.435-.31 4.115-.604 5.178-.908a4.346 4.346 0 0 0 5.434.895l5.164-3.017a.87.87 0 0 0 0-1.502l-5.16-3.013a4.349 4.349 0 0 0-5.628 1.12c-1.108-.301-2.866-.597-5.329-.897a6.061 6.061 0 0 0-3.104-2.147V3.043A3.047 3.047 0 0 0 21.826 0c-.851 0-1.621.352-2.174.916A3.038 3.038 0 0 0 17.478 0a3.05 3.05 0 0 0-2.896 2.108 3.028 3.028 0 0 0-1.452-.369 3.05 3.05 0 0 0-2.896 2.108 3.042 3.042 0 0 0-4.495 2.675v3.222C3.722 10.186 0 11.093 0 13.043c0 1.465 1.88 2.564 5.739 3.353 0 1.308.34 2.667 1.039 4.153.458.974.7 2.058.7 3.134v2.404h-.435A3.046 3.046 0 0 0 4 29.13c0 1.212.712 2.26 1.739 2.75v7.25c0 .481.389.87.87.87zm.434-12.174h16.522c.719 0 1.305.585 1.305 1.304 0 .72-.586 1.305-1.305 1.305h-4.782a.87.87 0 1 0 0 1.739h4.347v6.087H7.478v-6.087h4.348a.872.872 0 0 0 .87-.87.871.871 0 0 0-.87-.869H7.043a1.308 1.308 0 0 1-1.304-1.305c0-.719.585-1.304 1.304-1.304zm8.261 2.609a.87.87 0 1 1 0 1.74.87.87 0 0 1 0-1.74zm2.435-21.739h5.391a4.346 4.346 0 0 1 4.348 4.347v.449c0 .685-.166 1.371-.479 1.984a4.313 4.313 0 0 1-.794 1.089l-3.031 3.031a6.046 6.046 0 0 0-1.783 4.304v2.187H9.217v-2.404c0-1.33-.299-2.67-.865-3.875-.529-1.125-.813-2.143-.864-3.099 2.634.413 5.734.65 8.905.679a7.016 7.016 0 0 0 .094 3.812.87.87 0 0 0 1.66-.518c-.941-3.02.997-6.54 4.859-6.771a.87.87 0 0 0-.051-1.737h-5.216A1.743 1.743 0 0 1 16 10.435c0-.97.798-1.739 1.739-1.739zm-10.97 6.128c2.906.534 6.555.828 10.274.828h.065a6.946 6.946 0 0 1 1.42-1.739h-.789a3.481 3.481 0 0 1-3.188-2.09 3.047 3.047 0 0 1-3.186-.216 3.041 3.041 0 0 1-2.582 1.436 3.054 3.054 0 0 1-2.678-1.599c-3.028.662-4.117 1.339-4.342 1.618.206.299 1.409 1.102 5.006 1.762zm31.284.339l3.875-2.264-3.87-2.26c-1.725-.995-3.911.243-3.911 2.26 0 1.988 2.166 3.268 3.906 2.264zm-8.985-.337c1.538-.212 2.721-.419 3.541-.618a4.375 4.375 0 0 1-.073-2.356c-.827-.201-2.028-.407-3.593-.617a6.08 6.08 0 0 1 .274 1.808v.448c0 .449-.051.897-.149 1.335zM8.783 5.217c-.722 0-1.305.583-1.305 1.305V10a1.306 1.306 0 0 0 2.609 0V6.522c0-.719-.585-1.305-1.304-1.305zm4.347-1.739c-.719 0-1.304.586-1.304 1.305V9.13a1.306 1.306 0 0 0 2.609 0V4.783c0-.719-.585-1.305-1.305-1.305zm4.348-1.739c-.719 0-1.304.585-1.304 1.304v4.281a3.496 3.496 0 0 1 1.565-.367h1.044V3.043c0-.719-.586-1.304-1.305-1.304zm3.044 5.218V3.043c0-.719.585-1.304 1.304-1.304.719 0 1.304.585 1.304 1.304v3.914h-2.608z"/></svg>
