<svg xmlns="http://www.w3.org/2000/svg" fill-rule="evenodd" stroke-linejoin="round" stroke-miterlimit="1.414" clip-rule="evenodd" viewBox="0 0 41 40"><path fill="#283442" d="M35.079 40H4.922C2.254 40 0 37.853 0 35.312s2.254-4.687 4.922-4.687c2.069 0 3.97 1.327 4.648 3.135.451-.032.905.014 1.339.138a4.656 4.656 0 0 1 3.623-1.711c.541 0 1.067.092 1.562.267v-4.458l-.878-1.755-2.378 3.567a.781.781 0 0 1-1.412-.261l-1.085-4.804c-.769-2.361.025-4.893 1.94-6.171.394-.263.816-.47 1.258-.621l-.351-2.401-.002-.016c-.193-1.545-.252-3.855.162-5.707.855-3.821 3.141-7.21 6.077-9.585l.065-.053a.786.786 0 0 1 .966-.044c.025.018 2.457 1.787 4.344 5.024 1.798 3.09 2.416 7.152 1.968 10.742l-.002.017-.298 2.024c.44.152.859.358 1.252.62 1.915 1.278 2.709 3.81 1.94 6.17l-1.085 4.805a.78.78 0 0 1-1.412.261l-2.378-3.568-.878 1.756v4.457a4.66 4.66 0 0 1 1.562-.266c1.425 0 2.738.63 3.623 1.711.434-.124.887-.17 1.339-.138.678-1.808 2.579-3.135 4.648-3.135 2.668 0 4.922 2.146 4.922 4.687 0 2.514-2.206 4.643-4.922 4.688zM22.344 28.593h-4.687v7.501a.782.782 0 0 1-1.563 0V34.17a3.07 3.07 0 0 0-1.562-.42c-.838 0-1.618.327-2.195.899.093.078.183.16.27.246a.782.782 0 0 1-1.107 1.103 2.347 2.347 0 0 0-2.283-.601l-.002.001a2.33 2.33 0 0 0-1.027.601.783.783 0 0 1-1.106-1.104 3.89 3.89 0 0 1 .975-.712c-.495-1.142-1.78-1.996-3.135-1.996-1.79 0-3.36 1.46-3.36 3.125s1.57 3.125 3.36 3.125h30.157c1.848-.055 3.36-1.491 3.36-3.125 0-1.665-1.57-3.125-3.36-3.125-1.355 0-2.64.854-3.135 1.996.358.185.689.424.975.712a.78.78 0 1 1-1.105 1.104 2.34 2.34 0 0 0-3.313-.001.78.78 0 1 1-1.107-1.103 4.47 4.47 0 0 1 .27-.246 3.101 3.101 0 0 0-2.195-.899c-.557 0-1.09.143-1.562.417v1.927a.781.781 0 0 1-1.563 0v-7.501zm3.891-9.056c.214.092.421.203.618.335 1.319.88 1.871 2.737 1.312 4.415a1.05 1.05 0 0 0-.021.075l-.691 3.063-1.948-2.922.73-4.966zm-13.686 7.888l-.692-3.063a.82.82 0 0 0-.021-.075c-.559-1.678-.007-3.535 1.312-4.415.198-.132.406-.244.623-.337l.725 4.968-1.947 2.922zm10.094-.394l1.29-2.581 1.286-8.741c.327-2.632.002-5.483-.873-7.84a7.044 7.044 0 0 1-4.345 1.505 7.044 7.044 0 0 1-4.389-1.539c-.313.76-.562 1.541-.739 2.333-.305 1.363-.359 3.389-.137 5.164l1.252 8.574h2.45c.485.056.781.384.781.781s-.296.725-.781.781h-1.861l.781 1.563h5.285zm-1.08-3.125a.781.781 0 1 0 0 1.563.781.781 0 0 0 0-1.563zm-1.562-12.501a3.912 3.912 0 0 0-3.907 3.907 3.911 3.911 0 0 0 3.907 3.906 3.91 3.91 0 0 0 3.906-3.906 3.911 3.911 0 0 0-3.906-3.907zm0 6.25a2.346 2.346 0 0 1-2.344-2.343 2.346 2.346 0 0 1 2.344-2.344 2.346 2.346 0 0 1 2.343 2.344 2.346 2.346 0 0 1-2.343 2.343zm0-3.125a.782.782 0 1 0 0 1.564.782.782 0 0 0 0-1.564zm.008-12.74c1.456 1.249 2.833 2.988 3.677 4.592a5.484 5.484 0 0 1-3.685 1.429 5.48 5.48 0 0 1-3.693-1.436 16.781 16.781 0 0 1 3.701-4.585z"/></svg>
