<svg xmlns="http://www.w3.org/2000/svg" fill-rule="evenodd" stroke-linejoin="round" stroke-miterlimit="1.414" clip-rule="evenodd" viewBox="0 0 36 40"><path fill="#283442" d="M11.118 25.109a7.752 7.752 0 0 0-3.31-.734A7.804 7.804 0 0 0 2.674 26.3C.404 28.28-.513 31.356.281 34.327 1.189 37.72 4.252 40 7.809 40c4.299-.001 6.223-2.882 8.26-5.933.544-.815 1.102-1.651 1.724-2.464 4.382 6.145 6.393 8.392 10.126 8.391 3.803 0 7.173-2.628 7.868-6.277.517-2.708-.369-5.427-2.37-7.273a7.79 7.79 0 0 0-5.296-2.069c-1.15 0-2.259.244-3.296.727-.729.34-1.534.252-2.092-.195l10.749-14.504a8.719 8.719 0 0 0 .197-9.959C33.651.416 33.47.018 32.993 0a.781.781 0 0 0-.645.302L17.954 18.827 3.582.302a.783.783 0 0 0-1.268.046 8.724 8.724 0 0 0 .272 10.059A606.692 606.692 0 0 1 13.133 24.98c-.551.391-1.314.455-2.015.129zm3.651 8.09c-1.953 2.926-3.497 5.238-6.96 5.238-2.878 0-5.296-1.814-6.019-4.514-.639-2.391.094-4.861 1.911-6.446a6.243 6.243 0 0 1 4.107-1.54 6.2 6.2 0 0 1 2.647.587c1.219.571 2.575.446 3.577-.263 1.787 2.549 2.278 3.248 2.817 4.012-.775.973-1.437 1.964-2.08 2.926zm10.716-6.68a6.193 6.193 0 0 1 2.636-.582c1.575 0 3.079.588 4.237 1.656 1.601 1.477 2.309 3.657 1.895 5.832-.556 2.911-3.266 5.007-6.331 5.006-3.031 0-4.669-1.816-9.454-8.576h-.001c-.784-1.107-1.722-2.447-3.072-4.372-.502-.821-.303-2.018.466-2.788.056-.056.106-.12.127-.144.905-.665 2.23-.6 2.992.149l2.22 2.861c.984 1.282 2.745 1.675 4.285.958zm2.636 10.356a4.692 4.692 0 0 0 4.687-4.688 4.692 4.692 0 0 0-4.687-4.687 4.693 4.693 0 0 0-4.688 4.687 4.693 4.693 0 0 0 4.688 4.688zM7.808 27.5a4.693 4.693 0 0 0-4.687 4.687 4.693 4.693 0 0 0 4.687 4.688 4.693 4.693 0 0 0 4.688-4.688A4.693 4.693 0 0 0 7.808 27.5zm20.313 1.562a3.129 3.129 0 0 1 3.125 3.125 3.128 3.128 0 0 1-3.125 3.125 3.128 3.128 0 0 1-3.125-3.125 3.129 3.129 0 0 1 3.125-3.125zm-20.313 6.25a3.128 3.128 0 0 1-3.125-3.125 3.129 3.129 0 0 1 3.125-3.125 3.128 3.128 0 0 1 3.125 3.125 3.127 3.127 0 0 1-3.125 3.125zm11.585-8.298a.78.78 0 0 1 1.091.176l1.623 2.247a.782.782 0 0 1-1.267.915l-1.623-2.248a.78.78 0 0 1 .176-1.09zm-1.428-2.639a.782.782 0 1 0 0 1.563.782.782 0 0 0 0-1.563zm14.906-22.2a7.198 7.198 0 0 1-.647 7.302L21.708 23.666l-2.766-3.565L32.871 2.175zM3.069 2.19l14.227 18.339c-1.089.032-2.072.515-2.55 1.071-.452.456-.78.997-.976 1.57A603.77 603.77 0 0 0 3.838 9.472a7.17 7.17 0 0 1-.769-7.282z"/></svg>
