<?xml version="1.0" encoding="UTF-8" standalone="no"?><!DOCTYPE svg PUBLIC "-//W3C//DTD SVG 1.1//EN" "http://www.w3.org/Graphics/SVG/1.1/DTD/svg11.dtd"><svg width="100%" height="100%" viewBox="0 0 2235 326" version="1.1" xmlns="http://www.w3.org/2000/svg" xmlns:xlink="http://www.w3.org/1999/xlink" xml:space="preserve" xmlns:serif="http://www.serif.com/" style="fill-rule:evenodd;clip-rule:evenodd;stroke-linejoin:round;stroke-miterlimit:1.41421;"><g><path d="M0,0l460.494,31.098l604.782,-31.098l-3.825,325.837l-600.957,-57.681l-452.423,31.352l-8.071,-299.508Z" style="fill:#ff8200;"/><path d="M825.221,100.057c0.227,0.016 0.454,0.04 0.679,0.08c0.399,0.072 0.792,0.187 1.171,0.343c0.426,0.176 0.835,0.404 1.217,0.678c0.275,0.197 0.537,0.417 0.783,0.657c0.197,0.192 0.384,0.396 0.56,0.611c1.204,1.463 1.892,3.351 2.336,5.244c0.087,0.373 0.166,0.749 0.237,1.127c0.095,0.508 0.176,1.019 0.248,1.532c0.093,0.67 0.167,1.343 0.229,2.017c0.086,0.937 0.146,1.878 0.188,2.819c0.054,1.196 0.076,2.394 0.084,3.592c0.063,29.491 0.063,58.981 0,88.472c-0.009,1.338 -0.036,2.676 -0.104,4.013c-0.047,0.927 -0.113,1.854 -0.204,2.777c-0.066,0.664 -0.146,1.326 -0.243,1.985c-0.067,0.451 -0.143,0.901 -0.229,1.348c-0.073,0.375 -0.154,0.749 -0.243,1.12c-0.458,1.891 -1.169,3.773 -2.401,5.211c-0.181,0.21 -0.372,0.411 -0.573,0.598c-0.255,0.237 -0.526,0.454 -0.81,0.646c-0.389,0.262 -0.804,0.479 -1.236,0.642c-0.597,0.226 -1.224,0.348 -1.855,0.367c-0.585,0.017 -1.173,-0.041 -1.752,-0.135c-0.989,-0.161 -1.96,-0.44 -2.914,-0.765c-0.364,-0.124 -0.725,-0.26 -1.088,-0.388c-0.162,-0.056 -0.324,-0.11 -0.486,-0.162c-0.327,-0.103 -0.656,-0.199 -0.989,-0.274c-0.208,-0.046 -0.417,-0.087 -0.628,-0.106c-0.143,-0.013 -0.288,-0.008 -0.431,-0.005c-0.272,0.006 -0.543,0.019 -0.814,0.042c-0.806,0.068 -1.613,0.217 -2.378,0.513c-0.513,0.199 -1.006,0.468 -1.446,0.824c-0.177,0.144 -0.345,0.301 -0.502,0.471c-0.889,0.963 -1.39,2.277 -1.694,3.592c-0.053,0.227 -0.1,0.456 -0.141,0.686c-0.055,0.299 -0.101,0.6 -0.14,0.903c-0.058,0.443 -0.1,0.888 -0.13,1.334c-0.037,0.56 -0.055,1.12 -0.059,1.681c-0.014,2.282 0.257,4.604 1.086,6.71c0.126,0.32 0.264,0.635 0.415,0.941c0.19,0.387 0.401,0.761 0.63,1.121c0.41,0.642 0.881,1.239 1.4,1.777c0.513,0.531 1.077,1.001 1.685,1.389c0.6,0.382 1.241,0.683 1.905,0.902c0.829,0.274 1.69,0.421 2.553,0.474c0.294,0.018 0.589,0.026 0.884,0.022c0.548,-0.008 1.096,-0.048 1.643,-0.091c1.036,-0.082 2.07,-0.189 3.104,-0.302c1.626,-0.178 3.249,-0.376 4.872,-0.583c1.041,-0.132 2.081,-0.271 3.122,-0.404c0.379,-0.047 0.758,-0.092 1.137,-0.136c2.309,-0.26 4.623,-0.449 6.943,-0.533c1.969,-0.072 3.939,-0.062 5.908,-0.018c2.6,0.057 5.198,0.192 7.79,0.411c0.35,0.031 0.699,0.064 1.049,0.096c1.388,0.123 2.775,0.245 4.163,0.368c3.735,0.33 7.47,0.66 11.206,0.985c0.763,0.066 1.527,0.132 2.292,0.195c0.051,0.004 0.103,0.01 0.155,0.013c0.084,0.004 0.169,-0.002 0.254,-0.003c0.178,-0.004 0.356,-0.011 0.534,-0.02c0.646,-0.033 1.29,-0.104 1.927,-0.229c0.86,-0.168 1.709,-0.432 2.501,-0.842c0.462,-0.239 0.903,-0.529 1.309,-0.871c0.236,-0.199 0.459,-0.415 0.668,-0.647c1.041,-1.15 1.698,-2.655 2.119,-4.199c0.077,-0.279 0.145,-0.561 0.208,-0.844c0.08,-0.366 0.15,-0.735 0.21,-1.105c0.076,-0.469 0.138,-0.941 0.187,-1.415c0.062,-0.593 0.105,-1.188 0.132,-1.784c0.028,-0.629 0.041,-1.258 0.037,-1.888c-0.003,-0.517 -0.02,-1.034 -0.053,-1.55c-0.027,-0.41 -0.064,-0.819 -0.115,-1.227c-0.04,-0.32 -0.088,-0.64 -0.147,-0.957c-0.039,-0.207 -0.081,-0.413 -0.129,-0.617c-0.044,-0.188 -0.092,-0.375 -0.146,-0.56c-0.283,-0.985 -0.712,-1.956 -1.408,-2.665c-0.135,-0.137 -0.278,-0.263 -0.429,-0.377c-0.429,-0.327 -0.913,-0.554 -1.413,-0.713c-0.869,-0.277 -1.784,-0.354 -2.685,-0.347c-0.39,0.003 -0.781,0.019 -1.17,0.057c-0.278,0.027 -0.556,0.064 -0.83,0.126c-0.099,0.022 -0.198,0.047 -0.296,0.078c-0.081,0.025 -0.16,0.056 -0.239,0.084c-0.116,0.041 -0.161,0.056 -0.277,0.094c-0.139,0.044 -0.139,0.044 -0.278,0.086c-0.279,0.081 -0.559,0.154 -0.842,0.216c-1.012,0.22 -2.047,0.313 -3.077,0.31c-0.73,-0.002 -1.459,-0.117 -2.156,-0.354c-0.511,-0.174 -1.002,-0.411 -1.465,-0.707c-0.362,-0.232 -0.705,-0.498 -1.027,-0.795c-0.236,-0.217 -0.459,-0.451 -0.67,-0.698c-1.274,-1.488 -2.042,-3.41 -2.526,-5.367c-0.079,-0.319 -0.15,-0.64 -0.216,-0.963c-0.078,-0.387 -0.147,-0.776 -0.209,-1.166c-0.093,-0.584 -0.168,-1.171 -0.23,-1.76c-0.08,-0.754 -0.138,-1.511 -0.18,-2.269c-0.057,-1.031 -0.081,-2.063 -0.09,-3.095c-0.121,-41.664 0.325,-83.33 -0.003,-124.993c-0.009,-0.677 -0.043,-1.354 -0.133,-2.024c-0.053,-0.391 -0.124,-0.781 -0.225,-1.16c-0.032,-0.12 -0.067,-0.238 -0.106,-0.355c-0.033,-0.098 -0.069,-0.195 -0.108,-0.291c-0.113,-0.275 -0.256,-0.554 -0.467,-0.752c-0.065,-0.061 -0.136,-0.113 -0.212,-0.156c-0.207,-0.119 -0.44,-0.179 -0.669,-0.217c-0.229,-0.038 -0.461,-0.052 -0.692,-0.051c-0.361,0 -0.721,0.009 -1.082,0.024c-0.669,0.028 -1.338,0.076 -2.006,0.135c-1.537,0.135 -3.068,0.33 -4.598,0.544l-0.137,0.02c-0.124,0.032 -0.248,0.061 -0.373,0.092c-0.295,0.069 -0.295,0.069 -0.59,0.135c-0.711,0.152 -1.424,0.285 -2.141,0.395c-1.531,0.234 -3.074,0.371 -4.619,0.44c-1.117,0.05 -2.236,0.069 -3.354,0.044c-1.498,-0.033 -2.993,-0.137 -4.486,-0.266c-1.746,-0.152 -3.489,-0.344 -5.23,-0.555c-1.145,-0.14 -2.288,-0.29 -3.432,-0.432c-0.44,-0.053 -0.88,-0.106 -1.32,-0.157c-0.966,-0.111 -1.933,-0.218 -2.901,-0.303c-0.372,-0.033 -0.743,-0.063 -1.115,-0.085c-0.271,-0.017 -0.542,-0.032 -0.814,-0.031c-1.804,0.003 -3.638,0.295 -5.283,1.154c-0.298,0.156 -0.589,0.33 -0.871,0.522c-0.526,0.358 -1.017,0.78 -1.464,1.251c-0.589,0.62 -1.106,1.324 -1.533,2.089c-1.146,2.054 -1.616,4.477 -1.732,6.863c-0.017,0.348 -0.026,0.696 -0.029,1.044c-0.009,1.174 0.045,2.353 0.205,3.515c0.04,0.291 0.087,0.581 0.142,0.869c0.042,0.221 0.089,0.441 0.141,0.658c0.273,1.131 0.698,2.256 1.412,3.135c0.143,0.176 0.297,0.34 0.461,0.492c0.897,0.832 2.058,1.224 3.199,1.401c0.198,0.031 0.396,0.056 0.595,0.075c0.26,0.025 0.52,0.041 0.781,0.048c0.569,0.017 1.141,0.006 1.708,-0.05c0.402,-0.039 0.811,-0.096 1.197,-0.228c0.04,-0.014 0.078,-0.031 0.117,-0.047c0.176,-0.069 0.193,-0.075 0.369,-0.142c1.206,-0.45 2.44,-0.829 3.706,-1.003c0.463,-0.064 0.928,-0.096 1.394,-0.101c0.166,0.003 0.165,0.003 0.331,0.01Zm131.678,-18.032c0.317,0.011 0.633,0.032 0.949,0.074c0.682,0.089 1.358,0.258 2.009,0.518c0.71,0.282 1.39,0.671 2.016,1.163c0.47,0.369 0.909,0.795 1.309,1.268c0.296,0.35 0.572,0.726 0.824,1.123c0.195,0.307 0.377,0.625 0.544,0.954c1.088,2.126 1.584,4.611 1.773,7.073c0.031,0.408 0.055,0.816 0.07,1.225c0.019,0.48 0.026,0.961 0.027,1.442l0,20.359c-0.095,0.586 -0.098,1.204 -0.286,1.757c-0.187,0.554 -0.469,1.072 -0.816,1.5c-0.347,0.428 -0.771,0.781 -1.227,1.022c-0.929,0.489 -1.981,0.525 -2.932,0.101c-0.466,-0.209 -0.858,-0.607 -1.274,-0.936c-0.087,-0.068 -0.153,-0.169 -0.23,-0.253c-0.211,-0.231 -0.233,-0.254 -0.445,-0.483c-0.223,-0.238 -0.446,-0.475 -0.671,-0.71c-0.736,-0.766 -1.484,-1.513 -2.25,-2.237c-1.391,-1.315 -2.834,-2.552 -4.328,-3.693c-3.22,-2.458 -6.682,-4.464 -10.324,-5.846c-2.786,-1.057 -5.668,-1.742 -8.58,-2.044c-2.037,-0.211 -4.086,-0.226 -6.128,-0.108c-2.051,0.119 -4.096,0.387 -6.117,0.825c-2.108,0.458 -4.188,1.102 -6.212,1.947c-2.057,0.858 -4.053,1.925 -5.959,3.19c-1.582,1.049 -3.102,2.235 -4.547,3.539c-2.723,2.457 -5.176,5.328 -7.357,8.465c-2.108,3.033 -3.967,6.31 -5.555,9.768c-0.679,1.478 -1.309,2.988 -1.889,4.525c-0.501,1.326 -0.967,2.672 -1.396,4.034c-2.52,7.987 -3.812,16.471 -4.277,24.974c-0.07,1.275 -0.121,2.551 -0.156,3.828c-0.043,1.636 -0.059,3.273 -0.048,4.91c0.061,8.96 0.967,17.954 3.123,26.551c0.299,1.189 0.62,2.369 0.967,3.539c0.491,1.662 1.031,3.302 1.621,4.916c0.803,2.197 1.699,4.344 2.687,6.43c1.361,2.872 2.895,5.626 4.588,8.232c2.06,3.17 4.356,6.127 6.912,8.729c2.565,2.61 5.389,4.852 8.424,6.598c3.081,1.771 6.363,3.016 9.725,3.74c2.693,0.58 5.43,0.827 8.165,0.805c3.64,-0.028 7.291,-0.511 10.817,-1.62c1.765,-0.555 3.496,-1.265 5.169,-2.14c1.767,-0.924 3.467,-2.032 5.074,-3.309c2.804,-2.229 5.307,-4.97 7.479,-8.044c1.138,-1.611 2.187,-3.311 3.154,-5.074c0.444,-0.811 0.87,-1.637 1.282,-2.472l0.092,-0.188l1.146,-1.479l1.558,-0.763l1.682,0.097l1.491,0.937l1.022,1.603l0.364,1.97c0,3.57 -0.031,7.14 0.001,10.71c0.003,0.161 0.006,0.322 0.011,0.484c0.022,0.579 0.067,1.157 0.156,1.727c0.058,0.368 0.134,0.733 0.241,1.085c0.141,0.463 0.337,0.928 0.655,1.252c0.25,0.254 0.561,0.404 0.874,0.506c0.404,0.13 0.824,0.177 1.241,0.193l0.074,0.002l0.072,0.001c0.172,-0.017 0.344,-0.037 0.515,-0.058c1.921,-0.238 3.837,-0.529 5.756,-0.795c0.281,-0.036 0.561,-0.071 0.842,-0.105c3.151,-0.355 6.318,-0.454 9.481,-0.454c1.427,0 2.855,0.029 4.281,0.114c1.466,0.087 2.929,0.233 4.378,0.515l7.943,1.632c0.406,0 0.812,0.002 1.218,-0.001c0.134,-0.003 0.134,-0.003 0.267,-0.008c0.294,-0.015 0.588,-0.041 0.88,-0.087c0.523,-0.081 1.041,-0.219 1.54,-0.425c0.396,-0.163 0.78,-0.37 1.145,-0.617c0.934,-0.634 1.724,-1.534 2.376,-2.55c0.674,-1.051 1.212,-2.22 1.617,-3.453c0.146,-0.444 0.275,-0.896 0.388,-1.353c0.151,-0.609 0.275,-1.229 0.374,-1.853c0.119,-0.749 0.203,-1.505 0.26,-2.264c0.066,-0.896 0.093,-1.796 0.088,-2.695c-0.003,-0.547 -0.018,-1.093 -0.051,-1.638c-0.026,-0.435 -0.062,-0.868 -0.112,-1.3c-0.039,-0.339 -0.086,-0.677 -0.144,-1.013c-0.044,-0.26 -0.095,-0.519 -0.152,-0.776c-0.044,-0.196 -0.093,-0.391 -0.146,-0.585c-0.283,-1.027 -0.709,-2.034 -1.391,-2.764c-0.149,-0.159 -0.308,-0.304 -0.476,-0.434c-0.391,-0.301 -0.825,-0.517 -1.271,-0.671c-0.77,-0.265 -1.576,-0.359 -2.374,-0.367c-0.442,-0.005 -0.884,0.009 -1.324,0.051c-0.413,0.039 -0.83,0.101 -1.23,0.234c-0.089,0.031 -0.176,0.067 -0.264,0.101c-0.154,0.06 -0.309,0.118 -0.463,0.175c-1.348,0.484 -2.743,0.853 -4.157,0.852c-0.672,-0.001 -1.344,-0.116 -1.988,-0.349c-0.507,-0.184 -0.995,-0.441 -1.451,-0.763c-0.31,-0.219 -0.606,-0.467 -0.884,-0.741c-0.233,-0.229 -0.454,-0.477 -0.662,-0.739c-1.212,-1.526 -1.947,-3.5 -2.418,-5.508c-0.078,-0.336 -0.15,-0.674 -0.215,-1.015c-0.091,-0.468 -0.169,-0.938 -0.239,-1.411c-0.091,-0.623 -0.166,-1.248 -0.228,-1.875c-0.087,-0.876 -0.149,-1.756 -0.194,-2.636c-0.061,-1.192 -0.086,-2.385 -0.095,-3.579c-0.101,-43.114 0.089,-86.228 -0.002,-129.342c-0.007,-1.318 -0.05,-2.637 -0.172,-3.948c-0.054,-0.576 -0.123,-1.151 -0.216,-1.72c-0.08,-0.498 -0.178,-0.992 -0.306,-1.476c-0.084,-0.321 -0.181,-0.637 -0.301,-0.942c-0.087,-0.223 -0.186,-0.443 -0.311,-0.639c-0.201,-0.316 -0.482,-0.545 -0.774,-0.723c-0.483,-0.294 -1.013,-0.472 -1.543,-0.599c-1.103,-0.266 -2.234,-0.308 -3.355,-0.288c-0.962,0.016 -1.924,0.068 -2.884,0.13c-1.208,0.078 -2.415,0.177 -3.622,0.285c-0.953,0.085 -1.905,0.179 -2.858,0.265c-0.454,0.04 -0.909,0.079 -1.364,0.117c-1.372,0.109 -2.744,0.209 -4.118,0.27c-1.032,0.047 -2.066,0.076 -3.1,0.048c-1.455,-0.04 -2.909,-0.156 -4.361,-0.285c-1.908,-0.169 -3.814,-0.373 -5.719,-0.591c-0.564,-0.064 -1.128,-0.13 -1.692,-0.197c-0.282,-0.033 -0.563,-0.068 -0.845,-0.099c-0.199,-0.02 -0.398,-0.038 -0.598,-0.054c-0.963,-0.075 -1.929,-0.113 -2.894,-0.138c-1.135,-0.029 -2.27,-0.037 -3.405,-0.039c-0.148,0.001 -0.296,0.002 -0.444,0.004c-0.554,0.013 -1.107,0.04 -1.659,0.092c-0.442,0.042 -0.883,0.1 -1.322,0.176c-0.291,0.05 -0.582,0.109 -0.872,0.177c-0.27,0.063 -0.539,0.134 -0.806,0.215c-1.373,0.414 -2.722,1.076 -3.832,2.147c-0.175,0.169 -0.343,0.347 -0.504,0.534c-0.267,0.31 -0.512,0.645 -0.735,1.001c-0.84,1.339 -1.334,2.948 -1.617,4.576c-0.164,0.941 -0.26,1.898 -0.309,2.858c-0.067,1.3 -0.063,2.612 0.075,3.905c0.168,1.577 0.542,3.128 1.189,4.521c0.274,0.591 0.596,1.15 0.956,1.67c0.608,0.876 1.335,1.654 2.203,2.137c0.521,0.29 1.083,0.462 1.655,0.527c0.453,0.051 0.91,0.037 1.364,0.011c0.994,-0.058 1.983,-0.227 2.952,-0.495c0.431,-0.118 0.856,-0.259 1.278,-0.413l0.705,-0.173c1.084,-0.143 2.169,-0.281 3.255,-0.396c0.855,-0.091 1.711,-0.171 2.569,-0.194c0.178,-0.003 0.356,-0.003 0.535,0.001Zm-846.486,11.247c0.655,0.01 1.309,0.028 1.963,0.061c3.552,0.18 7.117,0.743 10.489,1.99c1.815,0.671 3.568,1.546 5.187,2.657c1.418,0.973 2.728,2.126 3.88,3.444c1.147,1.312 2.131,2.784 2.933,4.364c0.607,1.195 1.109,2.449 1.513,3.739c0.228,0.728 0.421,1.468 0.593,2.214c0.406,1.847 0.81,3.696 1.227,5.541c0.277,1.179 0.671,2.331 1.272,3.366c0.266,0.456 0.57,0.887 0.914,1.279c0.208,0.237 0.429,0.46 0.663,0.667c1.323,1.172 2.988,1.791 4.657,2.109c0.274,0.052 0.55,0.096 0.826,0.133c0.345,0.047 0.691,0.083 1.038,0.109c0.482,0.036 0.965,0.054 1.448,0.058c0.647,0.004 1.294,-0.014 1.94,-0.06c0.473,-0.033 0.945,-0.082 1.415,-0.148c0.373,-0.054 0.746,-0.119 1.115,-0.199c0.243,-0.052 0.485,-0.111 0.725,-0.176c1.457,-0.398 2.909,-1.068 3.963,-2.254c0.165,-0.186 0.32,-0.384 0.462,-0.591c0.869,-1.264 1.254,-2.835 1.409,-4.376c0.027,-0.265 0.047,-0.531 0.061,-0.797c0.018,-0.348 0.026,-0.696 0.027,-1.044c0,-0.501 0.005,-1.005 -0.004,-1.507c-0.006,-0.368 -0.022,-0.736 -0.042,-1.103c-0.043,-0.8 -0.108,-1.598 -0.182,-2.396c-0.088,-0.945 -0.194,-1.887 -0.292,-2.831c-0.032,-0.319 -0.063,-0.638 -0.094,-0.958c-0.136,-1.505 -0.258,-3.016 -0.267,-4.53c-0.005,-0.678 0.011,-1.357 0.034,-2.035c0.027,-0.824 0.069,-1.647 0.119,-2.47c0.098,-1.612 0.227,-3.222 0.371,-4.83c0.099,-1.111 0.209,-2.22 0.31,-3.331c0.045,-0.509 0.089,-1.018 0.131,-1.527c0.082,-1.011 0.158,-2.023 0.22,-3.036c0.039,-0.656 0.073,-1.312 0.098,-1.969c0.015,-0.395 0.027,-0.791 0.033,-1.187c0.006,-0.363 0.009,-0.726 -0.001,-1.089c-0.008,-0.294 -0.023,-0.587 -0.047,-0.879c-0.113,-1.349 -0.415,-2.732 -1.138,-3.862c-0.104,-0.162 -0.216,-0.318 -0.335,-0.467c-0.836,-1.038 -2.017,-1.666 -3.221,-2.061c-0.205,-0.067 -0.412,-0.128 -0.62,-0.183c-0.271,-0.072 -0.545,-0.135 -0.82,-0.19c-0.349,-0.069 -0.702,-0.126 -1.055,-0.171c-0.446,-0.058 -0.894,-0.099 -1.343,-0.126c-0.554,-0.034 -1.11,-0.047 -1.665,-0.043c-0.78,0.006 -1.56,0.045 -2.335,0.141c-0.573,0.07 -1.143,0.17 -1.703,0.32c-0.397,0.106 -0.789,0.236 -1.166,0.405c-0.294,0.132 -0.58,0.288 -0.843,0.482c-0.183,0.136 -0.355,0.289 -0.503,0.468c-0.233,0.283 -0.412,0.616 -0.565,0.955c-0.238,0.53 -0.413,1.093 -0.555,1.661c-0.2,0.794 -0.335,1.607 -0.435,2.422c-0.137,1.125 -0.203,2.257 -0.236,3.39l-0.369,1.681l-0.95,1.393l-1.381,0.885l-1.592,0.234l-1.551,-0.451c-0.422,-0.356 -0.854,-0.697 -1.264,-1.067c-0.078,-0.07 -0.132,-0.166 -0.197,-0.249c-0.063,-0.078 -0.126,-0.157 -0.189,-0.235c-0.127,-0.156 -0.254,-0.311 -0.382,-0.466c-0.758,-0.908 -1.544,-1.788 -2.366,-2.628c-1.533,-1.564 -3.181,-2.996 -4.932,-4.269c-1.887,-1.371 -3.892,-2.554 -5.98,-3.534c-1.981,-0.931 -4.034,-1.681 -6.127,-2.261c-2.629,-0.728 -5.319,-1.191 -8.024,-1.433c-2.143,-0.192 -4.296,-0.247 -6.446,-0.193c-5.469,0.136 -10.949,1.006 -16.128,2.936c-2.726,1.016 -5.358,2.325 -7.832,3.924c-2.23,1.443 -4.327,3.121 -6.262,4.993c-1.478,1.431 -2.864,2.974 -4.131,4.623c-1.487,1.936 -2.805,4.021 -3.924,6.224c-1.122,2.211 -2.041,4.538 -2.756,6.935c-1.355,4.546 -1.967,9.318 -2.037,14.083c-0.019,1.329 0.003,2.659 0.082,3.986c0.119,2.011 0.364,4.014 0.753,5.986c0.404,2.04 0.964,4.045 1.689,5.98c0.741,1.975 1.653,3.875 2.722,5.668c1.523,2.554 3.36,4.882 5.412,6.963c1.138,1.155 2.343,2.23 3.593,3.242c0.936,0.758 1.893,1.486 2.876,2.174c1.589,1.111 3.24,2.122 4.945,3.015c1.675,0.878 3.401,1.642 5.166,2.285c1.052,0.383 2.117,0.719 3.192,1.019c5.216,1.359 10.434,2.713 15.648,4.078c3.651,0.962 7.291,1.976 10.892,3.131c1.445,0.464 2.884,0.95 4.311,1.475c1.206,0.444 2.405,0.915 3.585,1.435c0.823,0.362 1.638,0.749 2.434,1.176c0.814,0.437 1.61,0.917 2.357,1.477c1.132,0.847 2.145,1.874 2.993,3.042c0.905,1.246 1.616,2.645 2.136,4.121c0.599,1.701 0.951,3.501 1.109,5.31c0.192,2.204 0.159,4.44 -0.218,6.619c-0.349,2.017 -0.992,3.972 -1.922,5.765c-0.891,1.72 -2.038,3.279 -3.36,4.64c-1.738,1.788 -3.762,3.242 -5.946,4.323c-1.844,0.914 -3.796,1.563 -5.786,1.992c-1.671,0.36 -3.37,0.565 -5.072,0.65c-1.126,0.056 -2.255,0.056 -3.382,0.028c-1.079,-0.027 -2.158,-0.085 -3.235,-0.179c-0.801,-0.07 -1.6,-0.16 -2.397,-0.274c-0.661,-0.093 -1.32,-0.203 -1.975,-0.331c-3.549,-0.688 -7.048,-1.904 -10.136,-3.937c-0.449,-0.295 -0.889,-0.608 -1.318,-0.938c-0.616,-0.474 -1.209,-0.984 -1.774,-1.527c-0.805,-0.775 -1.552,-1.619 -2.23,-2.523c-0.946,-1.262 -1.755,-2.641 -2.416,-4.097c-0.763,-1.679 -1.329,-3.456 -1.722,-5.275c-0.112,-0.52 -0.21,-1.044 -0.296,-1.57c-0.074,-0.46 -0.136,-0.922 -0.206,-1.382c-0.047,-0.301 -0.095,-0.6 -0.145,-0.9c-0.257,-1.502 -0.559,-2.996 -0.957,-4.464c-0.261,-0.963 -0.562,-1.915 -0.928,-2.838c-0.281,-0.71 -0.601,-1.404 -0.986,-2.056c-0.303,-0.514 -0.649,-1.006 -1.065,-1.423c-0.666,-0.667 -1.491,-1.131 -2.339,-1.471c-0.666,-0.267 -1.358,-0.461 -2.055,-0.608c-0.669,-0.14 -1.345,-0.238 -2.024,-0.304c-0.866,-0.085 -1.736,-0.12 -2.606,-0.12c-0.398,0 -0.795,0.01 -1.192,0.03c-2.392,0.121 -4.809,0.631 -6.939,1.848c-0.371,0.212 -0.732,0.445 -1.08,0.698c-1.012,0.736 -1.942,1.643 -2.61,2.75c-0.279,0.462 -0.509,0.957 -0.682,1.475c-0.194,0.58 -0.316,1.185 -0.378,1.798c-0.048,0.478 -0.055,0.957 -0.047,1.437c0.007,0.384 0.021,0.768 0.039,1.151c0.041,0.873 0.102,1.745 0.172,2.616c0.126,1.576 0.289,3.148 0.441,4.722c0.037,0.396 0.073,0.793 0.109,1.189c0.09,1.042 0.172,2.084 0.236,3.129c0.071,1.156 0.113,2.315 0.098,3.474c-0.019,1.441 -0.098,2.879 -0.202,4.315c-0.131,1.795 -0.303,3.586 -0.496,5.374c-0.104,0.964 -0.22,1.927 -0.324,2.892c-0.035,0.334 -0.069,0.668 -0.102,1.002c-0.113,1.183 -0.208,2.368 -0.278,3.555c-0.053,0.922 -0.093,1.846 -0.115,2.77c-0.014,0.591 -0.022,1.182 -0.022,1.773c0,0.455 0.011,0.909 0.036,1.363c0.02,0.357 0.048,0.713 0.086,1.068c0.029,0.276 0.064,0.551 0.107,0.825c0.248,1.605 0.736,3.224 1.704,4.501c0.139,0.183 0.287,0.358 0.443,0.523c0.158,0.167 0.324,0.325 0.498,0.473c1.15,0.977 2.585,1.491 4.011,1.771c0.254,0.05 0.509,0.092 0.764,0.128c0.387,0.054 0.776,0.094 1.166,0.121c0.49,0.035 0.981,0.05 1.472,0.05c0.89,0.001 1.782,-0.057 2.661,-0.208c1.373,-0.235 2.762,-0.704 3.86,-1.652c0.17,-0.147 0.332,-0.305 0.484,-0.472c1.003,-1.099 1.548,-2.576 1.852,-4.058c0.047,-0.231 0.089,-0.465 0.126,-0.699c0.047,-0.301 0.086,-0.605 0.118,-0.909c0.041,-0.391 0.068,-0.783 0.089,-1.175l0.473,-1.801l1.134,-1.419l1.584,-0.775l1.741,0.016l1.573,0.802c0.27,0.226 0.542,0.451 0.815,0.675c0.269,0.219 0.539,0.437 0.809,0.653c0.713,0.565 1.431,1.12 2.16,1.66c1.583,1.172 3.209,2.278 4.877,3.305c4.051,2.496 8.359,4.524 12.855,5.896c3.177,0.969 6.44,1.608 9.733,1.888c0.938,0.08 1.878,0.132 2.819,0.154c0.841,0.021 1.682,0.017 2.523,0c1.131,-0.023 2.262,-0.075 3.391,-0.158c4.116,-0.305 8.212,-1.026 12.175,-2.272c3.877,-1.22 7.615,-2.946 11.083,-5.178c2.782,-1.791 5.382,-3.9 7.764,-6.265c1.582,-1.57 3.069,-3.252 4.433,-5.043c1.432,-1.882 2.728,-3.884 3.861,-5.989c0.889,-1.651 1.677,-3.364 2.36,-5.124c0.767,-1.979 1.401,-4.017 1.905,-6.091c0.946,-3.891 1.432,-7.901 1.554,-11.917c0.113,-3.748 -0.075,-7.515 -0.732,-11.202c-0.383,-2.148 -0.924,-4.264 -1.644,-6.31c-0.764,-2.169 -1.73,-4.254 -2.893,-6.208c-1.165,-1.957 -2.524,-3.777 -4.038,-5.435c-1.929,-2.112 -4.103,-3.951 -6.404,-5.574c-2.554,-1.801 -5.265,-3.34 -8.046,-4.694c-2.831,-1.378 -5.739,-2.567 -8.688,-3.619c-3.487,-1.246 -7.033,-2.3 -10.606,-3.221c-1.616,-0.416 -3.238,-0.804 -4.865,-1.168c-1.242,-0.278 -2.488,-0.54 -3.731,-0.815c-0.649,-0.144 -1.297,-0.291 -1.946,-0.439c-2.289,-0.527 -4.574,-1.08 -6.846,-1.692c-1.805,-0.487 -3.604,-1.009 -5.38,-1.61c-1.138,-0.385 -2.268,-0.802 -3.371,-1.293c-0.957,-0.426 -1.899,-0.909 -2.764,-1.524c-0.851,-0.606 -1.625,-1.335 -2.293,-2.164c-0.991,-1.228 -1.74,-2.664 -2.256,-4.189c-0.423,-1.248 -0.693,-2.551 -0.848,-3.867c-0.113,-0.95 -0.166,-1.907 -0.175,-2.865c-0.01,-1.152 0.052,-2.305 0.209,-3.445c0.211,-1.529 0.593,-3.031 1.171,-4.447c0.412,-1.011 0.923,-1.974 1.526,-2.868c0.417,-0.618 0.878,-1.202 1.375,-1.748c0.864,-0.946 1.839,-1.773 2.885,-2.476c0.933,-0.627 1.922,-1.156 2.942,-1.6c2.292,-0.998 4.731,-1.568 7.181,-1.888c0.769,-0.101 1.541,-0.176 2.314,-0.231c1.02,-0.072 2.042,-0.104 3.064,-0.113c0.328,-0.001 0.656,0 0.984,0.003Zm542.676,73.063c0.367,0.011 0.734,0.038 1.099,0.091c0.763,0.11 1.519,0.324 2.241,0.662c0.61,0.287 1.195,0.663 1.734,1.127c0.407,0.35 0.788,0.749 1.136,1.191c0.289,0.367 0.556,0.763 0.797,1.183c0.192,0.334 0.368,0.682 0.529,1.041c0.923,2.067 1.3,4.456 1.39,6.813c0.012,0.336 0.019,0.672 0.021,1.009c0.004,0.754 -0.019,1.508 -0.073,2.259c-0.069,0.956 -0.187,1.906 -0.357,2.841c-0.193,1.056 -0.453,2.091 -0.78,3.092c-0.629,1.924 -1.507,3.707 -2.573,5.285c-0.497,0.736 -1.034,1.428 -1.602,2.075c-1.037,1.183 -2.178,2.217 -3.4,3.065c-1.195,0.829 -2.461,1.482 -3.768,1.958c-2.227,0.812 -4.555,1.105 -6.866,1.025c-1.204,-0.042 -2.406,-0.189 -3.592,-0.455c-1.497,-0.336 -2.968,-0.864 -4.377,-1.593c-1.503,-0.778 -2.931,-1.783 -4.251,-2.985c-1.151,-1.049 -2.217,-2.244 -3.192,-3.551c-1.144,-1.533 -2.162,-3.217 -3.063,-4.994c-1.726,-3.403 -3.014,-7.144 -3.956,-11.01c-0.804,-3.299 -1.361,-6.692 -1.738,-10.112c-0.372,-3.378 -0.57,-6.785 -0.641,-10.195c-0.042,-2.023 -0.038,-4.048 -0.006,-6.072c0.077,-4.768 0.334,-9.538 0.869,-14.259c0.458,-4.045 1.12,-8.06 2.081,-11.961c0.773,-3.141 1.743,-6.208 2.965,-9.109c0.872,-2.069 1.871,-4.054 3.018,-5.892c1.548,-2.481 3.374,-4.685 5.457,-6.419c1.195,-0.995 2.471,-1.833 3.8,-2.494c1.224,-0.609 2.493,-1.068 3.783,-1.382c1.134,-0.276 2.283,-0.442 3.436,-0.507c0.676,-0.039 1.353,-0.04 2.029,-0.022c0.949,0.025 1.898,0.095 2.843,0.221c0.386,0.052 0.771,0.113 1.155,0.184c2.578,0.479 5.142,1.436 7.374,3.19c0.35,0.274 0.69,0.567 1.019,0.879c0.446,0.422 0.873,0.879 1.274,1.37c1.545,1.885 2.72,4.218 3.655,6.658c0.561,1.465 1.039,2.979 1.459,4.518c0.45,1.652 0.834,3.333 1.17,5.029c0.129,0.651 0.251,1.305 0.367,1.96c0.091,0.514 0.174,1.031 0.264,1.546c0.029,0.16 0.059,0.32 0.09,0.479c0.061,0.304 0.125,0.607 0.197,0.908c0.362,1.509 0.887,2.981 1.675,4.208c0.143,0.222 0.293,0.435 0.452,0.637c0.212,0.271 0.439,0.523 0.679,0.753c0.198,0.191 0.404,0.366 0.617,0.527c1.268,0.954 2.745,1.353 4.2,1.473c0.251,0.021 0.502,0.034 0.753,0.039c0.473,0.009 0.946,-0.004 1.418,-0.038c1.847,-0.131 3.702,-0.596 5.374,-1.634c0.254,-0.157 0.503,-0.328 0.746,-0.511c0.376,-0.283 0.737,-0.597 1.081,-0.94c0.45,-0.448 0.873,-0.943 1.244,-1.497c0.398,-0.595 0.733,-1.258 0.968,-1.982c0.251,-0.774 0.381,-1.602 0.408,-2.438c0.004,-0.125 0.007,-0.25 0.006,-0.375c-0.002,-0.211 -0.011,-0.421 -0.018,-0.632c-0.019,-0.518 -0.041,-1.037 -0.063,-1.556c-0.075,-1.727 -0.159,-3.453 -0.243,-5.179l0.025,0.147c-0.029,-0.179 -0.029,-0.179 -0.055,-0.359c-0.026,-0.181 -0.026,-0.181 -0.049,-0.362c-0.16,-1.304 -0.231,-2.622 -0.263,-3.94c-0.013,-0.49 -0.019,-0.981 -0.022,-1.471c-0.003,-0.451 -0.002,-0.903 0.009,-1.354c0.018,-0.765 0.055,-1.528 0.099,-2.291c0.047,-0.797 0.103,-1.594 0.164,-2.39c0.238,-3.092 0.553,-6.173 0.871,-9.253c0.062,-0.612 0.123,-1.225 0.182,-1.838c0.078,-0.824 0.153,-1.648 0.22,-2.473c0.045,-0.557 0.086,-1.115 0.12,-1.673c0.026,-0.431 0.048,-0.863 0.056,-1.295c0.007,-0.403 -0.002,-0.807 -0.017,-1.209c-0.029,-0.73 -0.092,-1.458 -0.206,-2.174c-0.189,-1.191 -0.524,-2.374 -1.125,-3.33c-0.126,-0.2 -0.263,-0.389 -0.409,-0.564c-0.779,-0.932 -1.801,-1.45 -2.829,-1.743c-0.177,-0.051 -0.355,-0.094 -0.534,-0.133c-0.612,-0.132 -1.233,-0.199 -1.853,-0.224c-0.362,-0.015 -0.725,-0.017 -1.087,0.004c-0.987,0.06 -1.985,0.292 -2.88,0.848c-0.189,0.117 -0.372,0.249 -0.549,0.395c-0.252,0.209 -0.49,0.446 -0.71,0.708c-0.66,0.786 -1.151,1.778 -1.521,2.823c-0.538,1.519 -0.838,3.156 -1.038,4.796l-0.507,1.644l-1.007,1.209l-1.315,0.545l-1.371,-0.226l-1.165,-0.951c-0.119,-0.154 -0.239,-0.307 -0.359,-0.46c-0.118,-0.148 -0.236,-0.296 -0.354,-0.444c-0.472,-0.58 -0.952,-1.149 -1.444,-1.701c-0.962,-1.079 -1.965,-2.098 -3.006,-3.049c-2.414,-2.202 -5.035,-4.023 -7.798,-5.402c-2.913,-1.454 -5.969,-2.41 -9.069,-2.922c-1.435,-0.237 -2.879,-0.38 -4.325,-0.44c-0.812,-0.033 -1.625,-0.039 -2.437,-0.024c-3.431,0.062 -6.865,0.512 -10.216,1.464c-1.662,0.473 -3.304,1.067 -4.909,1.792c-1.744,0.788 -3.445,1.731 -5.084,2.826c-2.583,1.727 -5.005,3.835 -7.221,6.254c-2.651,2.894 -5.004,6.224 -7.057,9.823c-1.008,1.767 -1.944,3.601 -2.806,5.49c-0.604,1.324 -1.172,2.676 -1.704,4.05c-2.92,7.533 -4.746,15.699 -5.796,23.98c-0.167,1.315 -0.314,2.633 -0.444,3.955c-0.15,1.53 -0.275,3.065 -0.379,4.601c-0.13,1.944 -0.226,3.892 -0.289,5.842c-0.053,1.652 -0.084,3.304 -0.093,4.958c-0.023,4.051 0.092,8.103 0.387,12.138c0.546,7.442 1.7,14.828 3.641,21.886c0.582,2.112 1.233,4.193 1.955,6.233c0.563,1.591 1.164,3.16 1.84,4.679c0.875,1.965 1.862,3.849 2.951,5.632c1.52,2.487 3.235,4.773 5.099,6.842c1.832,2.034 3.805,3.857 5.87,5.486c3.26,2.572 6.749,4.678 10.399,6.176c2.041,0.838 4.13,1.487 6.245,1.935c2.135,0.453 4.296,0.705 6.46,0.761c2.411,0.064 4.827,-0.11 7.213,-0.565c2.746,-0.523 5.448,-1.415 8.042,-2.679c2.483,-1.209 4.861,-2.754 7.101,-4.578c0.791,-0.644 1.565,-1.323 2.32,-2.032c0.477,-0.447 0.945,-0.908 1.408,-1.377l1.039,-0.698c0.388,-0.054 0.776,-0.203 1.166,-0.164c0.793,0.077 1.535,0.535 2.076,1.281c0.265,0.367 0.48,0.805 0.623,1.27c0.291,0.949 0.214,1.933 0.219,2.916c0.001,0.119 0.004,0.238 0.008,0.357c0.034,0.835 0.14,1.676 0.414,2.442c0.086,0.241 0.189,0.474 0.308,0.692c0.499,0.911 1.258,1.52 2.049,1.945c0.145,0.077 0.291,0.149 0.439,0.216c0.194,0.088 0.391,0.167 0.589,0.239c0.217,0.079 0.436,0.149 0.656,0.212c0.282,0.081 0.566,0.149 0.851,0.208c0.407,0.084 0.816,0.149 1.226,0.197c0.512,0.061 1.025,0.098 1.538,0.116c0.675,0.025 1.352,0.022 2.027,-0.023c0.883,-0.059 1.765,-0.189 2.628,-0.431c1.104,-0.31 2.198,-0.81 3.123,-1.655c0.349,-0.319 0.67,-0.687 0.953,-1.101c0.355,-0.52 0.65,-1.111 0.876,-1.738c0.301,-0.833 0.501,-1.719 0.629,-2.621c0.102,-0.724 0.16,-1.458 0.186,-2.193c0.017,-0.496 0.017,-0.993 0.015,-1.49c-0.001,-0.547 -0.004,-1.094 -0.009,-1.641c-0.008,-0.747 -0.018,-1.493 -0.032,-2.24c-0.025,-1.352 -0.063,-2.704 -0.107,-4.056c-0.122,-3.549 -0.257,-7.098 -0.386,-10.647c-0.052,-1.526 -0.095,-3.054 -0.121,-4.581c-0.016,-0.919 -0.026,-1.838 -0.031,-2.757c-0.003,-0.646 -0.007,-1.292 0.005,-1.938c0.011,-0.55 0.032,-1.1 0.066,-1.649c0.026,-0.422 0.06,-0.842 0.103,-1.261c0.216,-2.094 0.661,-4.198 1.558,-5.992c0.123,-0.248 0.255,-0.488 0.396,-0.721c0.165,-0.274 0.342,-0.537 0.531,-0.786c0.327,-0.433 0.689,-0.823 1.079,-1.161c0.521,-0.451 1.092,-0.805 1.69,-1.055c0.514,-0.215 1.047,-0.353 1.586,-0.419c0.259,-0.032 0.518,-0.046 0.778,-0.048l0.283,0.014l3.99,0.424c0.07,-0.001 0.14,-0.007 0.209,-0.013c0.362,-0.038 0.718,-0.131 1.056,-0.303c0.625,-0.318 1.155,-0.874 1.601,-1.51c0.217,-0.31 0.416,-0.641 0.6,-0.985c0.269,-0.502 0.505,-1.033 0.707,-1.584c0.689,-1.887 0.964,-3.978 1.001,-6.048c0.039,-2.172 -0.167,-4.403 -0.888,-6.391c-0.103,-0.283 -0.216,-0.561 -0.34,-0.831c-0.208,-0.457 -0.446,-0.891 -0.71,-1.298c-0.38,-0.588 -0.814,-1.121 -1.288,-1.585c-0.354,-0.347 -0.732,-0.654 -1.128,-0.918c-1.326,-0.881 -2.822,-1.244 -4.307,-1.299c-0.496,-0.019 -0.991,0.003 -1.487,0.04c-0.38,0.029 -0.76,0.066 -1.14,0.107c-0.927,0.099 -1.853,0.223 -2.777,0.357c-1.031,0.149 -2.061,0.317 -3.091,0.475c-0.289,0.043 -0.579,0.085 -0.868,0.127c-2.726,0.385 -5.46,0.672 -8.202,0.797c-0.762,0.035 -1.525,0.059 -2.289,0.067c-0.612,0.008 -1.224,0.006 -1.837,-0.015c-1.287,-0.046 -2.572,-0.158 -3.855,-0.298c-1.595,-0.174 -3.188,-0.394 -4.778,-0.639c-1.042,-0.161 -2.084,-0.336 -3.126,-0.502c-0.418,-0.065 -0.837,-0.129 -1.255,-0.192c-1.229,-0.18 -2.46,-0.348 -3.693,-0.485c-0.708,-0.078 -1.416,-0.147 -2.126,-0.198c-0.502,-0.037 -1.005,-0.066 -1.509,-0.08c-0.63,-0.018 -1.261,-0.012 -1.889,0.055c-0.737,0.078 -1.47,0.233 -2.183,0.49c-0.827,0.298 -1.624,0.735 -2.348,1.328c-0.438,0.358 -0.85,0.769 -1.228,1.226c-0.422,0.512 -0.799,1.086 -1.11,1.715c-0.455,0.919 -0.761,1.945 -0.937,3.008c-0.168,1.018 -0.221,2.064 -0.2,3.104c0.029,1.438 0.207,2.883 0.624,4.225c0.32,1.031 0.782,1.988 1.362,2.814c0.396,0.564 0.853,1.071 1.383,1.419c0.393,0.258 0.818,0.419 1.257,0.483c0.1,0.014 0.2,0.024 0.301,0.029c0.039,0.003 0.089,0.008 0.128,0.005c0.112,-0.009 0.223,-0.026 0.334,-0.04c0.245,-0.033 0.49,-0.068 0.734,-0.105c0.57,-0.085 1.139,-0.174 1.708,-0.265c0.117,-0.01 0.234,-0.021 0.351,-0.03c0.035,-0.003 0.069,-0.003 0.104,-0.007c0.131,-0.02 0.26,-0.057 0.389,-0.098l0.751,-0.116c0.428,0 0.855,-0.005 1.283,0.003Zm-427.692,-54.065c-1.55,0.011 -3.1,0.056 -4.647,0.152c-3.118,0.193 -6.226,0.578 -9.287,1.207c-3.009,0.618 -5.972,1.473 -8.827,2.61c-3.05,1.214 -5.973,2.749 -8.677,4.611c-2.077,1.429 -4.022,3.046 -5.809,4.824c-1.736,1.726 -3.326,3.599 -4.748,5.591c-0.958,1.342 -1.841,2.738 -2.645,4.177c-0.565,1.009 -1.091,2.04 -1.58,3.088c-0.363,0.777 -0.705,1.564 -1.027,2.36c-2.391,5.901 -3.661,12.21 -4.195,18.54c-0.089,1.046 -0.157,2.094 -0.207,3.143c-0.071,1.496 -0.104,2.993 -0.104,4.49c0,1.509 0.033,3.018 0.105,4.525c0.05,1.057 0.119,2.112 0.208,3.166c0.555,6.572 1.901,13.127 4.475,19.219c0.373,0.885 0.773,1.759 1.199,2.62c0.555,1.124 1.156,2.226 1.802,3.301c0.95,1.581 1.999,3.103 3.141,4.552c1.511,1.917 3.185,3.705 5.002,5.335c1.58,1.419 3.269,2.714 5.047,3.876c1.2,0.785 2.441,1.508 3.714,2.169c0.928,0.482 1.874,0.932 2.833,1.349c5.936,2.583 12.354,3.909 18.788,4.423c0.902,0.072 1.805,0.127 2.709,0.169c1.335,0.061 2.671,0.09 4.007,0.09c6.789,0 13.637,-0.832 20.079,-3.039c0.898,-0.308 1.787,-0.643 2.665,-1.004c1.051,-0.432 2.085,-0.904 3.1,-1.416c1.629,-0.821 3.205,-1.746 4.715,-2.77c2.174,-1.473 4.206,-3.155 6.068,-5.008c1.679,-1.67 3.222,-3.477 4.613,-5.394c0.979,-1.348 1.883,-2.752 2.709,-4.199c0.58,-1.014 1.121,-2.051 1.625,-3.105c0.374,-0.781 0.727,-1.572 1.06,-2.372c2.52,-6.047 3.88,-12.528 4.478,-19.036c0.097,-1.056 0.174,-2.114 0.232,-3.174c0.091,-1.65 0.138,-3.302 0.144,-4.955c0.005,-1.068 -0.008,-2.136 -0.042,-3.203c-0.225,-7.173 -1.356,-14.379 -3.946,-21.096c-0.42,-1.091 -0.879,-2.166 -1.376,-3.224c-0.62,-1.317 -1.3,-2.607 -2.041,-3.861c-1.094,-1.852 -2.322,-3.625 -3.672,-5.301c-1.865,-2.313 -3.961,-4.443 -6.247,-6.341c-2.585,-2.147 -5.418,-3.988 -8.422,-5.492c-3.143,-1.572 -6.465,-2.773 -9.868,-3.644c-3.62,-0.926 -7.329,-1.483 -11.054,-1.752c-1.767,-0.128 -3.538,-0.189 -5.31,-0.201c-0.263,0 -0.525,0 -0.787,0Zm539.131,0c-1.55,0.011 -3.1,0.056 -4.647,0.152c-3.118,0.193 -6.226,0.578 -9.287,1.207c-3.009,0.618 -5.972,1.474 -8.827,2.61c-3.05,1.214 -5.973,2.749 -8.677,4.611c-2.077,1.429 -4.022,3.047 -5.809,4.824c-1.736,1.725 -3.326,3.599 -4.748,5.591c-0.958,1.342 -1.841,2.738 -2.645,4.177c-0.565,1.009 -1.091,2.04 -1.58,3.088c-3.058,6.553 -4.616,13.72 -5.222,20.9c-0.089,1.046 -0.157,2.094 -0.207,3.143c-0.071,1.496 -0.105,2.993 -0.105,4.49c0,1.509 0.034,3.018 0.106,4.526c0.056,1.186 0.136,2.371 0.242,3.553c0.575,6.441 1.917,12.859 4.441,18.831c0.373,0.885 0.773,1.759 1.199,2.62c0.555,1.124 1.156,2.226 1.802,3.301c0.95,1.581 1.999,3.103 3.141,4.552c1.511,1.916 3.185,3.705 5.002,5.335c1.58,1.418 3.269,2.714 5.047,3.876c1.2,0.785 2.441,1.508 3.714,2.169c0.928,0.482 1.874,0.932 2.833,1.349c5.936,2.582 12.354,3.909 18.788,4.423c0.902,0.072 1.805,0.127 2.709,0.169c1.335,0.061 2.671,0.09 4.007,0.09c6.789,0 13.637,-0.832 20.079,-3.039c0.898,-0.308 1.787,-0.643 2.665,-1.004c1.051,-0.432 2.085,-0.904 3.1,-1.416c1.629,-0.821 3.205,-1.746 4.715,-2.769c2.174,-1.475 4.206,-3.156 6.068,-5.009c1.679,-1.671 3.222,-3.478 4.614,-5.394c0.979,-1.349 1.882,-2.752 2.708,-4.199c0.58,-1.014 1.121,-2.051 1.625,-3.105c0.374,-0.781 0.727,-1.572 1.06,-2.372c2.52,-6.048 3.88,-12.527 4.478,-19.036c0.097,-1.056 0.174,-2.115 0.232,-3.174c0.091,-1.65 0.138,-3.302 0.144,-4.955c0.005,-1.068 -0.008,-2.135 -0.042,-3.203c-0.226,-7.173 -1.356,-14.378 -3.946,-21.096c-0.42,-1.091 -0.879,-2.166 -1.376,-3.224c-0.62,-1.318 -1.3,-2.607 -2.041,-3.861c-1.095,-1.852 -2.322,-3.625 -3.672,-5.301c-1.865,-2.313 -3.961,-4.443 -6.247,-6.341c-2.585,-2.147 -5.418,-3.988 -8.422,-5.492c-3.143,-1.572 -6.465,-2.773 -9.868,-3.644c-3.62,-0.926 -7.329,-1.483 -11.054,-1.752c-1.767,-0.128 -3.538,-0.189 -5.31,-0.201c-0.263,0 -0.525,0 -0.787,0Zm-470.769,-11.203c0.22,0.014 0.438,0.035 0.656,0.071c0.383,0.064 0.76,0.166 1.123,0.305c0.409,0.156 0.801,0.359 1.167,0.602c0.264,0.174 0.514,0.369 0.75,0.582c0.187,0.169 0.364,0.348 0.532,0.537c1.116,1.256 1.76,2.868 2.171,4.493c0.068,0.268 0.13,0.537 0.187,0.808c0.078,0.373 0.146,0.748 0.207,1.125c0.088,0.549 0.16,1.1 0.219,1.653c0.082,0.765 0.14,1.532 0.183,2.3c0.06,1.103 0.084,2.207 0.092,3.312c0.058,24.159 0.058,48.319 0,72.478c-0.008,1.104 -0.032,2.209 -0.092,3.312c-0.043,0.768 -0.101,1.535 -0.183,2.3c-0.059,0.552 -0.131,1.104 -0.219,1.652c-0.061,0.377 -0.129,0.752 -0.207,1.126c-0.057,0.27 -0.119,0.54 -0.187,0.808c-0.424,1.673 -1.095,3.336 -2.273,4.605c-0.173,0.186 -0.355,0.363 -0.548,0.528c-0.241,0.208 -0.497,0.398 -0.766,0.566c-0.376,0.234 -0.776,0.427 -1.192,0.573c-0.572,0.199 -1.173,0.308 -1.777,0.324c-0.561,0.016 -1.124,-0.037 -1.679,-0.123c-0.84,-0.13 -1.667,-0.344 -2.48,-0.596c-0.396,-0.123 -0.788,-0.261 -1.183,-0.388c-0.157,-0.049 -0.315,-0.097 -0.474,-0.142c-0.229,-0.064 -0.46,-0.124 -0.693,-0.172c-0.168,-0.035 -0.338,-0.066 -0.509,-0.08c-0.109,-0.008 -0.218,-0.003 -0.327,-0.001c-0.232,0.004 -0.463,0.014 -0.693,0.032c-0.649,0.051 -1.299,0.158 -1.917,0.37c-0.457,0.157 -0.896,0.374 -1.281,0.673c-0.122,0.094 -0.237,0.196 -0.346,0.305c-0.702,0.703 -1.101,1.663 -1.351,2.62c-0.046,0.175 -0.087,0.351 -0.123,0.529c-0.057,0.273 -0.104,0.548 -0.142,0.824c-0.05,0.353 -0.086,0.707 -0.111,1.062c-0.033,0.448 -0.049,0.897 -0.052,1.345c-0.012,1.843 0.226,3.721 0.97,5.414c0.109,0.246 0.228,0.489 0.358,0.725c0.182,0.331 0.384,0.651 0.606,0.955c0.335,0.46 0.712,0.887 1.126,1.273c0.606,0.565 1.295,1.033 2.046,1.369c0.916,0.409 1.905,0.62 2.899,0.687c0.292,0.02 0.585,0.03 0.878,0.026c0.326,-0.005 0.653,-0.023 0.978,-0.043c0.511,-0.032 1.021,-0.074 1.53,-0.119c1.364,-0.12 2.725,-0.265 4.085,-0.418c0.967,-0.11 1.934,-0.222 2.9,-0.338c0.695,-0.083 1.389,-0.169 2.085,-0.249c0.336,-0.037 0.673,-0.073 1.009,-0.108c1.945,-0.196 3.894,-0.338 5.847,-0.404c1.637,-0.055 3.276,-0.05 4.913,-0.022c2.426,0.043 4.85,0.157 7.269,0.345c0.311,0.025 0.622,0.053 0.933,0.079c2.299,0.188 4.598,0.376 6.897,0.564c2.658,0.216 5.317,0.433 7.975,0.645c0.295,0.023 0.589,0.046 0.884,0.068c0.976,-0.005 1.958,-0.093 2.909,-0.326c0.723,-0.176 1.432,-0.441 2.07,-0.836c0.297,-0.182 0.577,-0.392 0.834,-0.629c1.025,-0.938 1.639,-2.247 2.016,-3.581c0.05,-0.179 0.097,-0.358 0.14,-0.539c0.057,-0.24 0.108,-0.482 0.153,-0.725c0.068,-0.368 0.124,-0.74 0.169,-1.112c0.057,-0.47 0.097,-0.941 0.124,-1.413c0.03,-0.519 0.042,-1.039 0.043,-1.56c0,-0.418 -0.012,-0.837 -0.038,-1.254c-0.021,-0.331 -0.05,-0.661 -0.092,-0.99c-0.032,-0.257 -0.072,-0.513 -0.121,-0.767c-0.037,-0.196 -0.079,-0.391 -0.128,-0.583c-0.037,-0.147 -0.078,-0.292 -0.122,-0.436c-0.255,-0.818 -0.653,-1.632 -1.335,-2.161c-0.263,-0.204 -0.558,-0.36 -0.866,-0.479c-0.302,-0.118 -0.617,-0.2 -0.935,-0.259c-0.521,-0.096 -1.051,-0.13 -1.58,-0.131c-0.313,-0.001 -0.627,0.009 -0.94,0.031c-0.298,0.022 -0.597,0.055 -0.889,0.119c-0.173,0.038 -0.338,0.097 -0.506,0.151c-0.128,0.04 -0.256,0.077 -0.384,0.113c-0.343,0.091 -0.688,0.171 -1.037,0.233c-0.843,0.151 -1.701,0.216 -2.557,0.214c-0.743,-0.002 -1.484,-0.119 -2.19,-0.36c-0.48,-0.163 -0.943,-0.383 -1.376,-0.653c-0.338,-0.21 -0.658,-0.451 -0.957,-0.717c-0.217,-0.193 -0.423,-0.399 -0.616,-0.617c-1.31,-1.47 -2.027,-3.383 -2.446,-5.3c-0.071,-0.324 -0.134,-0.65 -0.19,-0.977c-0.075,-0.437 -0.137,-0.876 -0.19,-1.317c-0.074,-0.622 -0.129,-1.247 -0.169,-1.873c-0.058,-0.907 -0.082,-1.815 -0.091,-2.724c-0.111,-34.129 0.303,-68.259 -0.002,-102.386c-0.007,-0.478 -0.031,-0.957 -0.091,-1.431c-0.037,-0.294 -0.088,-0.587 -0.16,-0.875c-0.041,-0.164 -0.089,-0.327 -0.149,-0.485c-0.032,-0.085 -0.068,-0.169 -0.108,-0.25c-0.029,-0.058 -0.06,-0.115 -0.094,-0.17c-0.045,-0.071 -0.096,-0.14 -0.16,-0.194c-0.114,-0.097 -0.269,-0.139 -0.41,-0.17c-0.106,-0.023 -0.214,-0.037 -0.321,-0.047c-0.166,-0.015 -0.332,-0.016 -0.498,-0.014c-0.268,0.002 -0.535,0.009 -0.803,0.019c-0.587,0.023 -1.173,0.062 -1.758,0.109c-1.353,0.11 -2.702,0.268 -4.048,0.444l-0.101,0.013c-0.104,0.025 -0.208,0.048 -0.313,0.071c-0.266,0.058 -0.265,0.058 -0.531,0.113c-0.546,0.107 -1.093,0.205 -1.642,0.287c-1.566,0.234 -3.146,0.362 -4.727,0.418c-0.896,0.031 -1.793,0.042 -2.689,0.024c-1.335,-0.028 -2.669,-0.113 -3.999,-0.22c-1.552,-0.124 -3.1,-0.282 -4.647,-0.456c-1.014,-0.114 -2.026,-0.237 -3.039,-0.353c-0.389,-0.044 -0.778,-0.087 -1.167,-0.129c-0.852,-0.09 -1.706,-0.177 -2.56,-0.247c-0.324,-0.027 -0.648,-0.051 -0.973,-0.069c-0.232,-0.013 -0.465,-0.025 -0.697,-0.025c-1.565,0.003 -3.159,0.238 -4.577,0.947c-0.216,0.108 -0.426,0.226 -0.63,0.355c-0.439,0.277 -0.849,0.602 -1.223,0.966c-0.467,0.455 -0.88,0.968 -1.226,1.525c-0.987,1.586 -1.399,3.473 -1.513,5.33c-0.021,0.332 -0.032,0.663 -0.035,0.995c-0.007,0.937 0.038,1.878 0.176,2.805c0.04,0.265 0.087,0.529 0.144,0.791c0.037,0.17 0.078,0.339 0.123,0.507c0.262,0.962 0.686,1.929 1.438,2.594c0.735,0.649 1.701,0.945 2.646,1.081c0.168,0.024 0.336,0.043 0.505,0.058c0.221,0.02 0.442,0.032 0.664,0.038c0.459,0.013 0.921,0.005 1.38,-0.033c0.341,-0.028 0.688,-0.068 1.018,-0.166c0.092,-0.029 0.186,-0.067 0.277,-0.1c0.149,-0.053 0.182,-0.064 0.331,-0.116c1.096,-0.369 2.216,-0.674 3.365,-0.805c0.38,-0.043 0.76,-0.063 1.142,-0.067c0.155,0.002 0.155,0.003 0.309,0.009Zm644.192,30.423c0.878,0.009 1.756,0.06 2.631,0.166c1.641,0.199 3.267,0.583 4.842,1.169c1.378,0.513 2.716,1.181 3.989,1.996c0.743,0.476 1.463,1.001 2.158,1.571c2.297,1.887 4.293,4.265 5.974,6.92c1.974,3.12 3.524,6.606 4.665,10.271c1.918,6.163 2.69,12.769 2.785,19.323c0.021,1.441 0.011,2.882 -0.031,4.322c-0.028,0.944 -0.07,1.886 -0.127,2.828c-0.396,6.518 -1.531,13.035 -3.845,18.981c-0.367,0.944 -0.763,1.873 -1.189,2.781c-0.581,1.241 -1.217,2.445 -1.907,3.604c-0.819,1.373 -1.711,2.685 -2.681,3.908c-1.187,1.496 -2.491,2.858 -3.907,4.035c-1.285,1.069 -2.661,1.982 -4.102,2.713c-1.442,0.732 -2.949,1.281 -4.485,1.645c-1.264,0.3 -2.548,0.475 -3.836,0.539c-2.021,0.1 -4.054,-0.069 -6.032,-0.588c-1.302,-0.341 -2.577,-0.832 -3.799,-1.472c-1.116,-0.585 -2.187,-1.293 -3.196,-2.111c-0.462,-0.375 -0.912,-0.772 -1.347,-1.19c-1.748,-1.677 -3.264,-3.681 -4.557,-5.868c-0.768,-1.3 -1.458,-2.664 -2.073,-4.075c-0.315,-0.721 -0.609,-1.454 -0.885,-2.198c-0.332,-0.896 -0.637,-1.807 -0.916,-2.729c-0.859,-2.839 -1.473,-5.78 -1.899,-8.755c-0.601,-4.188 -0.83,-8.44 -0.836,-12.687l0,-3.799c0.033,-0.772 0.07,-1.543 0.118,-2.314c0.102,-1.68 0.243,-3.357 0.43,-5.026c0.223,-1.997 0.511,-3.984 0.877,-5.951c0.289,-1.555 0.628,-3.098 1.023,-4.62c0.324,-1.243 0.685,-2.472 1.087,-3.682c0.323,-0.968 0.672,-1.923 1.05,-2.861c0.316,-0.787 0.653,-1.562 1.011,-2.324c0.294,-0.625 0.602,-1.241 0.924,-1.846c1.845,-3.462 4.177,-6.598 7.053,-8.865c0.583,-0.459 1.186,-0.882 1.807,-1.264c0.999,-0.615 2.043,-1.123 3.116,-1.517c1.132,-0.415 2.296,-0.702 3.472,-0.865c0.649,-0.09 1.301,-0.14 1.955,-0.16c0.228,-0.005 0.455,-0.006 0.683,-0.005Zm-462.521,64.46l0.91,1.578l0.323,1.939c0,2.709 -0.031,5.418 0.002,8.127c0.003,0.159 0.008,0.319 0.015,0.478c0.015,0.286 0.037,0.572 0.076,0.855c0.022,0.163 0.049,0.325 0.083,0.484c0.023,0.105 0.049,0.209 0.08,0.31c0.027,0.089 0.058,0.177 0.097,0.259c0.025,0.052 0.053,0.105 0.091,0.142c0.051,0.053 0.115,0.086 0.176,0.114c0.049,0.022 0.1,0.041 0.151,0.056c0.075,0.022 0.15,0.039 0.226,0.053c0.138,0.024 0.277,0.035 0.416,0.038c0.16,-0.018 0.321,-0.041 0.482,-0.063c1.241,-0.177 2.479,-0.381 3.719,-0.571c0.196,-0.029 0.392,-0.056 0.588,-0.081c2.168,-0.272 4.349,-0.347 6.527,-0.347c0.92,0 1.84,0.02 2.759,0.075c1.093,0.066 2.185,0.18 3.266,0.413l5.337,1.213c0.25,0 0.5,0.001 0.75,-0.001c0.079,-0.002 0.158,-0.005 0.237,-0.01c0.473,-0.036 0.943,-0.135 1.39,-0.349c0.239,-0.114 0.469,-0.26 0.685,-0.434c0.498,-0.4 0.917,-0.949 1.27,-1.557c0.269,-0.464 0.504,-0.963 0.702,-1.485c0.105,-0.277 0.199,-0.559 0.285,-0.847c0.102,-0.344 0.191,-0.695 0.267,-1.05c0.093,-0.429 0.168,-0.865 0.228,-1.304c0.072,-0.533 0.123,-1.071 0.156,-1.611c0.038,-0.634 0.052,-1.27 0.046,-1.906c-0.007,-0.646 -0.036,-1.292 -0.103,-1.933c-0.058,-0.563 -0.145,-1.124 -0.284,-1.662c-0.155,-0.6 -0.382,-1.204 -0.76,-1.611c-0.18,-0.194 -0.389,-0.335 -0.606,-0.44c-0.278,-0.133 -0.57,-0.211 -0.863,-0.259c-0.368,-0.06 -0.739,-0.068 -1.109,-0.056c-0.34,0.012 -0.685,0.039 -1.018,0.133c-0.089,0.025 -0.173,0.062 -0.259,0.099c-0.11,0.048 -0.219,0.093 -0.329,0.138c-0.11,0.043 -0.219,0.086 -0.33,0.128c-0.928,0.34 -1.89,0.587 -2.857,0.559c-0.583,-0.017 -1.163,-0.154 -1.712,-0.412c-0.398,-0.188 -0.779,-0.439 -1.134,-0.744c-0.24,-0.208 -0.468,-0.44 -0.682,-0.694c-0.175,-0.207 -0.34,-0.429 -0.496,-0.663c-1.016,-1.527 -1.564,-3.492 -1.885,-5.458c-0.053,-0.327 -0.1,-0.655 -0.142,-0.985c-0.063,-0.49 -0.115,-0.984 -0.157,-1.478c-0.054,-0.63 -0.094,-1.261 -0.123,-1.894c-0.042,-0.916 -0.06,-1.833 -0.066,-2.751c-0.066,-32.484 0.174,-64.97 -0.002,-97.454c-0.008,-0.8 -0.031,-1.601 -0.09,-2.398c-0.034,-0.461 -0.079,-0.92 -0.143,-1.375c-0.04,-0.291 -0.088,-0.579 -0.148,-0.863c-0.031,-0.148 -0.065,-0.294 -0.104,-0.438c-0.025,-0.094 -0.052,-0.187 -0.082,-0.279c-0.019,-0.056 -0.038,-0.112 -0.06,-0.167c-0.029,-0.077 -0.06,-0.159 -0.103,-0.225c-0.056,-0.086 -0.137,-0.147 -0.211,-0.2c-0.045,-0.031 -0.09,-0.059 -0.137,-0.086c-0.085,-0.048 -0.172,-0.09 -0.26,-0.127c-0.135,-0.057 -0.272,-0.103 -0.41,-0.142c-0.224,-0.063 -0.451,-0.107 -0.679,-0.14c-0.419,-0.059 -0.842,-0.077 -1.263,-0.074c-0.718,0.004 -1.436,0.048 -2.153,0.099c-1.465,0.105 -2.928,0.265 -4.391,0.413c-0.311,0.03 -0.622,0.059 -0.934,0.088c-0.941,0.083 -1.883,0.158 -2.826,0.205c-0.782,0.039 -1.565,0.06 -2.347,0.03c-1.035,-0.04 -2.069,-0.134 -3.101,-0.239c-1.209,-0.122 -2.417,-0.265 -3.624,-0.418c-0.254,-0.032 -0.508,-0.065 -0.762,-0.097c-0.349,-0.046 -0.698,-0.096 -1.048,-0.135c-0.098,-0.01 -0.197,-0.02 -0.295,-0.029c-0.759,-0.062 -1.52,-0.093 -2.28,-0.11c-0.512,-0.012 -1.023,-0.018 -1.534,-0.019c-0.376,-0.002 -0.751,-0.003 -1.127,0.016c-0.345,0.018 -0.69,0.049 -1.033,0.097c-0.234,0.033 -0.467,0.074 -0.699,0.125c-0.179,0.039 -0.357,0.083 -0.534,0.134c-1.105,0.318 -2.22,0.898 -3.008,2.012c-0.607,0.857 -0.966,1.96 -1.175,3.091c-0.124,0.672 -0.199,1.361 -0.24,2.051c-0.023,0.377 -0.036,0.755 -0.041,1.133c-0.008,0.603 0.006,1.206 0.06,1.806c0.094,1.057 0.307,2.102 0.691,3.042c0.139,0.338 0.298,0.661 0.476,0.965c0.343,0.587 0.756,1.134 1.263,1.469c0.291,0.193 0.606,0.304 0.93,0.345c0.268,0.034 0.54,0.021 0.808,0.004c0.594,-0.038 1.184,-0.145 1.764,-0.315c0.308,-0.09 0.612,-0.2 0.915,-0.322l0.628,-0.17c0.915,-0.133 1.831,-0.263 2.749,-0.358c0.56,-0.057 1.123,-0.109 1.685,-0.092c0.446,0.014 0.89,0.073 1.328,0.183c0.63,0.159 1.245,0.427 1.82,0.808c0.456,0.302 0.886,0.675 1.277,1.108c0.306,0.339 0.588,0.714 0.844,1.119c0.204,0.322 0.391,0.664 0.56,1.019c0.148,0.311 0.284,0.633 0.406,0.963c0.647,1.75 0.926,3.699 1.011,5.632c0.021,0.469 0.029,0.938 0.031,1.407l0,15.319c-0.221,1.499 -0.132,2.048 -0.982,3.207c-0.63,0.859 -1.488,1.359 -2.391,1.393c-0.443,0.017 -0.897,-0.082 -1.312,-0.288c-0.416,-0.205 -0.763,-0.601 -1.135,-0.921c-0.058,-0.051 -0.103,-0.126 -0.154,-0.188c-0.134,-0.162 -0.164,-0.197 -0.298,-0.357c-0.149,-0.176 -0.298,-0.35 -0.448,-0.524c-1.335,-1.534 -2.738,-2.963 -4.223,-4.233c-2.127,-1.817 -4.415,-3.306 -6.824,-4.339c-1.833,-0.786 -3.732,-1.303 -5.651,-1.538c-1.404,-0.172 -2.816,-0.189 -4.224,-0.098c-2.772,0.178 -5.532,0.815 -8.156,2.025c-1.355,0.625 -2.67,1.402 -3.925,2.323c-1.099,0.806 -2.152,1.722 -3.149,2.732c-1.798,1.821 -3.413,3.943 -4.85,6.256c-1.391,2.24 -2.615,4.66 -3.659,7.21c-0.448,1.091 -0.862,2.207 -1.243,3.342c-0.3,0.891 -0.58,1.793 -0.84,2.706c-1.876,6.571 -2.73,13.592 -2.943,20.592c-0.048,1.575 -0.064,3.152 -0.049,4.728c0.063,6.821 0.728,13.669 2.292,20.183c0.232,0.964 0.483,1.92 0.753,2.865c0.346,1.208 0.725,2.399 1.136,3.57c0.654,1.861 1.391,3.67 2.21,5.413c0.698,1.485 1.455,2.922 2.266,4.303c1.326,2.256 2.799,4.366 4.435,6.234c1.731,1.975 3.643,3.67 5.704,4.98c2.03,1.29 4.191,2.196 6.406,2.724c2.088,0.498 4.218,0.659 6.337,0.563c2.097,-0.095 4.191,-0.453 6.221,-1.158c1.16,-0.403 2.297,-0.919 3.396,-1.554c1.069,-0.619 2.101,-1.35 3.082,-2.187c1.971,-1.682 3.72,-3.789 5.227,-6.165c0.75,-1.184 1.442,-2.433 2.079,-3.728c0.296,-0.602 0.578,-1.215 0.853,-1.834l1.021,-1.454l1.388,-0.748l1.496,0.096c0.443,0.307 0.885,0.615 1.327,0.923Zm-111.545,-78.796c-0.385,0.006 -0.768,0.025 -1.15,0.067c-0.626,0.069 -1.247,0.195 -1.845,0.394c-0.559,0.187 -1.097,0.44 -1.593,0.759c-0.42,0.269 -0.809,0.584 -1.165,0.933c-0.355,0.348 -0.678,0.729 -0.965,1.135c-0.205,0.29 -0.39,0.592 -0.556,0.906c-0.119,0.224 -0.228,0.455 -0.327,0.689c-0.72,1.711 -0.891,3.599 -0.827,5.439c0.014,0.401 0.041,0.802 0.083,1.202c0.029,0.277 0.066,0.553 0.112,0.827c0.036,0.213 0.077,0.426 0.125,0.636c0.037,0.16 0.078,0.32 0.123,0.478c0.247,0.863 0.634,1.733 1.31,2.346c0.117,0.106 0.24,0.203 0.37,0.291c0.585,0.395 1.277,0.604 1.968,0.719c0.388,0.065 0.781,0.1 1.174,0.115c0.219,0.008 0.439,0.014 0.658,0.003c0.294,-0.014 0.586,-0.047 0.878,-0.087c0.382,-0.052 0.762,-0.119 1.142,-0.19c0.286,-0.095 0.573,-0.188 0.86,-0.28c0.636,-0.201 1.274,-0.399 1.921,-0.566c0.489,-0.126 0.986,-0.238 1.491,-0.279c0.191,-0.015 0.381,-0.019 0.573,-0.015c0.605,0.016 1.208,0.124 1.78,0.322c0.416,0.144 0.816,0.335 1.19,0.568c0.266,0.165 0.52,0.352 0.758,0.556c0.188,0.161 0.367,0.333 0.536,0.514c1.149,1.23 1.8,2.834 2.211,4.445c0.066,0.257 0.126,0.517 0.181,0.777c0.075,0.359 0.142,0.721 0.2,1.083c0.085,0.528 0.155,1.057 0.212,1.588c0.079,0.735 0.136,1.473 0.177,2.212c0.058,1.06 0.082,2.122 0.089,3.184c0.028,11.233 0.029,22.467 0,33.7c-0.008,1.05 -0.033,2.1 -0.095,3.148c-0.044,0.732 -0.104,1.464 -0.189,2.192c-0.056,0.483 -0.123,0.964 -0.204,1.443c-0.061,0.363 -0.13,0.725 -0.209,1.085c-0.058,0.262 -0.121,0.523 -0.19,0.782c-0.408,1.533 -1.041,3.046 -2.105,4.244c-0.161,0.181 -0.332,0.355 -0.511,0.518c-0.265,0.242 -0.55,0.463 -0.851,0.657c-0.361,0.234 -0.746,0.43 -1.148,0.583c-0.553,0.211 -1.136,0.339 -1.725,0.383c-0.916,0.069 -1.836,-0.065 -2.726,-0.271l-0.098,-0.024l-4.782,-1.104c-0.112,0.004 -0.225,0.011 -0.338,0.018c-0.622,0.046 -1.243,0.141 -1.834,0.346c-0.391,0.136 -0.766,0.322 -1.095,0.573c-0.813,0.618 -1.267,1.582 -1.548,2.54c-0.047,0.16 -0.089,0.321 -0.127,0.483c-0.059,0.25 -0.108,0.502 -0.15,0.756c-0.054,0.325 -0.095,0.653 -0.126,0.982c-0.049,0.514 -0.074,1.03 -0.081,1.546c-0.009,0.701 0.018,1.403 0.108,2.099c0.147,1.147 0.46,2.277 0.996,3.306c0.195,0.376 0.419,0.737 0.67,1.079c0.337,0.462 0.721,0.891 1.144,1.276c0.387,0.353 0.81,0.666 1.264,0.928c0.945,0.544 2.009,0.842 3.091,0.952c0.636,0.065 1.274,0.059 1.912,0.042c0.68,-0.018 1.359,-0.052 2.038,-0.095c1.999,-0.126 3.993,-0.322 5.983,-0.538c0.87,-0.094 1.738,-0.196 2.608,-0.291c0.559,-0.06 1.119,-0.118 1.679,-0.175c2.288,-0.225 4.583,-0.426 6.882,-0.495c0.76,-0.023 1.519,-0.023 2.279,-0.019c0.907,0.005 1.813,0.017 2.719,0.037c2.242,0.049 4.484,0.147 6.721,0.315c0.902,0.068 1.803,0.149 2.703,0.239c0.864,0.091 1.727,0.185 2.591,0.277c1.242,0.13 2.484,0.258 3.726,0.378c0.726,0.069 1.452,0.136 2.178,0.198c0.466,0.04 0.931,0.077 1.397,0.11c0.42,0.029 0.84,0.057 1.26,0.068c0.395,0.01 0.791,-0.004 1.185,-0.03c0.22,-0.015 0.439,-0.036 0.658,-0.062c1.196,-0.144 2.411,-0.477 3.398,-1.193c0.17,-0.124 0.333,-0.258 0.486,-0.402c0.96,-0.901 1.516,-2.146 1.858,-3.398c0.07,-0.259 0.133,-0.521 0.187,-0.784c0.06,-0.286 0.11,-0.575 0.153,-0.864c0.055,-0.369 0.098,-0.739 0.131,-1.11c0.047,-0.527 0.073,-1.056 0.084,-1.585c0.017,-0.824 0,-1.65 -0.088,-2.47c-0.031,-0.286 -0.07,-0.571 -0.12,-0.853c-0.039,-0.219 -0.084,-0.437 -0.137,-0.652c-0.041,-0.164 -0.086,-0.327 -0.137,-0.488c-0.038,-0.121 -0.08,-0.24 -0.125,-0.359c-0.244,-0.643 -0.607,-1.272 -1.191,-1.662c-0.52,-0.349 -1.15,-0.501 -1.764,-0.573c-0.414,-0.048 -0.836,-0.066 -1.253,-0.04c-0.973,0.059 -1.924,0.301 -2.87,0.518c-0.175,0.039 -0.351,0.077 -0.526,0.115c-0.542,0.112 -1.086,0.216 -1.636,0.289c-0.343,0.046 -0.69,0.077 -1.037,0.083c-0.336,0.006 -0.673,-0.012 -1.007,-0.056c-0.602,-0.079 -1.192,-0.243 -1.749,-0.487c-0.416,-0.183 -0.811,-0.409 -1.18,-0.674c-0.277,-0.198 -0.537,-0.418 -0.781,-0.654c-0.168,-0.163 -0.327,-0.334 -0.479,-0.512c-1.19,-1.4 -1.833,-3.178 -2.217,-4.953c-0.067,-0.308 -0.126,-0.617 -0.178,-0.928c-0.078,-0.462 -0.143,-0.927 -0.196,-1.394c-0.068,-0.595 -0.118,-1.193 -0.154,-1.791c-0.053,-0.87 -0.075,-1.741 -0.083,-2.613c-0.063,-20.588 0.18,-41.176 -0.002,-61.763c-0.007,-0.495 -0.032,-0.989 -0.093,-1.48c-0.038,-0.305 -0.09,-0.609 -0.165,-0.907c-0.043,-0.173 -0.093,-0.344 -0.156,-0.51c-0.037,-0.098 -0.077,-0.194 -0.125,-0.287c-0.026,-0.051 -0.053,-0.101 -0.084,-0.15c-0.049,-0.077 -0.105,-0.157 -0.181,-0.209c-0.06,-0.041 -0.132,-0.065 -0.201,-0.084c-0.052,-0.014 -0.105,-0.025 -0.158,-0.034c-0.083,-0.014 -0.166,-0.023 -0.25,-0.029c-0.053,-0.003 -0.109,-0.01 -0.163,-0.007c-0.082,0.005 -0.167,0.016 -0.248,0.025c-0.262,0.03 -0.523,0.063 -0.785,0.096c-0.544,0.071 -1.088,0.147 -1.632,0.223c-1.325,0.188 -2.649,0.389 -3.975,0.576c-1.579,0.216 -3.161,0.407 -4.749,0.537c-1.344,0.11 -2.693,0.178 -4.043,0.168c-1.438,-0.01 -2.875,-0.091 -4.308,-0.207c-1.718,-0.139 -3.432,-0.329 -5.142,-0.549c-1.07,-0.137 -2.138,-0.294 -3.207,-0.438c-0.383,-0.05 -0.766,-0.099 -1.15,-0.145c-1.185,-0.138 -2.375,-0.261 -3.569,-0.285c-0.119,-0.001 -0.238,-0.002 -0.357,-0.001Zm-137.904,14.146c0.98,0.008 1.958,0.057 2.932,0.162c1.582,0.171 3.149,0.483 4.667,0.96c1.586,0.498 3.114,1.179 4.537,2.039c0.975,0.59 1.9,1.263 2.762,2.009c0.651,0.563 1.266,1.167 1.843,1.805c0.39,0.43 0.762,0.877 1.116,1.336c2.599,3.37 4.219,7.395 5.239,11.5c0.183,0.739 0.348,1.483 0.495,2.23c0.182,0.918 0.338,1.841 0.471,2.767c0.173,1.196 0.31,2.398 0.415,3.602c0.14,1.602 0.226,3.207 0.269,4.814c0.059,2.184 0.044,4.372 -0.05,6.555c-0.068,1.571 -0.178,3.14 -0.344,4.704c-0.124,1.177 -0.279,2.349 -0.471,3.516c-0.138,0.835 -0.294,1.667 -0.472,2.495c-0.144,0.665 -0.301,1.327 -0.474,1.985c-0.134,0.513 -0.278,1.023 -0.432,1.53c-1.046,3.433 -2.574,6.759 -4.811,9.585c-0.356,0.45 -0.73,0.886 -1.12,1.306c-0.579,0.624 -1.196,1.213 -1.848,1.76c-0.864,0.726 -1.79,1.378 -2.765,1.946c-1.423,0.829 -2.948,1.477 -4.528,1.943c-2.327,0.685 -4.755,0.978 -7.178,0.978c-2.382,0 -4.769,-0.303 -7.053,-0.988c-1.607,-0.482 -3.156,-1.151 -4.603,-1.999c-0.947,-0.556 -1.85,-1.187 -2.7,-1.882c-3.003,-2.456 -5.296,-5.692 -6.953,-9.18c-0.273,-0.576 -0.53,-1.16 -0.771,-1.751c-0.27,-0.663 -0.519,-1.333 -0.75,-2.011c-0.258,-0.757 -0.492,-1.522 -0.705,-2.294c-0.255,-0.927 -0.479,-1.863 -0.675,-2.804c-0.232,-1.118 -0.425,-2.245 -0.583,-3.376c-0.208,-1.485 -0.356,-2.978 -0.455,-4.474c-0.121,-1.827 -0.17,-3.658 -0.159,-5.489c0.015,-2.536 0.15,-5.073 0.447,-7.592c0.404,-3.431 1.11,-6.839 2.258,-10.101c0.258,-0.733 0.539,-1.457 0.843,-2.171c0.273,-0.642 0.565,-1.276 0.878,-1.9c0.72,-1.438 1.547,-2.823 2.485,-4.129c1.236,-1.719 2.671,-3.3 4.31,-4.643c0.399,-0.328 0.81,-0.64 1.232,-0.938c0.699,-0.492 1.427,-0.941 2.181,-1.342c1.205,-0.642 2.476,-1.16 3.785,-1.549c1.384,-0.411 2.811,-0.677 4.249,-0.81c0.704,-0.065 1.411,-0.097 2.118,-0.104c0.184,-0.001 0.184,-0.001 0.368,0Zm539.131,0c0.98,0.008 1.958,0.057 2.932,0.162c1.582,0.171 3.149,0.483 4.667,0.96c1.586,0.499 3.114,1.179 4.537,2.039c0.975,0.59 1.9,1.263 2.763,2.009c0.65,0.563 1.265,1.167 1.842,1.805c0.39,0.43 0.761,0.876 1.116,1.336c2.268,2.94 3.793,6.389 4.821,9.942c0.149,0.516 0.288,1.036 0.418,1.558c0.183,0.739 0.348,1.483 0.495,2.23c0.182,0.918 0.338,1.841 0.471,2.767c0.173,1.197 0.309,2.398 0.415,3.602c0.14,1.602 0.226,3.207 0.269,4.814c0.059,2.184 0.044,4.372 -0.05,6.555c-0.068,1.571 -0.178,3.14 -0.344,4.704c-0.124,1.176 -0.279,2.349 -0.471,3.516c-0.138,0.835 -0.294,1.667 -0.472,2.494c-0.143,0.666 -0.301,1.329 -0.474,1.987c-1.045,3.979 -2.674,7.871 -5.243,11.114c-0.357,0.45 -0.73,0.886 -1.12,1.306c-0.579,0.624 -1.196,1.212 -1.848,1.76c-0.864,0.726 -1.79,1.378 -2.765,1.946c-1.423,0.829 -2.948,1.477 -4.528,1.943c-2.327,0.685 -4.755,0.978 -7.178,0.978c-2.382,0 -4.769,-0.303 -7.053,-0.988c-1.607,-0.482 -3.156,-1.151 -4.603,-1.999c-0.948,-0.556 -1.851,-1.187 -2.701,-1.883c-3.051,-2.496 -5.369,-5.797 -7.033,-9.35c-0.243,-0.521 -0.473,-1.048 -0.69,-1.58c-0.27,-0.662 -0.519,-1.333 -0.75,-2.011c-0.258,-0.757 -0.492,-1.522 -0.705,-2.294c-0.255,-0.927 -0.479,-1.863 -0.675,-2.805c-0.232,-1.118 -0.425,-2.244 -0.583,-3.375c-0.208,-1.484 -0.356,-2.977 -0.455,-4.473c-0.122,-1.827 -0.17,-3.659 -0.159,-5.49c0.015,-2.536 0.15,-5.073 0.447,-7.592c0.404,-3.432 1.11,-6.839 2.258,-10.101c0.258,-0.732 0.539,-1.457 0.842,-2.171c0.273,-0.642 0.566,-1.276 0.879,-1.9c0.28,-0.559 0.576,-1.11 0.888,-1.651c0.998,-1.728 2.162,-3.365 3.508,-4.841c1.092,-1.197 2.306,-2.284 3.631,-3.218c0.699,-0.491 1.427,-0.94 2.18,-1.342c1.206,-0.642 2.477,-1.16 3.786,-1.549c1.384,-0.411 2.811,-0.677 4.249,-0.81c0.704,-0.065 1.411,-0.097 2.118,-0.104c0.184,-0.001 0.184,-0.001 0.368,0Zm-311.904,-2.761c0.625,0.007 1.249,0.047 1.87,0.131c1.213,0.163 2.413,0.482 3.575,0.973c0.984,0.416 1.938,0.955 2.846,1.609c0.492,0.355 0.971,0.745 1.434,1.165c1.672,1.519 3.119,3.438 4.333,5.585c1.382,2.444 2.463,5.171 3.256,8.035c1.32,4.769 1.846,9.87 1.9,14.932c0.011,1.031 0.003,2.062 -0.025,3.092c-0.133,5.009 -0.734,10.041 -2.105,14.73c-0.206,0.706 -0.43,1.404 -0.671,2.09c-0.259,0.736 -0.538,1.46 -0.838,2.167c-0.41,0.968 -0.859,1.907 -1.346,2.81c-0.579,1.075 -1.21,2.1 -1.896,3.057c-0.786,1.095 -1.644,2.099 -2.571,2.979c-0.982,0.932 -2.039,1.723 -3.151,2.347c-0.913,0.513 -1.862,0.912 -2.83,1.196c-0.98,0.288 -1.979,0.459 -2.982,0.524c-1.569,0.101 -3.151,-0.052 -4.682,-0.53c-0.856,-0.267 -1.695,-0.635 -2.502,-1.102c-0.804,-0.467 -1.575,-1.031 -2.303,-1.683c-2.443,-2.189 -4.336,-5.325 -5.694,-8.77c-0.201,-0.51 -0.391,-1.029 -0.57,-1.555c-0.218,-0.64 -0.42,-1.29 -0.606,-1.948c-0.532,-1.882 -0.936,-3.826 -1.237,-5.796c-0.427,-2.792 -0.649,-5.636 -0.73,-8.481c-0.024,-0.85 -0.033,-1.7 -0.035,-2.55l0,-2.891c0.029,-0.735 0.062,-1.469 0.106,-2.203c0.08,-1.344 0.19,-2.685 0.335,-4.02c0.179,-1.643 0.411,-3.277 0.708,-4.891c0.218,-1.181 0.47,-2.351 0.762,-3.504c0.226,-0.892 0.476,-1.774 0.753,-2.641c0.219,-0.688 0.454,-1.367 0.707,-2.034c0.21,-0.556 0.432,-1.104 0.667,-1.642c1.236,-2.834 2.818,-5.443 4.797,-7.421c0.281,-0.28 0.569,-0.547 0.864,-0.799c0.423,-0.363 0.86,-0.695 1.311,-0.995c0.725,-0.485 1.484,-0.883 2.263,-1.189c0.857,-0.336 1.737,-0.561 2.626,-0.679c0.469,-0.062 0.939,-0.092 1.41,-0.098c0.083,-0.001 0.167,-0.001 0.251,0Zm-68.94,-53.104c-0.904,0.008 -1.807,0.079 -2.698,0.235c-1.186,0.208 -2.345,0.568 -3.433,1.083c-1.65,0.78 -3.118,1.906 -4.367,3.23c-0.581,0.616 -1.116,1.276 -1.587,1.981c-0.553,0.829 -1.015,1.718 -1.37,2.649c-0.573,1.504 -0.856,3.104 -0.91,4.71c-0.031,0.922 0.011,1.847 0.142,2.76c0.146,1.012 0.404,2.008 0.777,2.961c0.365,0.933 0.84,1.821 1.401,2.649c0.58,0.856 1.25,1.647 1.98,2.377c0.729,0.73 1.521,1.4 2.376,1.979c0.853,0.578 1.768,1.063 2.731,1.433c1.579,0.608 3.269,0.889 4.959,0.898c1.086,0.005 2.175,-0.086 3.241,-0.301c0.981,-0.198 1.941,-0.5 2.854,-0.911c1.51,-0.678 2.873,-1.645 4.061,-2.794c0.686,-0.663 1.319,-1.384 1.874,-2.161c0.597,-0.839 1.103,-1.742 1.494,-2.695c0.35,-0.85 0.608,-1.737 0.778,-2.64c0.179,-0.947 0.261,-1.91 0.267,-2.873c0.006,-1.057 -0.081,-2.116 -0.283,-3.154c-0.187,-0.957 -0.472,-1.894 -0.86,-2.788c-0.388,-0.894 -0.877,-1.743 -1.447,-2.532c-0.468,-0.647 -0.989,-1.253 -1.55,-1.821c-1.192,-1.205 -2.568,-2.231 -4.103,-2.957c-1.089,-0.515 -2.247,-0.875 -3.433,-1.083c-0.827,-0.145 -1.663,-0.216 -2.501,-0.233c-0.131,-0.001 -0.262,-0.002 -0.393,-0.002Z" style="fill:#f9f9f9;"/><path d="M1098.86,10.653c-12.92,0 -22.931,10.552 -22.931,23.067c0,12.514 9.944,22.931 22.796,22.931c12.92,0 22.999,-10.552 22.999,-23.067c0,-12.582 -10.011,-22.931 -22.864,-22.931Zm-0.135,40.384c-9.808,0 -17.249,-7.779 -17.249,-17.317c0,-9.538 7.508,-17.453 17.384,-17.453c9.809,0 17.385,7.779 17.385,17.317c0,9.538 -7.644,17.453 -17.52,17.453Zm9.741,-21.376c0,-4.803 -3.247,-7.509 -8.997,-7.509l-9.335,0l0,21.444l5.479,0l0,-5.953l4.059,0l3.179,5.953l6.291,0l-4.532,-7.035c2.503,-1.218 3.856,-3.653 3.856,-6.9Zm-12.853,-3.179l3.856,0c2.368,0 3.721,1.15 3.721,3.382c0,2.165 -1.353,3.45 -3.721,3.45l-3.856,0l0,-6.832Z" style="fill:#ff8200;fill-rule:nonzero;"/><path d="M1708.62,186.752c-0.209,-1.976 -0.313,-3.453 -0.313,-4.431c0,-2.463 1.019,-4.477 3.057,-6.041c2.037,-1.563 4.667,-2.345 7.889,-2.345c3.601,0 6.183,0.782 7.747,2.345c1.563,1.564 2.677,4.478 3.34,8.742c1.042,7.107 6.444,10.661 16.205,10.661c3.98,0 7.154,-0.948 9.523,-2.843c2.37,-1.895 3.554,-4.359 3.554,-7.391c0,-3.317 -1.042,-5.663 -3.127,-7.037c-2.085,-1.374 -7.06,-3.008 -14.925,-4.904l-9.382,-2.274c-4.075,-1.042 -7.865,-2.89 -11.372,-5.544c-6.823,-5.117 -10.234,-11.987 -10.234,-20.611c0,-8.718 2.914,-15.802 8.742,-21.251c5.828,-5.449 13.385,-8.173 22.672,-8.173c9.855,0 17.626,3.364 23.312,10.092c0.095,-3.317 0.734,-5.591 1.919,-6.823c1.185,-1.232 3.246,-1.848 6.183,-1.848c6.065,0 9.098,2.559 9.098,7.676c0,1.333 -0.125,3.249 -0.375,5.747l-0.103,1.015c-0.25,2.499 -0.375,4.414 -0.375,5.747c0,0.853 0.095,2.085 0.284,3.696c0.19,1.611 0.284,2.843 0.284,3.696l0,0.71c0,5.591 -3.222,8.387 -9.666,8.387c-5.401,0 -8.623,-2.274 -9.665,-6.823l-0.711,-2.985c-1.422,-6.16 -6.444,-9.24 -15.068,-9.24c-8.149,0 -12.224,2.843 -12.224,8.529c0,2.938 0.876,4.928 2.629,5.97c1.754,1.043 6.184,2.275 13.291,3.696c11.94,2.369 20.611,5.923 26.013,10.661c5.401,4.738 8.102,11.182 8.102,19.332c0,9.571 -3.269,17.413 -9.808,23.525c-6.539,6.112 -14.878,9.169 -25.018,9.169c-8.434,0 -16.536,-3.033 -24.307,-9.098c-0.284,5.307 -3.127,7.96 -8.528,7.96c-6.16,0 -9.24,-3.032 -9.24,-9.097c0,-1.99 0.142,-4.122 0.427,-6.397c0.379,-3.032 0.568,-5.354 0.568,-6.965c0,-0.977 -0.104,-2.454 -0.312,-4.431l-0.086,-0.804Zm489.267,-47.216c7.223,0.031 13.325,2.069 18.309,6.112c0.379,-3.98 2.937,-5.97 7.676,-5.97c4.832,0 7.249,1.705 7.249,5.117c0,1.137 -0.19,2.416 -0.569,3.838c-0.284,1.706 -0.426,3.316 -0.426,4.833c0,0.284 0.047,1.042 0.142,2.274l0,3.838c0,5.023 -2.511,7.534 -7.534,7.534c-3.601,0 -6.728,-1.801 -9.381,-5.402c-3.222,-4.359 -7.155,-6.539 -11.798,-6.539c-5.497,0 -8.245,1.896 -8.245,5.686c0,1.99 0.9,3.388 2.701,4.194c1.8,0.805 6.539,1.871 14.214,3.198c6.255,1.137 10.875,2.416 13.86,3.838c2.985,1.421 5.425,3.459 7.32,6.112c2.369,3.412 3.554,7.392 3.554,11.94c0,7.203 -2.772,13.22 -8.316,18.053c-5.543,4.833 -12.485,7.249 -20.824,7.249c-8.339,0 -15.92,-2.653 -22.743,-7.96c0,4.644 -2.37,6.965 -7.108,6.965c-5.117,0 -7.676,-2.084 -7.676,-6.254c0,-0.948 0.095,-2.416 0.285,-4.407c0.189,-1.99 0.284,-3.458 0.284,-4.406c0,-0.8 -0.063,-1.974 -0.187,-3.523l-0.052,-0.63c-0.125,-1.549 -0.187,-2.723 -0.187,-3.523c0,-4.264 2.653,-6.397 7.96,-6.397c2.558,0 4.501,0.38 5.828,1.138c1.326,0.758 2.748,2.227 4.264,4.406c2.369,3.506 4.549,5.804 6.539,6.894c1.99,1.09 4.928,1.635 8.813,1.635c6.823,0 10.234,-2.132 10.234,-6.397c0,-2.937 -2.748,-4.975 -8.244,-6.112l-8.245,-1.706c-6.728,-1.421 -11.49,-2.843 -14.285,-4.264c-2.796,-1.422 -4.999,-3.672 -6.61,-6.752c-1.611,-3.08 -2.417,-6.61 -2.417,-10.59c0,-7.107 2.346,-12.888 7.037,-17.342c4.691,-4.454 10.826,-6.681 18.408,-6.681l0.17,0.001Zm-833.005,74.058l-0.853,0l-4.975,-0.853c-1.137,-0.19 -2.748,-0.285 -4.833,-0.285c-2.464,0 -4.501,0.095 -6.112,0.285c-2.369,0.284 -3.648,0.426 -3.838,0.426c-2.938,0 -4.406,-1.706 -4.406,-5.117l0,-5.26c-4.928,8.434 -12.32,12.651 -22.175,12.651c-8.719,0 -15.897,-3.577 -21.535,-10.732c-5.639,-7.154 -8.458,-16.181 -8.458,-27.078c0,-11.088 2.772,-20.043 8.315,-26.866c5.544,-6.823 12.817,-10.235 21.82,-10.235c7.202,0 13.835,2.796 19.9,8.387l0,-10.234c0,-3.412 -1.184,-5.118 -3.553,-5.118c-0.569,0 -1.706,0.095 -3.412,0.285c-1.232,0.379 -2.464,0.568 -3.696,0.568c-1.8,0 -3.316,-0.758 -4.548,-2.274c-1.232,-1.516 -1.848,-3.412 -1.848,-5.686c0,-6.065 3.222,-9.097 9.666,-9.097c2.085,0 3.601,0.047 4.548,0.142c3.791,0.379 6.35,0.568 7.676,0.568c1.232,0 3.033,-0.094 5.402,-0.284c2.369,-0.189 4.122,-0.284 5.259,-0.284c2.369,0 4.004,0.545 4.904,1.634c0.901,1.09 1.351,3.104 1.351,6.042l0,64.676c0,4.833 0.9,7.25 2.7,7.25c0.569,0 1.28,-0.143 2.133,-0.427c0.568,-0.189 1.326,-0.284 2.274,-0.284c4.075,0 6.112,2.416 6.112,7.249c0,2.938 -0.71,5.331 -2.132,7.179c-1.421,1.847 -3.316,2.771 -5.686,2.772Zm659.274,0l-0.853,0l-4.975,-0.853c-1.137,-0.19 -2.748,-0.285 -4.833,-0.285c-2.464,0 -4.501,0.095 -6.112,0.285c-2.369,0.284 -3.649,0.426 -3.838,0.426c-2.938,0 -4.407,-1.706 -4.407,-5.117l0,-5.26c-4.927,8.434 -12.319,12.651 -22.174,12.651c-8.719,0 -15.897,-3.577 -21.536,-10.732c-5.638,-7.154 -8.457,-16.181 -8.457,-27.078c0,-11.088 2.772,-20.043 8.315,-26.866c5.544,-6.823 12.817,-10.235 21.82,-10.235c7.202,0 13.835,2.796 19.9,8.387l0,-10.234c0,-3.412 -1.184,-5.118 -3.553,-5.118c-0.569,0 -1.706,0.095 -3.412,0.285c-1.232,0.379 -2.464,0.568 -3.696,0.568c-1.8,0 -3.316,-0.758 -4.548,-2.274c-1.232,-1.516 -1.848,-3.412 -1.848,-5.686c0,-6.065 3.222,-9.097 9.666,-9.097c2.084,0 3.601,0.047 4.548,0.142c3.791,0.379 6.35,0.568 7.676,0.568c1.232,0 3.033,-0.094 5.402,-0.284c2.369,-0.189 4.122,-0.284 5.259,-0.284c2.369,0 4.004,0.545 4.904,1.634c0.9,1.09 1.351,3.104 1.351,6.042l0,64.676c0,4.833 0.9,7.25 2.7,7.25c0.569,0 1.28,-0.143 2.133,-0.427c0.568,-0.189 1.326,-0.284 2.274,-0.284c4.075,0 6.112,2.416 6.112,7.249c0,2.938 -0.711,5.331 -2.132,7.179c-1.421,1.847 -3.317,2.771 -5.686,2.772Zm-459.53,-74.058c7.222,0.031 13.325,2.069 18.308,6.112c0.38,-3.98 2.938,-5.97 7.676,-5.97c4.833,0 7.25,1.705 7.25,5.117c0,1.137 -0.19,2.416 -0.569,3.838c-0.284,1.706 -0.426,3.316 -0.426,4.833c0,0.284 0.047,1.042 0.142,2.274l0,3.838c0,5.023 -2.511,7.534 -7.534,7.534c-3.601,0 -6.728,-1.801 -9.381,-5.402c-3.222,-4.359 -7.155,-6.539 -11.799,-6.539c-5.496,0 -8.244,1.896 -8.244,5.686c0,1.99 0.9,3.388 2.701,4.194c1.8,0.805 6.538,1.871 14.214,3.198c6.255,1.137 10.875,2.416 13.86,3.838c2.985,1.421 5.425,3.459 7.32,6.112c2.369,3.412 3.554,7.392 3.554,11.94c0,7.203 -2.772,13.22 -8.316,18.053c-5.543,4.833 -12.485,7.249 -20.824,7.249c-8.339,0 -15.921,-2.653 -22.744,-7.96c0,4.644 -2.369,6.965 -7.107,6.965c-5.117,0 -7.676,-2.084 -7.676,-6.254c0,-0.948 0.095,-2.416 0.285,-4.407c0.189,-1.99 0.284,-3.458 0.284,-4.406c0,-0.8 -0.063,-1.974 -0.188,-3.523l-0.051,-0.63c-0.125,-1.549 -0.188,-2.723 -0.188,-3.523c0,-4.264 2.654,-6.397 7.961,-6.397c2.558,0 4.501,0.38 5.828,1.138c1.326,0.758 2.748,2.227 4.264,4.406c2.369,3.506 4.549,5.804 6.539,6.894c1.99,1.09 4.927,1.635 8.813,1.635c6.823,0 10.234,-2.132 10.234,-6.397c0,-2.937 -2.748,-4.975 -8.244,-6.112l-8.245,-1.706c-6.728,-1.421 -11.49,-2.843 -14.285,-4.264c-2.796,-1.422 -4.999,-3.672 -6.61,-6.752c-1.611,-3.08 -2.417,-6.61 -2.417,-10.59c0,-7.107 2.346,-12.888 7.037,-17.342c4.69,-4.454 10.826,-6.681 18.407,-6.681l0.171,0.001Zm302.327,2.627c2.149,0.333 3.756,0.5 4.822,0.5c1.138,0 2.843,-0.19 5.118,-0.569c2.274,-0.379 3.98,-0.569 5.117,-0.569c2.843,0 4.264,1.99 4.264,5.971l0.285,37.81c0.284,7.392 3.222,11.088 8.813,11.088c8.529,0 12.793,-5.923 12.793,-17.768l0,-13.22c0,-4.833 -1.09,-7.249 -3.269,-7.249c-0.569,0 -1.303,0.118 -2.204,0.355c-0.9,0.237 -1.634,0.355 -2.203,0.355c-3.506,0 -5.259,-2.511 -5.259,-7.533c0,-6.539 2.653,-9.809 7.96,-9.809c1.326,0 3.269,0.19 5.828,0.569c2.558,0.379 4.454,0.569 5.686,0.569c0.379,0 2.416,-0.237 6.112,-0.711c2.179,-0.284 3.743,-0.427 4.691,-0.427c3.032,0 4.548,1.706 4.548,5.118l0,43.212c0,4.738 0.901,7.107 2.701,7.107c0.758,0 1.422,-0.094 1.99,-0.284c0.569,-0.189 1.374,-0.284 2.417,-0.284c4.075,0 6.112,2.464 6.112,7.391c0,6.539 -2.796,9.809 -8.387,9.809c-1.137,0 -2.819,-0.19 -5.046,-0.569c-2.227,-0.379 -3.909,-0.569 -5.046,-0.569c-1.042,0 -2.582,0.19 -4.62,0.569c-2.037,0.379 -3.577,0.569 -4.62,0.569c-2.748,0 -4.122,-1.517 -4.122,-4.549l0,-5.544c-6.254,7.96 -14.546,11.94 -24.875,11.94c-4.359,0 -8.34,-0.947 -11.941,-2.842c-3.601,-1.896 -6.183,-4.431 -7.747,-7.605c-1.563,-3.175 -2.345,-9.027 -2.345,-17.555l0,-22.033c0,-3.317 -0.213,-5.259 -0.64,-5.828c-0.426,-0.568 -1.113,-0.853 -2.061,-0.853l-1.421,0c-0.285,0.095 -0.759,0.142 -1.422,0.142c-4.264,0 -6.396,-2.606 -6.396,-7.818c0,-6.349 2.89,-9.524 8.671,-9.524c1.066,0 2.673,0.167 4.822,0.5l0.874,0.138Zm-349.69,73.278c-7.771,0 -12.983,-3.127 -15.636,-9.381c-6.634,6.254 -14.499,9.381 -23.596,9.381c-7.487,0 -13.457,-1.966 -17.911,-5.899c-4.454,-3.932 -6.681,-9.168 -6.681,-15.707c0,-9.95 4.312,-16.394 12.936,-19.332c3.695,-1.232 7.96,-2.274 12.793,-3.127c6.728,-1.137 11.3,-2.44 13.717,-3.909c2.416,-1.469 3.625,-3.719 3.625,-6.752c0,-2.179 -0.924,-4.004 -2.772,-5.472c-1.848,-1.469 -4.146,-2.204 -6.894,-2.204c-3.128,0 -4.691,0.995 -4.691,2.985c0,0.664 0.047,1.327 0.142,1.99l0,0.569c0,2.653 -1.113,4.88 -3.34,6.681c-2.227,1.8 -4.999,2.701 -8.316,2.701c-3.791,0 -6.918,-1.138 -9.382,-3.412c-2.464,-2.274 -3.695,-5.117 -3.695,-8.529c0,-5.117 2.7,-9.144 8.102,-12.082c5.401,-2.938 12.84,-4.407 22.317,-4.407c10.234,0 17.863,1.564 22.885,4.691c5.402,3.412 8.103,9.761 8.103,19.048l0,29.424c0,3.033 0.758,4.549 2.274,4.549c0.758,0 1.469,-0.048 2.132,-0.142c0.285,-0.095 0.616,-0.143 0.995,-0.143c2.18,0 4.028,0.759 5.544,2.275c1.516,1.516 2.274,3.364 2.274,5.543c0,3.128 -1.397,5.686 -4.193,7.676c-2.796,1.99 -6.373,2.985 -10.732,2.985Zm125.799,-58.564c-1.99,0 -3.174,0.332 -3.553,0.995c-0.379,0.664 -0.569,1.706 -0.569,3.127l0,5.828l-0.142,8.814l-0.284,9.523c-0.095,3.128 -0.143,4.407 -0.143,3.838c0,5.591 1.801,8.387 5.402,8.387c3.412,0 5.117,-2.511 5.117,-7.534c0,-0.758 -0.047,-1.327 -0.142,-1.706c0,-0.473 0,-1.089 0,-1.848c-0.095,-0.663 -0.142,-1.137 -0.142,-1.421c0,-5.117 2.559,-7.676 7.676,-7.676c5.97,0 8.955,4.786 8.955,14.357c0,7.486 -2.227,13.338 -6.681,17.555c-4.454,4.217 -10.661,6.325 -18.621,6.325c-15.636,0 -23.454,-8.244 -23.454,-24.733c0,-2.653 0.118,-6.633 0.355,-11.94c0.237,-5.307 0.356,-9.287 0.356,-11.941l0,-4.548c0,-2.369 -0.214,-3.862 -0.64,-4.478c-0.426,-0.616 -1.445,-0.924 -3.056,-0.924l-2.274,0c-1.801,0 -3.27,-0.687 -4.407,-2.061c-1.137,-1.374 -1.706,-3.151 -1.706,-5.33c0,-2.18 0.593,-4.052 1.777,-5.615c1.185,-1.564 2.582,-2.346 4.193,-2.346l2.701,0c2.275,0 3.601,-0.663 3.98,-1.99c0.285,-0.758 0.427,-2.037 0.427,-3.838l0,-6.965c0,-3.316 0.876,-5.591 2.629,-6.823c1.754,-1.232 4.952,-1.848 9.595,-1.848c3.317,0 5.568,0.474 6.752,1.422c1.185,0.947 1.777,3.032 1.777,6.254l0,7.676c0,2.748 0.261,4.454 0.782,5.117c0.521,0.664 1.871,0.995 4.051,0.995l10.235,0c5.591,0.001 8.386,2.607 8.386,7.818c0,5.023 -2.558,7.534 -7.676,7.534l-11.656,0Zm185.643,0c-1.99,0 -3.174,0.332 -3.553,0.995c-0.38,0.664 -0.569,1.706 -0.569,3.127l0,5.828l-0.142,8.814l-0.284,9.523c-0.095,3.128 -0.143,4.407 -0.143,3.838c0,5.591 1.801,8.387 5.402,8.387c3.411,0 5.117,-2.511 5.117,-7.534c0,-0.758 -0.047,-1.327 -0.142,-1.706c0,-0.473 0,-1.089 0,-1.848c-0.095,-0.663 -0.142,-1.137 -0.142,-1.421c0,-5.117 2.559,-7.676 7.676,-7.676c5.97,0 8.955,4.786 8.955,14.357c0,7.486 -2.227,13.338 -6.681,17.555c-4.454,4.217 -10.661,6.325 -18.621,6.325c-15.636,0 -23.454,-8.244 -23.454,-24.733c0,-2.653 0.118,-6.633 0.355,-11.94c0.237,-5.307 0.356,-9.287 0.356,-11.941l0,-4.548c0,-2.369 -0.214,-3.862 -0.64,-4.478c-0.427,-0.616 -1.445,-0.924 -3.056,-0.924l-2.275,0c-1.8,0 -3.269,-0.687 -4.406,-2.061c-1.137,-1.374 -1.706,-3.151 -1.706,-5.33c0,-2.18 0.592,-4.052 1.777,-5.615c1.185,-1.564 2.582,-2.346 4.193,-2.346l2.701,0c2.274,0 3.601,-0.663 3.98,-1.99c0.284,-0.758 0.427,-2.037 0.427,-3.838l0,-6.965c0,-3.316 0.876,-5.591 2.629,-6.823c1.753,-1.232 4.952,-1.848 9.595,-1.848c3.317,0 5.568,0.474 6.752,1.422c1.185,0.947 1.777,3.032 1.777,6.254l0,7.676c0,2.748 0.261,4.454 0.782,5.117c0.521,0.664 1.871,0.995 4.051,0.995l10.234,0c5.592,0.001 8.387,2.607 8.387,7.818c0,5.023 -2.558,7.534 -7.676,7.534l-11.656,0Zm-407.817,7.25c0,-1.422 0.474,-2.843 1.421,-4.265c-2.179,-1.516 -4.596,-2.274 -7.249,-2.274c-4.17,0 -7.558,1.729 -10.164,5.188c-2.606,3.459 -3.909,8.079 -3.909,13.86c0,5.97 1.374,10.755 4.123,14.356c2.748,3.601 6.396,5.402 10.945,5.402c4.643,0 8.055,-2.511 10.234,-7.534c1.327,-3.127 2.464,-5.117 3.412,-5.97c1.327,-1.137 3.411,-1.706 6.254,-1.706c3.222,0 5.828,0.972 7.818,2.914c1.99,1.943 2.985,4.43 2.985,7.463c0,6.444 -3.127,12.035 -9.381,16.773c-6.255,4.738 -13.741,7.107 -22.459,7.107c-11.182,0 -20.09,-3.435 -26.724,-10.305c-6.633,-6.871 -9.95,-16.086 -9.95,-27.648c0,-11.656 3.412,-20.895 10.235,-27.718c6.823,-6.823 16.015,-10.235 27.576,-10.235c8.339,0 15.233,1.967 20.682,5.899c5.449,3.933 8.174,8.932 8.174,14.997c0,3.79 -1.232,6.847 -3.696,9.168c-2.464,2.322 -5.639,3.483 -9.524,3.483c-3.222,0 -5.828,-0.829 -7.818,-2.488c-1.99,-1.658 -2.985,-3.814 -2.985,-6.467Zm705.187,51.314c-11.751,0 -20.824,-3.316 -27.221,-9.95c-6.397,-6.633 -9.595,-15.968 -9.595,-28.003c0,-11.94 3.175,-21.25 9.524,-27.931c6.349,-6.681 15.257,-10.022 26.723,-10.022c11.277,0 20.161,3.317 26.653,9.951c6.491,6.633 9.737,15.73 9.737,27.292c0,12.129 -3.151,21.606 -9.453,28.429c-6.302,6.823 -15.091,10.234 -26.368,10.234Zm-881.733,0c-11.75,0 -20.824,-3.316 -27.221,-9.95c-6.396,-6.633 -9.595,-15.968 -9.595,-28.003c0,-11.94 3.175,-21.25 9.524,-27.931c6.349,-6.681 15.257,-10.022 26.724,-10.022c11.277,0 20.161,3.317 26.652,9.951c6.491,6.633 9.737,15.73 9.737,27.292c0,12.129 -3.151,21.606 -9.453,28.429c-6.301,6.823 -15.091,10.234 -26.368,10.234Zm-89.267,-34.115c-2.559,-0.094 -3.838,1.327 -3.838,4.265l0,4.548c0,3.222 1.421,4.833 4.264,4.833c1.137,0 2.559,-0.142 4.264,-0.426c2.085,-0.379 3.838,-0.569 5.26,-0.569c2.369,0 4.264,0.853 5.686,2.559c1.421,1.706 2.132,3.98 2.132,6.823c0,3.127 -0.948,5.638 -2.843,7.534c-1.895,1.895 -4.359,2.843 -7.392,2.843c-2.653,0 -6.586,-0.237 -11.798,-0.711c-5.212,-0.474 -9.145,-0.711 -11.798,-0.711c-4.075,0 -7.486,0.142 -10.234,0.427l-6.966,0.71c-1.895,0.19 -3.174,0.285 -3.838,0.285c-3.032,0 -5.472,-0.948 -7.32,-2.843c-1.848,-1.896 -2.772,-4.407 -2.772,-7.534c0,-2.653 0.734,-4.88 2.203,-6.681c1.469,-1.8 3.293,-2.701 5.473,-2.701c0.853,0 2.037,0.166 3.554,0.498c1.516,0.332 2.606,0.497 3.269,0.497c2.559,0 3.838,-3.222 3.838,-9.666l0,-39.374c0,-3.032 -0.095,-4.975 -0.284,-5.828c-0.474,-2.464 -1.659,-3.696 -3.554,-3.696c-0.758,0 -1.872,0.166 -3.341,0.498c-1.468,0.331 -2.629,0.497 -3.482,0.497c-2.18,0 -4.004,-0.9 -5.473,-2.701c-1.469,-1.8 -2.203,-4.027 -2.203,-6.68c0,-3.128 0.948,-5.663 2.843,-7.605c1.895,-1.943 4.359,-2.914 7.392,-2.914c0.094,0 0.236,0 0.426,0c0.19,0.095 0.379,0.142 0.569,0.142c2.274,0 5.733,0.237 10.376,0.711c4.644,0.473 8.15,0.71 10.519,0.71c4.549,0 9.524,-0.189 14.925,-0.568c6.823,-0.474 10.709,-0.711 11.656,-0.711c10.33,0 18.693,2.914 25.089,8.742c6.397,5.828 9.595,13.48 9.595,22.957c0,9.855 -3.293,17.673 -9.879,23.454c-6.586,5.78 -15.565,8.671 -26.937,8.671c-0.947,0 -2.748,-0.048 -5.401,-0.142l-3.98,-0.143Zm912.862,-39.801c2.654,0 3.98,1.848 3.98,5.544l0,42.786c0,4.833 0.901,7.25 2.701,7.25c0.379,0 1.066,-0.119 2.061,-0.356c0.995,-0.237 1.824,-0.355 2.488,-0.355c3.98,0 5.97,2.464 5.97,7.391c0,6.539 -2.796,9.809 -8.387,9.809c-0.947,0 -3.601,-0.237 -7.96,-0.711c-2.653,-0.284 -5.686,-0.427 -9.097,-0.427c-1.706,0 -4.217,0.19 -7.534,0.569c-3.317,0.379 -5.781,0.569 -7.392,0.569c-2.558,0 -4.643,-0.877 -6.254,-2.63c-1.611,-1.753 -2.417,-4.004 -2.417,-6.752c0,-5.402 2.275,-8.102 6.823,-8.102c0,0 1.232,0.284 3.696,0.852c0.379,0.095 0.711,0.143 0.995,0.143c1.706,0 2.559,-2.654 2.559,-7.961l0,-23.027c0,-5.402 -0.806,-8.103 -2.417,-8.103c-0.284,0 -1.137,0.237 -2.558,0.711c-0.948,0.19 -1.706,0.284 -2.275,0.284c-4.548,0 -6.823,-2.653 -6.823,-7.96c0,-2.843 0.806,-5.141 2.417,-6.894c1.611,-1.753 3.743,-2.63 6.396,-2.63c1.043,0 2.559,0.143 4.549,0.427c3.317,0.474 5.97,0.711 7.96,0.711c1.611,0 3.696,-0.19 6.255,-0.569c2.558,-0.379 3.98,-0.569 4.264,-0.569Zm-571.285,43.497l0,-3.127c-0.664,0.379 -4.833,1.564 -12.509,3.554c-5.212,1.326 -7.818,3.364 -7.818,6.112c0,4.359 2.558,6.539 7.676,6.539c8.434,0 12.651,-4.36 12.651,-13.078Zm-252.878,-28.003c-4.17,0 -7.463,1.825 -9.879,5.473c-2.417,3.648 -3.625,8.647 -3.625,14.996c0,6.444 1.208,11.467 3.625,15.068c2.416,3.601 5.804,5.401 10.163,5.401c8.813,0 13.22,-6.823 13.22,-20.469c0,-13.646 -4.502,-20.469 -13.504,-20.469Zm881.732,0c-4.169,0 -7.462,1.825 -9.879,5.473c-2.416,3.648 -3.625,8.647 -3.625,14.996c0,6.444 1.209,11.467 3.625,15.068c2.417,3.601 5.805,5.401 10.164,5.401c8.813,0 13.219,-6.823 13.219,-20.469c0,-13.646 -4.501,-20.469 -13.504,-20.469Zm-143.425,1.422c-3.506,0 -6.373,1.658 -8.6,4.975c-2.227,3.317 -3.483,7.818 -3.767,13.504c0,0 0,0.616 0,1.848c0,5.78 1.114,10.329 3.341,13.646c2.227,3.317 5.235,4.975 9.026,4.975c4.17,0 7.557,-1.801 10.163,-5.402c2.606,-3.601 3.909,-8.386 3.909,-14.356c0,-5.781 -1.279,-10.424 -3.838,-13.931c-2.558,-3.506 -5.97,-5.259 -10.234,-5.259Zm-659.274,0c-3.506,0 -6.373,1.658 -8.6,4.975c-2.227,3.317 -3.482,7.818 -3.767,13.504c0,0 0,0.616 0,1.848c0,5.78 1.114,10.329 3.341,13.646c2.227,3.317 5.235,4.975 9.026,4.975c4.17,0 7.557,-1.801 10.163,-5.402c2.606,-3.601 3.909,-8.386 3.909,-14.356c0,-5.781 -1.279,-10.424 -3.837,-13.931c-2.559,-3.506 -5.971,-5.259 -10.235,-5.259Zm-171.57,-1.137c0,2.653 0.237,4.288 0.71,4.904c0.474,0.616 1.753,0.971 3.838,1.066l2.275,0.142c11.182,0.663 16.773,-3.743 16.773,-13.22c0,-9.097 -5.023,-13.646 -15.068,-13.646c-2.464,0 -4.169,0.142 -5.117,0.427c-1.706,0.474 -2.748,1.611 -3.127,3.411c-0.19,0.948 -0.284,2.369 -0.284,4.265l0,12.651Zm908.598,-21.18c-3.506,0 -6.539,-1.279 -9.098,-3.838c-2.558,-2.559 -3.837,-5.591 -3.837,-9.097c0,-3.601 1.255,-6.658 3.766,-9.169c2.512,-2.511 5.568,-3.767 9.169,-3.767c3.601,0 6.657,1.256 9.168,3.767c2.512,2.511 3.767,5.568 3.767,9.169c0,3.601 -1.255,6.657 -3.767,9.168c-2.511,2.511 -5.567,3.767 -9.168,3.767Z" style="fill:#ff8200;fill-rule:nonzero;"/></g></svg>