<svg viewBox="0 0 100 46" xmlns="http://www.w3.org/2000/svg" fill-rule="evenodd" clip-rule="evenodd" stroke-linejoin="round" stroke-miterlimit="1.414"><path d="M12.688 44.909l-.171-.039c1.913-8.509 6.722-16.237 13.54-21.758a39.064 39.064 0 0 1 24.559-8.688c18.15 0 34.024 12.65 38.075 30.342l-.171.039C84.469 27.021 68.883 14.6 50.616 14.6c-18.028 0-33.979 12.746-37.928 30.309z" fill="#3f3d56" fill-rule="nonzero"/><circle cx="79.123" cy="19.341" r="4.777" fill="#ff6584"/><path fill="#3f3d56" d="M77.133 38.439h.176v6.948h-.176z"/><path d="M78.932 39.325c.011 2.429-1.698 4.407-1.698 4.407s-1.728-1.962-1.739-4.391c-.011-2.43 1.698-4.407 1.698-4.407s1.728 1.961 1.739 4.391z" fill="#6c63ff" fill-rule="nonzero"/><path d="M78.932 39.325c.011 2.429-1.698 4.407-1.698 4.407s-1.728-1.962-1.739-4.391c-.011-2.43 1.698-4.407 1.698-4.407s1.728 1.961 1.739 4.391z" fill-opacity=".1" fill-rule="nonzero"/><circle cx="44.065" cy="21.877" r="2.748" fill="#6c63ff" fill-opacity=".4"/><circle cx="38.979" cy="23.19" r="1.928" fill="#6c63ff" fill-opacity=".4"/><circle cx="18.31" cy="28.731" r="1.928" fill="#6c63ff" fill-opacity=".4"/><circle cx="75.313" cy="21.651" r="2.748" fill="#6c63ff" fill-opacity=".4"/><path d="M4.981 44.615c.149.551.659.892.659.892s.269-.552.12-1.103c-.149-.55-.66-.892-.66-.892s-.268.552-.119 1.103z" fill="#3f3d56" fill-rule="nonzero"/><path d="M5.2 44.497c.408.398.458 1.009.458 1.009s-.613-.033-1.021-.431c-.409-.398-.459-1.01-.459-1.01s.613.034 1.022.432z" fill="#6c63ff" fill-rule="nonzero"/><path d="M58.807 44.615c.149.551.659.892.659.892s.269-.552.12-1.103c-.149-.55-.66-.892-.66-.892s-.268.552-.119 1.103z" fill="#3f3d56" fill-rule="nonzero"/><path d="M59.025 44.497c.409.398.459 1.009.459 1.009s-.613-.033-1.021-.431c-.409-.398-.459-1.01-.459-1.01s.613.034 1.021.432z" fill="#6c63ff" fill-rule="nonzero"/><path d="M5.993 40.475l-.364-.606 3.396-2.911h8.733v.849l-3.154 3.396-3.638.728-4.973-1.456z" fill="#3f3d56" fill-rule="nonzero"/><path d="M19.261 38.666v-1.898h-1.143v.599l-.36-.409-2.911 2.911-.485.485-.607 2.426 1.092 2.668h5.579V39.99l-1.165-1.324z" fill="#ccc" fill-rule="nonzero"/><path fill="#f2f2f2" d="M5.629 39.869h9.218v5.579H5.629z"/><path fill="#3f3d56" d="M11.633 41.627h1.941v1.698h-1.941z"/><path fill="#ccc" d="M9.146 41.567h1.698v3.881H9.146z"/><path d="M7.206 42.173v-.606h-.728v.606h.728zM7.145 42.658h-.667v.607h.728v-.607h-.061z" fill="#3f3d56" fill-rule="nonzero"/><path fill="#3f3d56" d="M7.691 41.567h.728v.606h-.728zM7.691 42.658h.728v.606h-.728z"/><path d="M17.455 42.234v-.607h-.728v.607h.728zM17.394 42.719h-.667v.607h.728v-.607h-.061z" fill="#3f3d56" fill-rule="nonzero"/><path fill="#3f3d56" d="M17.94 41.627h.728v.606h-.728zM17.94 42.719h.728v.606h-.728z"/><path d="M41.085 40.475l-.364-.606 3.396-2.911h8.733v.849l-3.153 3.396-3.639.728-4.973-1.456z" fill="#3f3d56" fill-rule="nonzero"/><path d="M54.354 38.666v-1.898H53.21v.599l-.36-.409-2.911 2.911-.485.485-.606 2.426 1.091 2.668h5.58V39.99l-1.165-1.324z" fill="#ccc" fill-rule="nonzero"/><path fill="#f2f2f2" d="M40.721 39.869h9.218v5.579h-9.218z"/><path fill="#3f3d56" d="M46.725 41.627h1.941v1.698h-1.941z"/><path fill="#ccc" d="M44.239 41.567h1.698v3.881h-1.698z"/><path d="M42.298 42.173v-.606h-.728v.606h.728zM42.237 42.658h-.667v.607h.728v-.607h-.061z" fill="#3f3d56" fill-rule="nonzero"/><path fill="#3f3d56" d="M42.783 41.567h.728v.606h-.728zM42.783 42.658h.728v.606h-.728z"/><path d="M52.547 42.234v-.607h-.728v.607h.728zM52.486 42.719h-.667v.607h.728v-.607h-.061z" fill="#3f3d56" fill-rule="nonzero"/><path fill="#3f3d56" d="M53.032 41.627h.728v.606h-.728zM53.032 42.719h.728v.606h-.728z"/><path d="M24.672 30.287l-.607-.485 3.396-3.033h8.612v2.669l-5.58 3.76-5.821-2.911z" fill="#3f3d56" fill-rule="nonzero"/><path d="M37.643 28.47v-1.64H36.5v.402l-.427-.463-2.79 3.033-1.091.727-1.693 12.367 2.553 2.552h5.932V29.923l-1.341-1.453z" fill="#ccc" fill-rule="nonzero"/><path fill="#f2f2f2" d="M24.065 29.802h9.218v15.647h-9.218z"/><path fill="#ccc" d="M27.643 41.627h1.698v3.821h-1.698z"/><path d="M25.824 42.719v-.606h-.728v.606h.728zM25.763 43.204h-.667v.607h.728v-.607h-.061z" fill="#3f3d56" fill-rule="nonzero"/><path fill="#3f3d56" d="M26.309 42.113h.728v.606h-.728zM26.309 43.204h.728v.606h-.728z"/><path d="M30.797 42.719v-.606h-.728v.606h.728zM30.736 43.204h-.667v.607h.728v-.607h-.061z" fill="#3f3d56" fill-rule="nonzero"/><path fill="#3f3d56" d="M31.282 42.113h.728v.606h-.728zM31.282 43.204h.728v.606h-.728z"/><path d="M35.891 30.59v-.606h-.728v.606h.728zM35.83 31.075h-.667v.607h.728v-.607h-.061z" fill="#3f3d56" fill-rule="nonzero"/><path fill="#3f3d56" d="M36.376 29.984h.728v.606h-.728zM36.376 31.075h.728v.606h-.728z"/><path d="M35.891 33.986v-.606h-.728v.606h.728zM35.83 34.471h-.667v.607h.728v-.607h-.061z" fill="#3f3d56" fill-rule="nonzero"/><path fill="#3f3d56" d="M36.376 33.38h.728v.606h-.728zM36.376 34.471h.728v.606h-.728z"/><path d="M35.891 37.382v-.606h-.728v.606h.728zM35.83 37.867h-.667v.607h.728v-.607h-.061z" fill="#3f3d56" fill-rule="nonzero"/><path fill="#3f3d56" d="M36.376 36.776h.728v.606h-.728zM36.376 37.867h.728v.606h-.728z"/><path d="M35.891 40.778v-.606h-.728v.606h.728zM35.83 41.264h-.667v.606h.728v-.606h-.061z" fill="#3f3d56" fill-rule="nonzero"/><path fill="#3f3d56" d="M36.376 40.172h.728v.606h-.728zM36.376 41.264h.728v.606h-.728zM25.096 30.59h7.035v1.455h-7.035zM25.096 33.501h7.035v1.455h-7.035zM25.096 36.412h7.035v1.455h-7.035zM25.096 39.323h7.035v1.455h-7.035z"/><path d="M60.116 30.287l-.607-.485 3.396-3.033h8.612v2.669l-5.579 3.76-5.822-2.911z" fill="#3f3d56" fill-rule="nonzero"/><path d="M73.087 28.47v-1.64h-1.143v.402l-.427-.463-2.79 3.033-1.091.727-1.693 12.367 2.553 2.552h5.932V29.923l-1.341-1.453z" fill="#ccc" fill-rule="nonzero"/><path fill="#f2f2f2" d="M59.509 29.802h9.218v15.647h-9.218z"/><path fill="#ccc" d="M63.087 41.627h1.698v3.821h-1.698z"/><path d="M61.268 42.719v-.606h-.728v.606h.728zM61.207 43.204h-.667v.607h.728v-.607h-.061z" fill="#3f3d56" fill-rule="nonzero"/><path fill="#3f3d56" d="M61.753 42.113h.728v.606h-.728zM61.753 43.204h.728v.606h-.728z"/><path d="M66.241 42.719v-.606h-.728v.606h.728zM66.18 43.204h-.667v.607h.728v-.607h-.061z" fill="#3f3d56" fill-rule="nonzero"/><path fill="#3f3d56" d="M66.726 42.113h.728v.606h-.728zM66.726 43.204h.728v.606h-.728z"/><path d="M71.335 30.59v-.606h-.728v.606h.728zM71.274 31.075h-.667v.607h.728v-.607h-.061z" fill="#3f3d56" fill-rule="nonzero"/><path fill="#3f3d56" d="M71.82 29.984h.728v.606h-.728zM71.82 31.075h.728v.606h-.728z"/><path d="M71.335 33.986v-.606h-.728v.606h.728zM71.274 34.471h-.667v.607h.728v-.607h-.061z" fill="#3f3d56" fill-rule="nonzero"/><path fill="#3f3d56" d="M71.82 33.38h.728v.606h-.728zM71.82 34.471h.728v.606h-.728z"/><path d="M71.335 37.382v-.606h-.728v.606h.728zM71.274 37.867h-.667v.607h.728v-.607h-.061z" fill="#3f3d56" fill-rule="nonzero"/><path fill="#3f3d56" d="M71.82 36.776h.728v.606h-.728zM71.82 37.867h.728v.606h-.728z"/><path d="M71.335 40.778v-.606h-.728v.606h.728zM71.274 41.264h-.667v.606h.728v-.606h-.061z" fill="#3f3d56" fill-rule="nonzero"/><path fill="#3f3d56" d="M71.82 40.172h.728v.606h-.728zM71.82 41.264h.728v.606h-.728zM60.54 30.59h7.035v1.455H60.54zM60.54 33.501h7.035v1.455H60.54zM60.54 36.412h7.035v1.455H60.54zM60.54 39.323h7.035v1.455H60.54z"/><path d="M79.553 30.287l-.607-.485 3.396-3.033h8.612v2.669l-5.579 3.76-5.822-2.911z" fill="#3f3d56" fill-rule="nonzero"/><path d="M92.524 28.47v-1.64h-1.143v.402l-.427-.463-2.79 3.033-1.091.727-1.693 12.367 2.553 2.552h5.932V29.923l-1.341-1.453z" fill="#ccc" fill-rule="nonzero"/><path fill="#f2f2f2" d="M78.946 29.802h9.218v15.647h-9.218z"/><path fill="#ccc" d="M82.524 41.627h1.698v3.821h-1.698z"/><path d="M80.705 42.719v-.606h-.728v.606h.728zM80.644 43.204h-.667v.607h.728v-.607h-.061z" fill="#3f3d56" fill-rule="nonzero"/><path fill="#3f3d56" d="M81.19 42.113h.728v.606h-.728zM81.19 43.204h.728v.606h-.728z"/><path d="M85.678 42.719v-.606h-.728v.606h.728zM85.617 43.204h-.667v.607h.728v-.607h-.061z" fill="#3f3d56" fill-rule="nonzero"/><path fill="#3f3d56" d="M86.163 42.113h.728v.606h-.728zM86.163 43.204h.728v.606h-.728z"/><path d="M90.772 30.59v-.606h-.728v.606h.728zM90.712 31.075h-.668v.607h.728v-.607h-.06z" fill="#3f3d56" fill-rule="nonzero"/><path fill="#3f3d56" d="M91.257 29.984h.728v.606h-.728zM91.257 31.075h.728v.606h-.728z"/><path d="M90.772 33.986v-.606h-.728v.606h.728zM90.712 34.471h-.668v.607h.728v-.607h-.06z" fill="#3f3d56" fill-rule="nonzero"/><path fill="#3f3d56" d="M91.257 33.38h.728v.606h-.728zM91.257 34.471h.728v.606h-.728z"/><path d="M90.772 37.382v-.606h-.728v.606h.728zM90.712 37.867h-.668v.607h.728v-.607h-.06z" fill="#3f3d56" fill-rule="nonzero"/><path fill="#3f3d56" d="M91.257 36.776h.728v.606h-.728zM91.257 37.867h.728v.606h-.728z"/><path d="M90.772 40.778v-.606h-.728v.606h.728zM90.712 41.264h-.668v.606h.728v-.606h-.06z" fill="#3f3d56" fill-rule="nonzero"/><path fill="#3f3d56" d="M91.257 40.172h.728v.606h-.728zM91.257 41.264h.728v.606h-.728zM79.977 30.59h7.035v1.455h-7.035zM79.977 33.501h7.035v1.455h-7.035zM79.977 36.412h7.035v1.455h-7.035zM79.977 39.323h7.035v1.455h-7.035zM0 45.388h100v.176H0zM22.164 38.439h.176v6.948h-.176z"/><path d="M23.963 39.325c.011 2.429-1.698 4.407-1.698 4.407s-1.728-1.962-1.739-4.391c-.011-2.43 1.698-4.407 1.698-4.407s1.728 1.961 1.739 4.391z" fill="#6c63ff" fill-rule="nonzero"/><path fill="#3f3d56" d="M39.754 38.439h.176v6.948h-.176z"/><path d="M41.553 39.325c.011 2.429-1.698 4.407-1.698 4.407s-1.728-1.962-1.739-4.391c-.011-2.43 1.698-4.407 1.698-4.407s1.728 1.961 1.739 4.391z" fill="#6c63ff" fill-rule="nonzero"/><path fill="#3f3d56" d="M74.846 38.439h.176v6.948h-.176z"/><path d="M76.645 39.325c.012 2.429-1.698 4.407-1.698 4.407s-1.727-1.962-1.738-4.391c-.012-2.43 1.698-4.407 1.698-4.407s1.727 1.961 1.738 4.391z" fill="#6c63ff" fill-rule="nonzero"/><ellipse cx="51.671" cy="14.38" rx="3.342" ry=".752" fill="#6c63ff"/><path d="M55.453 3.87c0 2.137-3.87 8.179-3.87 8.179s-3.87-6.042-3.87-8.179A3.889 3.889 0 0 1 51.583 0a3.889 3.889 0 0 1 3.87 3.87z" fill="#6c63ff" fill-rule="nonzero"/><circle cx="51.583" cy="3.87" r="2.199" fill="#f2f2f2"/></svg>